<svg width="80" height="18" viewBox="0 0 80 18" fill="none"
    xmlns="http://www.w3.org/2000/svg">
    <path d="M0 6.59944V9.65391C1.04398 9.65319 2.07786 9.85829 3.04247 10.2575C4.00709 10.6566 4.88351 11.2421 5.62159 11.9803C6.35949 12.7182 6.94469 13.5943 7.34371 14.5585C7.74274 15.5226 7.94777 16.556 7.9471 17.5994H11C10.9972 14.6833 9.8375 11.8873 7.77526 9.82508C5.71302 7.76284 2.91673 6.60278 0 6.59944Z" fill="#333333"/>
    <path d="M2.94737 1.59944H0V4.26639C3.53506 4.27007 6.92428 5.67597 9.42398 8.17559C11.9237 10.6752 13.3297 14.0644 13.3335 17.5994H16V14.6521C15.3971 11.4127 13.8274 8.43187 11.4975 6.10197C9.16757 3.77207 6.18672 2.20234 2.94737 1.59944Z" fill="#333333"/>
    <path d="M19.5256 17.5994H15.571L21.5966 0.144897H26.3523L32.3693 17.5994H28.4148L24.0426 4.13353H23.9062L19.5256 17.5994ZM19.2784 10.7386H28.6193V13.6193H19.2784V10.7386Z" fill="#333333"/>
    <path d="M34.402 17.5994V4.50853H37.9219V6.79263H38.0582C38.2969 5.98012 38.6974 5.36649 39.2599 4.95172C39.8224 4.53126 40.4702 4.32103 41.2031 4.32103C41.3849 4.32103 41.581 4.3324 41.7912 4.35512C42.0014 4.37785 42.1861 4.4091 42.3452 4.44887V7.67047C42.1747 7.61933 41.9389 7.57387 41.6378 7.5341C41.3366 7.49433 41.0611 7.47444 40.8111 7.47444C40.277 7.47444 39.7997 7.59092 39.3793 7.82388C38.9645 8.05115 38.6349 8.36933 38.3906 8.77842C38.152 9.18751 38.0327 9.6591 38.0327 10.1932V17.5994H34.402Z" fill="#333333"/>
    <path d="M49.5277 17.8551C48.1868 17.8551 47.0334 17.571 46.0675 17.0029C45.1072 16.429 44.3686 15.6335 43.8516 14.6165C43.3402 13.5994 43.0845 12.429 43.0845 11.1051C43.0845 9.76422 43.343 8.58808 43.8601 7.57672C44.3828 6.55967 45.1243 5.76706 46.0845 5.19887C47.0447 4.62501 48.1868 4.33808 49.5107 4.33808C50.6527 4.33808 51.6527 4.54547 52.5107 4.96024C53.3686 5.37501 54.0476 5.9574 54.5476 6.7074C55.0476 7.4574 55.3232 8.33808 55.3743 9.34944H51.9482C51.8516 8.69603 51.5959 8.17047 51.1811 7.77274C50.772 7.36933 50.2351 7.16763 49.5703 7.16763C49.0078 7.16763 48.5163 7.32103 48.0959 7.62785C47.6811 7.92899 47.3572 8.36933 47.1243 8.94888C46.8913 9.52842 46.7749 10.2301 46.7749 11.054C46.7749 11.8892 46.8885 12.5994 47.1158 13.1847C47.3487 13.7699 47.6754 14.2159 48.0959 14.5227C48.5163 14.8296 49.0078 14.983 49.5703 14.983C49.9851 14.983 50.3572 14.8977 50.6868 14.7273C51.022 14.5568 51.2976 14.3097 51.5135 13.9858C51.7351 13.6563 51.88 13.2614 51.9482 12.8011H55.3743C55.3175 13.8011 55.0447 14.6818 54.5561 15.4432C54.0732 16.1989 53.4055 16.7898 52.5533 17.2159C51.701 17.6421 50.6925 17.8551 49.5277 17.8551Z" fill="#333333"/>
    <path d="M61.4318 17.8466C60.5966 17.8466 59.8523 17.7017 59.1989 17.4119C58.5455 17.1165 58.0284 16.6818 57.6477 16.108C57.2727 15.5284 57.0852 14.8068 57.0852 13.9432C57.0852 13.2159 57.2188 12.6051 57.4858 12.1108C57.7528 11.6165 58.1165 11.2188 58.5767 10.9176C59.0369 10.6165 59.5597 10.3892 60.1449 10.2358C60.7358 10.0824 61.3551 9.97444 62.0028 9.91194C62.7642 9.8324 63.3778 9.75853 63.8438 9.69035C64.3097 9.61649 64.6477 9.50853 64.858 9.36649C65.0682 9.22444 65.1733 9.01422 65.1733 8.73581V8.68467C65.1733 8.1449 65.0028 7.72728 64.6619 7.43183C64.3267 7.13637 63.8494 6.98865 63.2301 6.98865C62.5767 6.98865 62.0568 7.13353 61.6705 7.42331C61.2841 7.7074 61.0284 8.06535 60.9034 8.49717L57.5455 8.22444C57.7159 7.42899 58.0511 6.74149 58.5511 6.16194C59.0511 5.57672 59.696 5.12785 60.4858 4.81535C61.2812 4.49717 62.2017 4.33808 63.2472 4.33808C63.9744 4.33808 64.6705 4.42331 65.3352 4.59376C66.0057 4.76422 66.5994 5.02842 67.1165 5.38637C67.6392 5.74433 68.0511 6.20456 68.3523 6.76706C68.6534 7.32387 68.804 7.99149 68.804 8.7699V17.5994H65.3608V15.7841H65.2585C65.0483 16.1932 64.767 16.554 64.4148 16.8665C64.0625 17.1733 63.6392 17.4148 63.1449 17.5909C62.6506 17.7614 62.0795 17.8466 61.4318 17.8466ZM62.4716 15.3409C63.0057 15.3409 63.4773 15.2358 63.8864 15.0256C64.2955 14.8097 64.6165 14.5199 64.8494 14.1563C65.0824 13.7926 65.1989 13.3807 65.1989 12.9205V11.5313C65.0852 11.6051 64.929 11.6733 64.7301 11.7358C64.5369 11.7926 64.3182 11.8466 64.0739 11.8977C63.8295 11.9432 63.5852 11.9858 63.3409 12.0256C63.0966 12.0597 62.875 12.0909 62.6761 12.1193C62.25 12.1818 61.8778 12.2813 61.5597 12.4176C61.2415 12.554 60.9943 12.7386 60.8182 12.9716C60.642 13.1989 60.554 13.483 60.554 13.8239C60.554 14.3182 60.733 14.696 61.0909 14.9574C61.4545 15.2131 61.9148 15.3409 62.4716 15.3409Z" fill="#333333"/>
    <path d="M71.6207 17.5994V4.50853H75.1406V6.79263H75.277C75.5156 5.98012 75.9162 5.36649 76.4787 4.95172C77.0412 4.53126 77.6889 4.32103 78.4219 4.32103C78.6037 4.32103 78.7997 4.3324 79.0099 4.35512C79.2202 4.37785 79.4048 4.4091 79.5639 4.44887V7.67047C79.3935 7.61933 79.1577 7.57387 78.8565 7.5341C78.5554 7.49433 78.2798 7.47444 78.0298 7.47444C77.4957 7.47444 77.0185 7.59092 76.598 7.82388C76.1832 8.05115 75.8537 8.36933 75.6094 8.77842C75.3707 9.18751 75.2514 9.6591 75.2514 10.1932V17.5994H71.6207Z" fill="#333333"/>
</svg>
    