<svg width="38" height="38" viewBox="0 0 38 38" fill="none"
    xmlns="http://www.w3.org/2000/svg">
    <path d="M18.8371 9.69043L21.2899 10.0194L23.5755 10.9839L25.5382 12.5182L27.0442 14.5177L27.9909 16.8462L28.3138 19.345L27.9909 21.8438L27.0442 24.1723L25.5382 26.1719L23.5755 27.7062L21.2899 28.6707L18.8371 28.9996L16.3843 28.6707L14.0987 27.7062L12.136 26.1719L10.63 24.1723L9.68326 21.8438L9.36035 19.345L9.68326 16.8462L10.63 14.5177L12.136 12.5182L14.0987 10.9839L16.3843 10.0194L18.8371 9.69043Z" fill="white"/>
    <path d="M19.0005 0.999634L19.0005 5.99963" stroke="white" stroke-width="2" stroke-linecap="round"/>
    <path d="M19.0005 31.9996L19.0005 36.9996" stroke="white" stroke-width="2" stroke-linecap="round"/>
    <path d="M37.0005 18.9996L32.0005 18.9996" stroke="white" stroke-width="2" stroke-linecap="round"/>
    <path d="M6.00049 18.9996L1.00049 18.9996" stroke="white" stroke-width="2" stroke-linecap="round"/>
    <path d="M31.728 31.7272L28.1925 28.1916" stroke="white" stroke-width="2" stroke-linecap="round"/>
    <path d="M9.80811 9.80725L6.27257 6.27172" stroke="white" stroke-width="2" stroke-linecap="round"/>
    <path d="M6.27295 31.7272L9.80848 28.1916" stroke="white" stroke-width="2" stroke-linecap="round"/>
    <path d="M28.1929 9.80725L31.7284 6.27172" stroke="white" stroke-width="2" stroke-linecap="round"/>
</svg>
    