<svg width="438" height="131" viewBox="0 0 438 131" fill="none" xmlns="http://www.w3.org/2000/svg">
<path d="M0 126.681C0 125.082 0.53207 123.322 1.59621 121.403C2.66035 119.377 3.88411 117.511 5.26749 115.805C6.75729 113.992 8.14067 112.392 9.41764 111.006C10.801 109.62 11.812 108.66 12.4504 108.127L47.5671 43.6667C48.6312 42.8136 49.5889 41.7473 50.4402 40.4676C51.2915 39.0814 52.1429 37.8018 52.9942 36.6288C53.9519 35.3492 54.9628 34.2829 56.027 33.4298C57.1975 32.5767 58.5809 32.1502 60.1771 32.1502C60.1771 33.8563 59.9643 35.9357 59.5386 38.3883C59.2194 40.7342 58.6873 42.4937 57.9424 43.6667L27.7741 97.5702C30.9665 96.2906 33.8929 95.9174 36.5532 96.4506C39.32 96.8771 41.8739 97.7835 44.215 99.1697C46.5561 100.556 48.7376 102.262 50.7595 104.288C52.8878 106.208 54.8564 108.074 56.6655 109.886C58.5809 111.699 60.3899 113.245 62.0926 114.525C63.7952 115.805 65.4978 116.444 67.2004 116.444C70.9249 116.444 74.543 114.578 78.0547 110.846C81.5663 107.114 84.9184 102.315 88.1108 96.4506C91.3032 90.5857 94.2296 84.081 96.8899 76.9365C99.5503 69.792 101.838 62.8608 103.754 56.1429C105.669 49.3183 107.159 43.1335 108.223 37.5885C109.287 31.9369 109.819 27.7249 109.819 24.9524C109.819 23.4595 109.66 21.86 109.34 20.1538C109.128 18.3411 108.649 16.7416 107.904 15.3553C107.159 13.8624 106.148 12.6361 104.871 11.6764C103.7 10.7167 102.157 10.2369 100.242 10.2369C97.3688 10.2369 94.7617 11.4632 92.4206 13.9158C90.0794 16.3683 87.9512 19.514 86.0357 23.3529C84.1203 27.1917 82.4176 31.5104 80.9278 36.3089C79.5445 41.0008 78.3207 45.5861 77.2566 50.0647C76.2988 54.5433 75.5539 58.6488 75.0219 62.381C74.5962 66.1131 74.3834 68.939 74.3834 70.8584C74.3834 72.9911 74.5962 75.0171 75.0219 76.9365C75.5539 78.8559 76.1392 80.722 76.7777 82.5348C77.4162 84.3476 77.9483 86.2137 78.3739 88.1331C78.906 89.9459 79.172 91.8653 79.172 93.8913C76.1924 93.8913 73.7981 93.1449 71.9891 91.652C70.2864 90.1591 69.0095 88.293 68.1582 86.0537C67.3069 83.8144 66.7216 81.4151 66.4023 78.8559C66.1895 76.1901 66.0831 73.7375 66.0831 71.4982C66.0831 68.939 66.4023 65.3667 67.0408 60.7814C67.7857 56.1962 68.7966 51.291 70.0736 46.0659C71.457 40.7342 73.1064 35.3492 75.0219 29.9109C77.0437 24.4725 79.3316 19.5674 81.8856 15.1954C84.5459 10.7167 87.4723 7.09117 90.6647 4.31868C93.9636 1.43956 97.5284 0 101.359 0C101.679 0 102.37 0.0533171 103.434 0.159951C104.605 0.266585 105.35 0.319902 105.669 0.319902C107.372 2.45258 108.862 4.47863 110.138 6.39805C111.415 8.31746 112.48 10.2369 113.331 12.1563C114.289 14.0757 114.98 16.1017 115.406 18.2344C115.832 20.3671 116.044 22.7664 116.044 25.4322C116.044 28.7379 115.512 33.5364 114.448 39.8278C113.491 46.1193 112.054 53.0505 110.138 60.6215C108.223 68.0859 105.882 75.7635 103.115 83.6545C100.348 91.4387 97.156 98.5299 93.5379 104.928C89.9198 111.326 85.9293 116.604 81.5663 120.763C77.2034 124.815 72.5211 126.841 67.5197 126.841C64.1144 126.841 61.1881 126.308 58.7405 125.242C56.3994 124.175 54.3243 122.896 52.5153 121.403C50.7063 119.803 49.0569 118.097 47.5671 116.285C46.0773 114.365 44.5343 112.659 42.938 111.166C41.3418 109.567 39.586 108.234 37.6706 107.167C35.7551 106.101 33.414 105.568 30.6472 105.568C27.7741 105.568 25.2733 106.474 23.145 108.287C21.0168 110.1 19.1545 112.339 17.5583 115.005C15.9621 117.671 14.5787 120.443 13.4082 123.322C12.2376 126.201 11.2267 128.707 10.3754 130.84C10.1625 130.84 9.79009 130.84 9.25802 130.84C8.83236 130.947 8.51312 131 8.30029 131C7.76822 131 7.02332 130.893 6.0656 130.68C5.21429 130.467 4.30977 130.2 3.35204 129.88C2.50073 129.454 1.70262 128.974 0.957726 128.441C0.319242 127.908 0 127.321 0 126.681Z" fill="black"/>
<path d="M121.95 117.404C121.95 116.978 121.95 116.125 121.95 114.845C122.057 113.459 122.11 112.552 122.11 112.126C125.515 104.341 129.878 97.1437 135.199 90.5324C140.52 83.921 146.532 78.0562 153.236 72.9377C153.449 72.9377 153.768 72.8844 154.194 72.7778C154.726 72.5645 155.098 72.4579 155.311 72.4579C158.184 72.4579 160.526 73.0977 162.335 74.3773C164.25 75.5503 165.74 77.1498 166.804 79.1758C167.974 81.0952 168.773 83.2812 169.198 85.7338C169.624 88.0798 169.837 90.3724 169.837 92.6117C169.837 96.7705 168.879 101.142 166.964 105.728C165.048 110.206 162.441 114.365 159.142 118.204C155.95 121.936 152.278 125.028 148.128 127.481C143.978 129.827 139.668 131 135.199 131C130.73 131 127.378 129.827 125.143 127.481C123.015 125.028 121.95 121.67 121.95 117.404ZM134.401 115.485C134.401 116.658 134.88 117.457 135.837 117.884C136.795 118.311 137.753 118.524 138.711 118.524C141.371 118.524 143.925 117.831 146.372 116.444C148.926 114.952 151.161 113.139 153.077 111.006C155.098 108.767 156.695 106.314 157.865 103.648C159.036 100.983 159.621 98.4233 159.621 95.9707C159.621 94.7977 159.515 93.5181 159.302 92.1319C159.195 90.639 158.876 89.3594 158.344 88.293C157.812 87.1201 156.961 86.2137 155.79 85.5739C154.726 84.9341 153.183 84.8274 151.161 85.254C149.671 85.5739 147.969 86.9601 146.053 89.4127C144.138 91.8653 142.276 94.7444 140.466 98.0501C138.764 101.249 137.327 104.501 136.157 107.807C134.986 111.006 134.401 113.565 134.401 115.485Z" fill="black"/>
<path d="M177.818 123.642C177.818 122.683 177.818 121.936 177.818 121.403C177.818 120.87 177.871 120.39 177.977 119.963C178.19 119.43 178.456 118.897 178.776 118.364C179.095 117.831 179.52 117.138 180.052 116.285C180.904 114.792 182.5 112.179 184.841 108.447C187.182 104.715 189.683 100.769 192.343 96.6105C195.004 92.4518 197.504 88.5063 199.845 84.7741C202.293 81.0419 203.996 78.4294 204.953 76.9365C205.06 76.8299 205.326 76.7766 205.751 76.7766C206.284 76.7766 206.656 76.7766 206.869 76.7766C207.082 76.7766 207.454 76.7766 207.986 76.7766C208.518 76.7766 208.837 76.8299 208.944 76.9365C209.05 77.0431 209.263 77.3097 209.582 77.7363C210.008 78.1628 210.434 78.6427 210.859 79.1758C211.391 79.6024 211.817 80.0289 212.136 80.4554C212.562 80.882 212.881 81.0952 213.094 81.0952C214.052 81.0952 215.063 80.7753 216.127 80.1355C217.191 79.4957 218.255 78.8026 219.319 78.0562C220.49 77.2031 221.66 76.4567 222.831 75.8168C224.001 75.177 225.225 74.8571 226.502 74.8571C227.886 74.8571 229.163 75.177 230.333 75.8168C231.504 76.4567 232.515 77.2564 233.366 78.2161C234.217 79.1758 234.856 80.2422 235.281 81.4151C235.813 82.5881 236.079 83.7611 236.079 84.9341C236.079 87.3867 235.707 89.7326 234.962 91.9719C234.324 94.2112 233.579 96.4506 232.727 98.6899C231.876 100.823 231.078 103.009 230.333 105.248C229.695 107.381 229.375 109.62 229.375 111.966C229.375 114.312 229.641 116.018 230.173 117.084C230.706 118.044 232.195 118.524 234.643 118.524C237.516 118.524 240.23 118.097 242.784 117.244C245.444 116.391 248.157 115.965 250.924 115.965C250.924 118.524 250.126 120.656 248.53 122.363C247.04 124.069 245.125 125.455 242.784 126.521C240.549 127.481 238.101 128.174 235.441 128.601C232.887 128.921 230.546 129.081 228.418 129.081C224.374 129.081 221.394 127.961 219.479 125.722C217.67 123.376 216.765 120.283 216.765 116.444C216.765 113.885 217.191 111.486 218.042 109.247C219 107.007 220.011 104.821 221.075 102.689C222.246 100.556 223.31 98.4233 224.268 96.2906C225.225 94.1579 225.704 91.8653 225.704 89.4127C225.704 88.7729 225.598 87.9198 225.385 86.8535C225.172 85.7871 224.48 85.254 223.31 85.254C219.798 85.254 216.606 86.3736 213.733 88.6129C210.966 90.8523 208.412 93.6781 206.071 97.0904C203.836 100.503 201.761 104.182 199.845 108.127C198.036 112.072 196.281 115.751 194.578 119.164C192.982 122.576 191.439 125.402 189.949 127.641C188.459 129.88 186.916 131 185.32 131C183.085 131 181.276 130.307 179.893 128.921C178.509 127.534 177.818 125.775 177.818 123.642Z" fill="black"/>
<path d="M247.732 122.842C247.732 121.243 248.211 119.004 249.168 116.125C250.126 113.139 251.35 109.94 252.84 106.527C254.436 103.115 256.192 99.6496 258.107 96.1307C260.129 92.6117 262.151 89.4127 264.173 86.5336C266.195 83.6545 268.11 81.3085 269.919 79.4957C271.728 77.6829 273.324 76.7766 274.708 76.7766C277.687 76.7766 279.177 78.2161 279.177 81.0952C279.177 82.3748 278.911 83.4412 278.379 84.2943C277.953 85.1473 277.421 85.9471 276.783 86.6935C276.144 87.44 275.453 88.1864 274.708 88.9328C273.963 89.5727 273.324 90.3724 272.792 91.3321C271.835 92.9316 270.664 95.1176 269.281 97.8901C267.897 100.663 266.514 103.382 265.13 106.048C263.853 108.607 262.736 110.899 261.778 112.926C260.821 114.952 260.342 116.071 260.342 116.285V118.364C264.492 117.617 268.483 115.858 272.313 113.085C276.144 110.206 279.762 106.847 283.168 103.009C286.679 99.1697 289.978 95.1709 293.064 91.0122C296.257 86.7469 299.236 82.8547 302.003 79.3358C304.77 75.7102 307.377 72.7245 309.824 70.3785C312.272 68.0326 314.56 66.8596 316.688 66.8596C316.688 70.8051 315.89 74.3773 314.294 77.5763C312.698 80.7753 310.942 83.921 309.026 87.0134C307.217 90.1058 305.515 93.3048 303.918 96.6105C302.322 99.8095 301.524 103.435 301.524 107.487C301.524 109.193 302.535 110.74 304.557 112.126C306.685 113.405 309.079 114.525 311.74 115.485C314.507 116.338 317.167 117.031 319.721 117.564C322.275 118.097 324.031 118.417 324.988 118.524V122.683C322.541 122.789 319.508 122.842 315.89 122.842C312.272 122.736 308.654 122.309 305.036 121.563C301.418 120.816 298.119 119.59 295.139 117.884C292.266 116.071 290.351 113.459 289.393 110.046C286.626 111.859 283.966 113.992 281.412 116.444C278.858 118.897 276.198 121.19 273.431 123.322C270.77 125.455 267.95 127.268 264.971 128.761C261.991 130.254 258.746 131 255.234 131C253.106 131 251.297 130.094 249.807 128.281C248.423 126.468 247.732 124.655 247.732 122.842Z" fill="black"/>
<path d="M323.392 115.325C323.392 112.232 323.977 109.14 325.148 106.048C326.319 102.955 327.702 99.9162 329.298 96.9304C330.894 93.838 332.491 90.7989 334.087 87.8132C335.789 84.8274 337.066 81.895 337.918 79.0159C335.896 80.1889 334.14 80.882 332.65 81.0952C331.267 81.2019 329.564 81.2552 327.542 81.2552C327.329 81.2552 326.638 81.2552 325.467 81.2552C324.403 81.1486 323.711 81.0952 323.392 81.0952C324.031 78.7493 325.201 76.6699 326.904 74.8571C328.606 72.9377 330.522 71.3382 332.65 70.0586C334.885 68.6724 337.173 67.5527 339.514 66.6996C341.961 65.7399 344.143 64.9935 346.058 64.4603C349.251 59.4485 351.858 54.4367 353.88 49.4249C355.902 44.3065 357.923 39.348 359.945 34.5494C362.074 29.6443 364.521 25.0057 367.288 20.6337C370.161 16.1551 373.992 12.0497 378.781 8.31746L379.579 14.3956L359.626 61.2613C360.797 60.9414 362.233 60.6215 363.936 60.3016C365.639 59.9817 367.341 59.6618 369.044 59.3419C370.853 59.022 372.555 58.7554 374.152 58.5421C375.854 58.2222 377.291 57.9023 378.461 57.5824C378.568 57.5824 378.887 57.5824 379.419 57.5824C379.951 57.4758 380.377 57.4225 380.696 57.4225C382.186 57.4225 383.41 57.6891 384.367 58.2222C385.325 58.7554 386.123 59.9284 386.762 61.7411C379.526 63.8738 372.981 66.1131 367.128 68.4591C361.276 70.805 356.168 73.8974 351.805 77.7363C347.548 81.4685 344.036 86.267 341.27 92.1319C338.609 97.8901 336.747 105.301 335.683 114.365C335.683 116.284 335.789 118.044 336.002 119.643C336.215 121.243 337.545 122.203 339.993 122.523C342.44 122.523 344.728 122.043 346.856 121.083C348.985 120.123 351.06 119.11 353.082 118.044C355.104 116.871 357.125 115.805 359.147 114.845C361.276 113.885 363.563 113.405 366.011 113.405C366.011 115.965 364.894 118.311 362.659 120.443C360.424 122.576 357.711 124.442 354.518 126.042C351.432 127.641 348.24 128.867 344.941 129.72C341.642 130.573 338.929 131 336.8 131C334.672 131 332.757 130.573 331.054 129.72C329.351 128.867 327.915 127.748 326.744 126.361C325.68 124.869 324.829 123.162 324.19 121.243C323.658 119.324 323.392 117.351 323.392 115.325Z" fill="black"/>
<path d="M366.49 113.085C366.49 111.059 366.756 109.3 367.288 107.807C367.926 106.314 369.469 105.568 371.917 105.568C372.13 105.568 372.609 105.621 373.354 105.728C374.205 105.728 374.79 105.781 375.109 105.888C375.003 110.899 375.801 114.685 377.504 117.244C379.206 119.697 382.399 120.923 387.081 120.923C390.912 120.923 394.69 120.337 398.414 119.164C402.138 117.991 405.491 116.284 408.47 114.045C411.556 111.699 414.004 108.873 415.813 105.568C417.728 102.262 418.686 98.5299 418.686 94.3712C418.686 91.812 417.781 89.9992 415.972 88.9328C414.27 87.8665 412.354 87.0134 410.226 86.3736C408.098 85.7338 406.129 85.0407 404.32 84.2943C402.617 83.4412 401.766 82.0016 401.766 79.9756C401.766 77.523 403.256 75.177 406.235 72.9377C409.215 70.6984 412.727 68.7257 416.77 67.0195C420.814 65.2068 424.805 63.8205 428.742 62.8608C432.786 61.7945 435.872 61.2613 438 61.2613C438 64.3537 437.308 66.5397 435.925 67.8193C434.648 69.0989 433.052 70.1119 431.136 70.8584C429.221 71.6048 427.252 72.3512 425.23 73.0977C423.315 73.7375 421.719 75.0171 420.442 76.9365C422.144 78.3228 423.528 79.6024 424.592 80.7753C425.762 81.8417 426.667 83.0147 427.305 84.2943C427.944 85.5739 428.37 87.0134 428.582 88.6129C428.795 90.1058 428.902 91.9186 428.902 94.0513C428.902 99.5963 427.678 104.661 425.23 109.247C422.889 113.725 419.803 117.617 415.972 120.923C412.141 124.122 407.778 126.628 402.883 128.441C397.988 130.147 392.987 131 387.879 131C385.112 131 382.399 130.68 379.738 130.04C377.184 129.294 374.896 128.174 372.875 126.681C370.959 125.188 369.416 123.322 368.246 121.083C367.075 118.844 366.49 116.178 366.49 113.085Z" fill="black"/>
</svg>
