<svg width="48" height="49" viewBox="0 0 48 49" fill="none"
    xmlns="http://www.w3.org/2000/svg">
    <path fill-rule="evenodd" clip-rule="evenodd" d="M39.6798 36.8862C39.6798 43.4782 30.6398 44.2402 23.8418 44.2402L23.3553 44.2398C19.0242 44.2293 7.99982 43.9558 7.99982 36.8462C7.99982 30.3887 16.6765 29.5257 23.4228 29.4932L24.3283 29.4926C28.6591 29.5031 39.6798 29.7766 39.6798 36.8862ZM23.8418 32.4922C15.3198 32.4922 10.9998 33.9562 10.9998 36.8462C10.9998 39.7622 15.3198 41.2402 23.8418 41.2402C32.3618 41.2402 36.6798 39.7762 36.6798 36.8862C36.6798 33.9702 32.3618 32.4922 23.8418 32.4922ZM23.8418 4.49939C29.6978 4.49939 34.4598 9.26339 34.4598 15.1194C34.4598 20.9754 29.6978 25.7374 23.8418 25.7374H23.7778C17.9338 25.7194 13.1998 20.9534 13.2198 15.1134C13.2198 9.26339 17.9838 4.49939 23.8418 4.49939ZM23.8418 7.35539C19.5598 7.35539 16.0758 10.8374 16.0758 15.1194C16.0618 19.3874 19.5198 22.8674 23.7838 22.8834L23.8418 24.3114V22.8834C28.1218 22.8834 31.6038 19.3994 31.6038 15.1194C31.6038 10.8374 28.1218 7.35539 23.8418 7.35539Z" fill="white"/>
</svg>
    