<svg width="1411" height="792" viewBox="0 0 1411 792" fill="none" xmlns="http://www.w3.org/2000/svg">
<g filter="url(#filter0_f_1_339)">
<path d="M957.026 623C957.026 623 962.003 622.564 965.736 623.072C972.445 623.792 980.724 626.08 988.573 630.584C996.043 634.94 1002.7 641.363 1006.17 647.012C1006.77 647.722 1006.82 648.698 1007.42 649.408C1002.06 646.356 996.321 643.155 990.098 641.195C974.025 635.378 955.63 634.375 936.426 635.438C931.828 636.022 927.014 636.044 922.254 637.041C922.254 637.041 923.173 636.924 923.714 636.659C928.798 634.835 933.285 632.301 937.99 630.328C944.317 627.56 950.482 625.206 956.864 623.413L957.026 623ZM1016.67 655.894C1016.67 655.894 1017 655.067 1016.4 654.357C1016.4 654.357 1015.97 653.233 1014.78 651.813C1013.75 649.979 1011.74 647.287 1009.36 644.446C1004.97 638.914 997.61 633.169 989.761 628.665C983.428 624.755 976.609 622.085 970.386 620.125C978.662 619.074 987.372 619.146 995.434 620.873C1000.14 622.239 1005.01 623.193 1009.4 625.386C1013.94 627.166 1018.16 629.773 1023.09 631.702C1023.09 631.702 1023.47 631.85 1023.85 631.998L1024.01 631.585C1024.01 631.585 1024.01 631.585 1023.63 631.437C1018.59 627.558 1014.75 621.76 1012.36 615.58C1014.63 616.47 1018.32 619.342 1022.81 623.486C1029.47 629.909 1037.11 640.53 1040.8 653.42C1044.65 665.896 1044.34 680.08 1041.92 689.621C1041.27 691.275 1040.62 692.929 1040.35 694.731C1038.56 685.922 1034.71 676.785 1027.94 668.411C1024.74 664.299 1020.84 660.865 1016.57 657.283L1016.67 655.894ZM1039.57 726.851C1040.59 722.006 1042.05 714.946 1041.72 705.755C1041.72 705.755 1042.36 704.102 1042.96 701.472C1044.09 698.578 1044.57 693.999 1045.38 688.592C1046.83 678.192 1046.76 663.86 1042.69 650.822C1039.16 637.519 1031.85 626.071 1025.67 618.408C1022.1 614.147 1018.58 610.862 1016.63 609.145C1022.53 608.592 1028.53 609.99 1033.84 612.067C1041.03 614.886 1047.64 620.333 1051.54 627.107C1052.95 629.089 1053.22 630.626 1054.09 632.873C1054.58 634.972 1055.61 636.806 1056.1 638.904L1059.25 652.059C1061.04 660.868 1063.65 670.949 1070.69 677.52L1071.44 677.817C1072.2 678.114 1073.07 677.022 1073.39 676.195C1074.14 673.152 1075.28 670.258 1076.79 667.512C1076.68 668.901 1076.95 670.438 1076.85 671.827C1076.85 678.505 1075.67 687.103 1072.81 695.52C1069.57 703.789 1065.2 711.613 1061.04 716.66C1059.47 718.431 1058.07 719.788 1057.04 721.293C1051.25 723.796 1045.09 726.151 1039.3 728.653C1039.63 727.826 1039.79 727.413 1040.11 726.586L1039.57 726.851ZM1079.32 709.035C1079.32 709.035 1076.34 712.163 1074.56 713.371C1070.78 715.227 1067.15 716.67 1063.37 718.525C1066.93 712.769 1070.77 705.21 1074 696.94C1077.4 688.258 1079.51 679.544 1080.8 672.897C1081.61 670.829 1081.5 668.879 1081.77 667.077C1082.58 668.349 1083.61 670.182 1084.26 671.868C1086.37 676.511 1086.87 681.949 1086.6 687.09C1086.33 692.231 1084.99 697.903 1082.67 702.716C1081.69 705.197 1079.96 707.381 1078.78 709.3L1079.32 709.035ZM1270.51 545.474C1266.78 544.966 1262.5 544.723 1257.85 544.331C1254.87 544.12 1251.9 543.908 1248.92 543.697C1249.3 543.845 1250 543.167 1250.92 543.05C1258.55 540.313 1268.34 536.517 1278.07 531.745C1287.64 527.386 1297.59 523.176 1305.27 521.414C1306.73 521.033 1308.19 520.651 1309.49 520.682C1297.6 536.533 1284.58 551.938 1271.34 566.781C1270.96 566.633 1270.58 566.484 1269.88 567.163C1269.88 567.163 1265.39 569.697 1258.2 573.557C1251.55 577.152 1242.57 582.221 1234.19 588C1227.76 592.157 1222.63 596.345 1217.49 600.533C1218.46 598.052 1219.81 595.72 1221.54 593.536C1229.48 579.955 1246.5 556.577 1270.08 554.368C1271.92 554.134 1273.49 552.364 1273.76 550.562C1274.03 548.759 1272.62 546.777 1270.94 546.597L1270.51 545.474ZM1315.32 512.476C1315.32 512.476 1314.24 513.006 1313.16 513.537C1311 514.597 1307.75 516.188 1304.13 517.63C1296.94 521.49 1287.21 526.262 1277.64 530.621C1268.06 534.979 1257.68 538.066 1250.32 539C1247.94 539.499 1245.89 539.171 1244.05 539.404C1251.18 534.569 1258.1 529.172 1265.19 523.362C1283.4 508.083 1302.54 492.687 1332.13 488.537C1326.83 496.478 1321.16 504.27 1315.87 512.211L1315.32 512.476ZM1207.45 619.489C1207.45 619.489 1207.45 619.489 1207.61 619.075C1207.61 619.075 1209.55 614.114 1214.41 608.389C1219.06 602.102 1226.63 595.051 1234.85 589.685C1243.23 583.906 1252.26 579.813 1259.18 577.755C1260.26 577.225 1261.18 577.108 1262.1 576.991C1242.16 597.794 1221.24 617.737 1199.08 635.285C1201.94 630.207 1204.42 624.981 1207.28 619.902L1207.45 619.489ZM1233.42 403.632C1237.82 415.843 1247.24 425.255 1258.98 429.854C1246 429.538 1232.63 422.395 1226.45 408.054C1222.27 396.404 1221.22 367.856 1220.57 366.171C1227.5 374.131 1230.88 397.865 1233.26 404.045L1233.42 403.632ZM1048 541.315L1047.62 541.167C1041.61 539.769 1035.5 539.759 1029.44 540.725C1023.38 541.691 1017.38 543.632 1012.29 545.456C1001.21 549.221 990.989 555.234 980.55 557.345C970.328 560.018 960.158 560.328 949.823 557.711C947.009 557.086 944.357 556.048 941.543 555.423C946.899 555.136 953.119 553.756 959.122 551.815C965.504 550.023 971.831 547.255 978.32 544.073C991.135 538.124 1003.73 531.613 1013.63 529.767C1018.55 528.356 1022.83 528.599 1025.59 528.249C1025.97 528.397 1026.34 528.545 1026.72 528.694C1047.28 531.976 1067.3 535.524 1085.22 541.107C1089 542.591 1092.79 544.074 1096.58 545.558C1089.6 546.64 1083.22 548.433 1076.68 550.639C1063.59 555.051 1050.99 558.223 1037.57 560.123C1040.06 554.896 1044.27 550.825 1048.71 547.315C1048.71 547.315 1049.57 546.223 1049.73 545.81C1050.22 544.569 1049.19 542.736 1048.05 542.291L1048 541.315ZM950.24 542.138C950.24 542.138 948.994 539.743 947.696 539.711C940.718 540.794 933.737 538.537 927.944 534.361C921.99 530.599 916.845 524.77 911.376 519.767C906.069 514.351 900.005 508.638 893.293 504.58C891.02 503.689 888.909 502.386 887.014 501.644C888.854 501.411 890.91 501.739 892.966 502.067C902.271 502.85 913.475 507.714 924.84 512.164C936.205 516.614 948.434 519.973 958.064 519.928C962.878 519.906 967.476 519.323 970.018 518.41C972.939 517.647 974.399 517.265 974.399 517.265C987.386 520.92 1000.7 523.748 1013.41 525.866C1003.25 529.514 991.025 536.174 978.588 542.271C972.261 545.039 965.935 547.807 959.553 549.6C953.171 551.392 947.436 551.531 942.621 551.553C940.025 551.49 937.969 551.162 935.913 550.834C934.776 550.389 933.099 550.209 931.962 549.764C937.642 548.65 943.483 547.122 948.89 544.471C948.89 544.471 950.836 542.849 950.402 541.725L950.24 542.138ZM924.772 497.832C937.924 504.413 951.021 510.018 964.604 514.383C962.603 515.03 960.602 515.677 957.843 516.027C948.865 517.757 936.69 515.374 925.325 510.924C913.96 506.473 902.919 501.196 893.503 498.463C890.851 497.424 888.255 497.361 885.82 496.885C889.822 495.591 893.662 494.71 897.34 494.243C906.536 493.075 915.356 495.098 924.393 497.683L924.772 497.832ZM772.545 504.983C772.545 504.983 778.169 502.893 786.28 498.916C794.391 494.94 804.61 488.927 815.48 484.6C826.132 479.711 837.491 477.483 845.281 477.673C849.177 477.767 852.531 478.127 854.804 479.017C825.51 508.079 778.353 525.854 728.042 527.135C737.883 520.975 746.855 512.567 754.746 504.689L756.692 503.067C768.096 491.796 779.662 480.112 793.614 474.608C807.566 469.103 822.066 470.012 835.16 472.279C828.02 473.775 820.395 476.511 813.365 479.957C802.551 485.26 792.387 492.247 784.654 496.372C777.139 501.059 771.515 503.149 771.515 503.149C771.515 503.149 770.812 503.827 771.029 504.389C770.867 504.803 771.625 505.099 772.166 504.834L772.545 504.983Z" fill="url(#paint0_linear_1_339)"/>
</g>
<g filter="url(#filter1_f_1_339)">
<path d="M1130.89 196.526C1125.48 196.217 1120.16 195.375 1115.01 193.469C1125.44 191.3 1135.43 188.515 1142.93 185.883C1149.56 183.657 1154.28 181.403 1156.66 180.143C1150.15 185.114 1143.67 189.819 1136.8 193.641C1134.99 194.72 1132.96 195.49 1131.15 196.568L1130.89 196.526ZM1142.21 183.586C1134.17 186.133 1123.73 188.303 1112.85 189.855C1116.84 185.304 1121.55 181.411 1127.19 178.485C1132.56 179.06 1138.19 179.677 1143.63 179.72C1147.71 179.819 1151.91 179.119 1156.11 178.42C1153.77 179.414 1148.83 181.36 1142.21 183.586ZM1158.1 177.916C1158.1 177.916 1159.52 177.594 1160.09 177.412C1159.47 177.86 1159.17 178.084 1158.55 178.532C1158.55 178.532 1158.55 178.532 1158.59 178.266C1158.59 178.266 1158.33 178.224 1158.06 178.182L1158.1 177.916ZM1111.44 190.177C1109.75 190.457 1108.34 190.779 1106.7 190.793C1100.29 191.688 1094.22 192.093 1088.16 192.498C1090.47 188.227 1093.58 184.081 1097.14 180.552C1100.28 179.685 1103.41 178.817 1106.47 178.481C1109.25 178.103 1112.57 177.81 1115.54 178.006C1118.51 178.203 1121.75 178.442 1124.71 178.638L1125.25 178.722C1119.87 181.691 1115.16 185.584 1111.39 190.443L1111.44 190.177ZM1087.05 192.596C1080.99 193.001 1075.54 192.958 1070.67 192.733C1068.23 192.621 1066.06 192.55 1064.16 192.522C1066.72 191.836 1069.01 191.108 1071.35 190.114L1089.06 183.366C1091.09 182.596 1093.12 181.826 1095.11 181.322C1092.08 184.936 1089.32 188.591 1087.05 192.596ZM1183.24 112.062C1178.88 115.465 1173.44 120.604 1167.17 123.979C1161.14 127.661 1154.25 129.845 1148.94 130.643C1147.52 130.965 1146.11 131.286 1144.74 131.342C1146.99 125.698 1149.96 120.712 1153.96 116.161C1159.26 110.181 1165.78 105.21 1172.66 101.387C1179.57 97.2987 1187.61 94.751 1195.51 91.3628C1201.65 88.7867 1207.87 85.6784 1213.82 82.528C1211.72 85.469 1210.6 89.1104 1208.99 92.4016C1207.12 97.2895 1205.26 102.177 1203.17 106.757C1201.08 111.337 1198.5 115.566 1195.17 119.404C1193.77 121.364 1191.88 122.975 1189.99 124.585C1188.1 126.195 1186.25 127.54 1184.13 128.842C1176.21 134.135 1165.76 134.665 1155.66 134.706L1152.38 134.733C1157.55 133.095 1163.64 130.785 1168.88 126.976C1175.05 122.495 1180 117.006 1183.91 112.987C1187.55 108.925 1190.59 106.951 1190.59 106.951C1190.59 106.951 1187.33 108.617 1182.97 112.02L1183.24 112.062ZM1007.12 77.1272C1005.29 74.9278 1002.17 72.2521 998.108 68.6097C994.313 65.0094 989.539 60.7085 985.548 54.8952C982.188 50.2725 979.879 44.1793 979.334 37.274C981.476 39.2493 983.885 41.2666 986.069 42.9758C989.99 45.7778 993.995 48.0475 997.691 50.5413C999.694 51.6762 1001.43 52.769 1003.39 54.17C1004.1 54.8284 1005.35 55.571 1005.84 55.9212L1008.52 57.9806C1009.9 59.5636 1011.37 60.6144 1012.72 62.4634C1014.1 64.0464 1015.18 65.8534 1016.52 67.7025C1025.15 82.1586 1027.82 99.7652 1031.06 117.19C1025.25 110.816 1018.83 104.89 1012.27 99.7624C1005.01 93.9765 997.431 88.4147 990.822 81.9145C987.518 78.6644 984.788 75.2324 982.142 71.2681C980.798 69.419 979.762 67.3459 978.95 65.5809C978.18 63.5499 977.41 61.5188 976.949 59.2637C975.661 53.6049 975.215 47.8061 975.832 42.1756C977.385 47.8765 979.905 52.6391 983.083 56.6876C987.563 62.8512 992.954 66.7039 997.365 69.8561C1001.51 72.9663 1004.94 75.418 1007.08 77.3933C1009.23 79.3686 1010.16 80.3352 1010.16 80.3352C1010.16 80.3352 1009.27 79.1024 1007.43 76.9031L1007.12 77.1272Z" fill="url(#paint1_linear_1_339)"/>
</g>
<g filter="url(#filter2_f_1_339)">
<path d="M419.97 557.761C404.116 572.217 395.332 575.674 386.047 594.561C388.115 578.411 402.825 558.928 414.299 547.656C424.677 537.181 441.874 523.422 447.426 509.761C448.666 526.435 431.518 546.017 419.497 557.686L419.97 557.761ZM357.588 673.42C350.675 655.849 348.265 640.444 351.927 617.276C355.216 596.472 366.916 574.574 375.104 565.692C371.543 582.091 364.546 601.824 361.855 618.846C358.716 638.704 355.875 656.671 357.588 673.42ZM282.801 508.936C291.186 514.138 300.342 517.524 310.195 519.567C293.523 520.808 276.603 520.556 260.604 517.542C253.04 516.346 246.173 513.807 238.758 511.665C242.067 512.188 245.526 511.766 248.91 511.816C258.664 511.42 270.384 510.85 283.199 509.483L282.801 508.936ZM315.62 518.97C305.219 517.326 294.645 513.716 285.315 508.364C294.671 507.42 304.102 506.003 313.607 504.113C317.066 503.691 320.6 502.795 324.133 501.9C333.289 505.286 342.595 507.727 352.2 508.276C348.517 510.117 344.436 511.41 340.827 512.778C336.273 513.997 332.192 515.29 327.713 516.036C323.707 516.856 319.701 517.677 315.769 518.025L315.62 518.97ZM355.733 507.381C346.129 506.831 336.673 505.337 327.517 501.95C346.056 498.096 363.798 493.147 377.137 488.471C388.907 484.516 397.293 480.511 401.524 478.272C389.952 487.105 378.454 495.464 366.235 502.256C363.025 504.172 359.416 505.54 356.206 507.455L355.733 507.381ZM375.844 484.389C361.56 488.916 343.021 492.77 323.687 495.529C330.78 487.443 339.142 480.526 349.171 475.326C358.701 476.348 368.704 477.445 378.383 477.521C385.624 477.697 393.089 476.454 400.554 475.211C396.398 476.977 387.614 480.435 375.844 484.389ZM404.088 474.316C404.088 474.316 406.601 473.744 407.621 473.42C406.526 474.217 405.979 474.615 404.884 475.411C404.884 475.411 404.884 475.411 404.959 474.938C404.959 474.938 404.486 474.863 404.013 474.788L404.088 474.316ZM321.173 496.101C318.187 496.598 315.674 497.17 312.763 497.195C301.366 498.785 290.592 499.505 279.817 500.225C283.925 492.635 289.45 485.27 295.772 479C301.346 477.458 306.92 475.916 312.344 475.32C317.296 474.649 323.194 474.127 328.469 474.477C333.744 474.826 339.492 475.25 344.767 475.599L345.712 475.749C336.156 481.023 327.794 487.94 321.099 496.574L321.173 496.101ZM277.851 500.399C267.077 501.119 257.398 501.042 248.739 500.643C244.409 500.443 240.552 500.318 237.168 500.267C241.722 499.049 245.803 497.755 249.959 495.989L281.413 484C285.022 482.631 288.63 481.263 292.164 480.368C286.787 486.788 281.884 493.282 277.851 500.399ZM448.753 357.31C441.013 363.356 431.332 372.487 420.208 378.483C409.482 385.026 397.239 388.906 387.808 390.323C385.294 390.895 382.781 391.467 380.342 391.566C384.351 381.537 389.628 372.679 396.721 364.592C406.154 353.968 417.727 345.135 429.945 338.344C442.239 331.079 456.523 326.552 470.558 320.532C481.458 315.955 492.507 310.433 503.083 304.835C499.35 310.061 497.358 316.53 494.495 322.378C491.184 331.063 487.872 339.747 484.163 347.884C480.454 356.021 475.874 363.536 469.95 370.354C467.461 373.837 464.101 376.699 460.742 379.56C457.382 382.421 454.097 384.81 450.339 387.124C436.253 396.528 417.69 397.47 399.75 397.542L393.927 397.591C403.11 394.681 413.935 390.576 423.242 383.809C434.192 375.847 443.003 366.094 449.947 358.953C456.418 351.737 461.818 348.229 461.818 348.229C461.818 348.229 456.02 351.189 448.28 357.235L448.753 357.31ZM135.84 295.239C132.581 291.332 127.033 286.577 119.818 280.106C113.077 273.709 104.593 266.067 97.5038 255.739C91.5337 247.525 87.4303 236.699 86.4626 224.43C90.2689 227.94 94.5478 231.524 98.4289 234.561C105.395 239.539 112.511 243.572 119.079 248.003C122.637 250.019 125.722 251.961 129.205 254.45C130.474 255.62 132.688 256.939 133.559 257.562L138.31 261.221C140.773 264.033 143.386 265.9 145.774 269.185C148.236 271.998 150.152 275.209 152.54 278.494C167.862 304.179 172.608 335.461 178.374 366.42C168.05 355.096 156.631 344.567 144.988 335.456C132.076 325.176 118.616 315.294 106.874 303.745C101.003 297.971 96.1523 291.873 91.4509 284.829C89.0629 281.544 87.2224 277.86 85.7799 274.724C84.4121 271.116 83.0442 267.507 82.2239 263.5C79.9369 253.446 79.1431 243.143 80.2401 233.139C82.9999 243.268 87.4768 251.73 93.1237 258.923C101.084 269.874 110.662 276.72 118.499 282.32C125.863 287.846 131.959 292.202 135.765 295.712C139.571 299.222 141.238 300.939 141.238 300.939C141.238 300.939 139.646 298.749 136.387 294.841L135.84 295.239Z" fill="url(#paint2_linear_1_339)"/>
</g>
<defs>
<filter id="filter0_f_1_339" x="717.042" y="355.171" width="626.084" height="384.482" filterUnits="userSpaceOnUse" color-interpolation-filters="sRGB">
<feFlood flood-opacity="0" result="BackgroundImageFix"/>
<feBlend mode="normal" in="SourceGraphic" in2="BackgroundImageFix" result="shape"/>
<feGaussianBlur stdDeviation="5.5" result="effect1_foregroundBlur_1_339"/>
</filter>
<filter id="filter1_f_1_339" x="972.558" y="34.274" width="244.261" height="165.294" filterUnits="userSpaceOnUse" color-interpolation-filters="sRGB">
<feFlood flood-opacity="0" result="BackgroundImageFix"/>
<feBlend mode="normal" in="SourceGraphic" in2="BackgroundImageFix" result="shape"/>
<feGaussianBlur stdDeviation="1.5" result="effect1_foregroundBlur_1_339"/>
</filter>
<filter id="filter2_f_1_339" x="76.7524" y="221.43" width="429.331" height="454.99" filterUnits="userSpaceOnUse" color-interpolation-filters="sRGB">
<feFlood flood-opacity="0" result="BackgroundImageFix"/>
<feBlend mode="normal" in="SourceGraphic" in2="BackgroundImageFix" result="shape"/>
<feGaussianBlur stdDeviation="1.5" result="effect1_foregroundBlur_1_339"/>
</filter>
<linearGradient id="paint0_linear_1_339" x1="1403.47" y1="361.018" x2="316.218" y2="-64.7268" gradientUnits="userSpaceOnUse">
<stop stop-color="#BBBCC5"/>
<stop offset="0.14" stop-color="#D2D4DE"/>
<stop offset="0.27" stop-color="#E2E4EF"/>
<stop offset="0.37" stop-color="#E8EAF5"/>
<stop offset="0.38" stop-color="#E5E7F1"/>
<stop offset="0.54" stop-color="#C1C3CB"/>
<stop offset="0.62" stop-color="#B4B6BD"/>
<stop offset="0.67" stop-color="#BDBFC6"/>
<stop offset="0.88" stop-color="#DCDEE8"/>
<stop offset="1" stop-color="#E8EAF5"/>
</linearGradient>
<linearGradient id="paint1_linear_1_339" x1="1673.65" y1="22.1153" x2="909.998" y2="-98.6143" gradientUnits="userSpaceOnUse">
<stop stop-color="#BBBCC5"/>
<stop offset="0.14" stop-color="#D2D4DE"/>
<stop offset="0.27" stop-color="#E2E4EF"/>
<stop offset="0.37" stop-color="#E8EAF5"/>
<stop offset="0.38" stop-color="#E5E7F1"/>
<stop offset="0.54" stop-color="#C1C3CB"/>
<stop offset="0.62" stop-color="#B4B6BD"/>
<stop offset="0.67" stop-color="#BDBFC6"/>
<stop offset="0.88" stop-color="#DCDEE8"/>
<stop offset="1" stop-color="#E8EAF5"/>
</linearGradient>
<linearGradient id="paint2_linear_1_339" x1="1320.08" y1="197.497" x2="-36.7308" y2="-17.0093" gradientUnits="userSpaceOnUse">
<stop stop-color="#BBBCC5"/>
<stop offset="0.14" stop-color="#D2D4DE"/>
<stop offset="0.27" stop-color="#E2E4EF"/>
<stop offset="0.37" stop-color="#E8EAF5"/>
<stop offset="0.38" stop-color="#E5E7F1"/>
<stop offset="0.54" stop-color="#C1C3CB"/>
<stop offset="0.62" stop-color="#B4B6BD"/>
<stop offset="0.67" stop-color="#BDBFC6"/>
<stop offset="0.88" stop-color="#DCDEE8"/>
<stop offset="1" stop-color="#E8EAF5"/>
</linearGradient>
</defs>
</svg>
