<svg width="327" height="409" viewBox="0 0 327 409" fill="none" xmlns="http://www.w3.org/2000/svg">
<g clip-path="url(#clip0_60_3832)">
<path d="M122.838 267.267C134.271 271.869 146.676 274.6 159.7 275.054C177.327 275.67 194.088 272.026 209.073 265.103C191.104 258.043 174.83 247.719 160.941 234.883C151.937 249.298 138.621 260.684 122.838 267.267Z" fill="#FF9100"/>
<path d="M160.938 234.887C129.233 205.564 110 163.124 111.625 116.574C111.678 115.062 111.758 113.551 111.851 112.041C106.173 110.572 100.245 109.676 94.1443 109.463C85.4119 109.158 76.9555 110.241 68.9718 112.49C60.5083 127.315 55.4009 144.325 54.7647 162.546C53.1226 209.568 81.5788 250.655 122.835 267.271C138.619 260.688 151.934 249.315 160.938 234.887Z" fill="#FFC400"/>
<path d="M160.94 234.886C168.311 223.089 172.78 209.259 173.3 194.359C174.669 155.165 148.32 121.448 111.853 112.04C111.759 113.55 111.68 115.061 111.627 116.572C110.001 163.122 129.235 205.563 160.94 234.886Z" fill="#FF9100"/>
<path d="M169.222 1.86735C148.452 18.5064 132.051 40.4465 122.128 65.7209C116.447 80.1978 112.877 95.7483 111.835 112.049C148.303 121.458 174.652 155.174 173.283 194.368C172.763 209.269 168.28 223.085 160.922 234.895C174.811 247.745 191.085 258.056 209.055 265.116C245.122 248.443 270.712 212.568 272.194 170.134C273.154 142.641 262.591 118.138 247.665 97.4553C231.903 75.5811 169.222 1.86735 169.222 1.86735Z" fill="#DD2C00"/>
<path d="M306.103 408.978C301.633 408.978 297.592 407.937 293.98 405.855C290.429 403.773 287.643 400.896 285.622 397.222C283.602 393.487 282.592 389.324 282.592 384.732C282.592 380.324 283.541 376.283 285.439 372.609C287.398 368.875 290.123 365.936 293.612 363.793C297.102 361.589 301.082 360.487 305.552 360.487C310.143 360.487 314.123 361.497 317.491 363.517C320.919 365.538 323.521 368.354 325.297 371.967C327.072 375.518 327.96 379.62 327.96 384.273C327.96 384.824 327.93 385.375 327.868 385.926C327.807 386.477 327.777 386.783 327.777 386.844H292.694C293 391.008 294.5 394.222 297.194 396.487C299.888 398.753 302.949 399.886 306.378 399.886C311.644 399.886 315.684 397.437 318.501 392.538L327.134 396.671C325.113 400.406 322.297 403.406 318.685 405.671C315.133 407.876 310.939 408.978 306.103 408.978ZM317.674 379.13C317.552 377.661 317.062 376.16 316.205 374.63C315.348 373.099 314.001 371.813 312.164 370.773C310.388 369.671 308.154 369.119 305.46 369.119C302.46 369.119 299.858 370.038 297.653 371.875C295.51 373.711 294.041 376.13 293.245 379.13H317.674Z" fill="white"/>
<path d="M260.419 408.978C255.215 408.978 250.899 407.784 247.47 405.396C244.103 402.947 241.715 399.886 240.307 396.212L249.307 392.355C250.348 394.865 251.848 396.763 253.807 398.049C255.827 399.335 258.032 399.977 260.419 399.977C262.93 399.977 264.981 399.518 266.573 398.6C268.164 397.62 268.96 396.365 268.96 394.834C268.96 393.365 268.318 392.171 267.032 391.253C265.746 390.273 263.634 389.416 260.695 388.681L254.45 387.212C251.021 386.416 248.052 384.946 245.541 382.803C243.092 380.599 241.868 377.752 241.868 374.262C241.868 370.038 243.613 366.701 247.103 364.252C250.593 361.742 254.878 360.487 259.96 360.487C264.185 360.487 267.92 361.374 271.165 363.15C274.471 364.926 276.859 367.497 278.328 370.864L269.42 374.63C268.562 372.732 267.246 371.324 265.471 370.405C263.695 369.487 261.766 369.028 259.685 369.028C257.664 369.028 255.889 369.487 254.358 370.405C252.827 371.262 252.062 372.426 252.062 373.895C252.062 375.181 252.582 376.222 253.623 377.018C254.725 377.814 256.44 378.487 258.766 379.038L265.562 380.691C270.154 381.854 273.583 383.63 275.848 386.018C278.114 388.344 279.246 391.161 279.246 394.467C279.246 397.161 278.42 399.61 276.767 401.814C275.175 404.018 272.94 405.763 270.062 407.049C267.246 408.335 264.032 408.978 260.419 408.978Z" fill="white"/>
<path d="M212.088 408.978C208.843 408.978 205.904 408.335 203.271 407.049C200.7 405.702 198.649 403.865 197.118 401.539C195.649 399.151 194.914 396.457 194.914 393.457C194.914 388.681 196.69 384.916 200.241 382.161C203.853 379.405 208.414 378.028 213.925 378.028C218.762 378.028 222.894 378.854 226.323 380.508V378.579C226.323 375.824 225.221 373.558 223.017 371.783C220.874 369.946 218.272 369.028 215.21 369.028C210.557 369.028 206.823 370.926 204.006 374.722L196.292 369.395C198.435 366.517 201.098 364.313 204.282 362.783C207.527 361.252 211.17 360.487 215.21 360.487C221.884 360.487 227.027 362.17 230.639 365.538C234.313 368.844 236.15 373.528 236.15 379.589V407.508H226.323V401.906H225.772C224.303 403.988 222.435 405.702 220.17 407.049C217.904 408.335 215.21 408.978 212.088 408.978ZM213.741 400.62C216.006 400.62 218.088 400.069 219.986 398.967C221.945 397.804 223.476 396.304 224.578 394.467C225.741 392.569 226.323 390.549 226.323 388.406C223.078 386.63 219.619 385.742 215.945 385.742C212.578 385.742 209.945 386.477 208.047 387.946C206.149 389.416 205.2 391.283 205.2 393.549C205.2 395.63 206.027 397.345 207.68 398.692C209.394 399.977 211.414 400.62 213.741 400.62Z" fill="white"/>
<path d="M169.703 408.978C166.397 408.978 163.427 408.274 160.794 406.865C158.223 405.457 156.294 403.682 155.009 401.539H154.457V407.508H144.906V341.752H155.009V361.497L154.457 367.834H155.009C156.294 365.752 158.223 364.007 160.794 362.599C163.427 361.191 166.397 360.487 169.703 360.487C173.621 360.487 177.234 361.528 180.54 363.609C183.907 365.691 186.571 368.599 188.53 372.334C190.55 376.007 191.56 380.14 191.56 384.732C191.56 389.324 190.55 393.457 188.53 397.13C186.571 400.804 183.907 403.712 180.54 405.855C177.234 407.937 173.621 408.978 169.703 408.978ZM167.958 399.702C170.346 399.702 172.55 399.09 174.57 397.865C176.652 396.641 178.305 394.896 179.53 392.63C180.815 390.304 181.458 387.671 181.458 384.732C181.458 381.793 180.815 379.191 179.53 376.926C178.305 374.599 176.652 372.824 174.57 371.599C172.55 370.375 170.346 369.762 167.958 369.762C165.57 369.762 163.335 370.375 161.254 371.599C159.233 372.824 157.58 374.569 156.294 376.834C155.07 379.099 154.457 381.732 154.457 384.732C154.457 387.732 155.07 390.365 156.294 392.63C157.58 394.896 159.233 396.641 161.254 397.865C163.335 399.09 165.57 399.702 167.958 399.702Z" fill="white"/>
<path d="M117.032 408.978C112.563 408.978 108.522 407.937 104.91 405.855C101.358 403.773 98.5726 400.896 96.5522 397.222C94.5317 393.487 93.5215 389.324 93.5215 384.732C93.5215 380.324 94.4705 376.283 96.3685 372.609C98.3277 368.875 101.052 365.936 104.542 363.793C108.032 361.589 112.012 360.487 116.481 360.487C121.073 360.487 125.053 361.497 128.42 363.517C131.849 365.538 134.451 368.354 136.227 371.967C138.002 375.518 138.89 379.62 138.89 384.273C138.89 384.824 138.859 385.375 138.798 385.926C138.737 386.477 138.706 386.783 138.706 386.844H103.624C103.93 391.008 105.43 394.222 108.124 396.488C110.818 398.753 113.879 399.886 117.308 399.886C122.573 399.886 126.614 397.437 129.431 392.538L138.063 396.671C136.043 400.406 133.227 403.406 129.614 405.671C126.063 407.876 121.869 408.978 117.032 408.978ZM128.604 379.13C128.482 377.661 127.992 376.16 127.135 374.63C126.277 373.099 124.93 371.813 123.094 370.773C121.318 369.671 119.083 369.12 116.389 369.12C113.389 369.12 110.787 370.038 108.583 371.875C106.44 373.711 104.971 376.13 104.175 379.13H128.604Z" fill="white"/>
<path d="M65.4844 361.956H75.0356V368.752H75.5867C76.5663 366.426 78.3418 364.497 80.9133 362.966C83.4848 361.375 86.1175 360.579 88.8115 360.579C91.0156 360.579 92.8218 360.885 94.23 361.497V372.058C92.1483 371.018 89.8217 370.497 87.2502 370.497C83.944 370.497 81.1582 371.783 78.8929 374.354C76.6887 376.865 75.5867 379.957 75.5867 383.63V407.508H65.4844V361.956Z" fill="white"/>
<path d="M51.0656 354.242C49.1676 354.242 47.5451 353.599 46.1981 352.313C44.9124 350.966 44.2695 349.344 44.2695 347.446C44.2695 345.548 44.9124 343.956 46.1981 342.67C47.5451 341.323 49.1676 340.649 51.0656 340.649C52.9636 340.649 54.5555 341.323 55.8412 342.67C57.1882 343.956 57.8617 345.548 57.8617 347.446C57.8617 349.344 57.1882 350.966 55.8412 352.313C54.5555 353.599 52.9636 354.242 51.0656 354.242ZM46.0145 361.956H56.1168V407.508H46.0145V361.956Z" fill="white"/>
<path d="M0 341.752H39.9499V351.578H10.286V370.497H37.0111V380.232H10.286V407.508H0V341.752Z" fill="white"/>
</g>
<defs>
<clipPath id="clip0_60_3832">
<rect width="327" height="409" fill="white"/>
</clipPath>
</defs>
</svg>
