<svg width="390" height="607" viewBox="0 0 390 607" fill="none"
    xmlns="http://www.w3.org/2000/svg">
    <g opacity="0.3">
        <path d="M116.99 565.02C107.566 567.545 98.4116 569.766 89.5764 571.665C41.0703 582.1 3.7218 582.748 -21.4318 573.592C-47.166 564.227 -59.4017 544.69 -57.8029 515.518C-52.945 426.96 -40.2935 369.489 -31.922 331.463C-28.1541 314.347 -25.1776 300.826 -24.3295 290.6C-22.9205 273.58 -4.49704 246.55 23.7473 220.055C54.1439 191.544 89.0604 169.855 119.549 160.55C161.597 147.717 204.434 123.153 232.964 104.804C266.199 83.4304 299.69 57.7359 322.551 36.0699C337.307 22.0828 354.903 17.0271 373.429 21.4479C405.508 29.1049 436.23 64.1227 453.605 112.832C461.838 135.919 470.355 159.795 477.109 183.226C484.579 209.132 489.02 231.695 490.69 252.202C492.68 276.688 490.881 298.967 485.189 320.307C478.832 344.134 467.799 366.28 451.458 388.012C423.551 425.128 333.988 480.991 233.662 523.86C192.619 541.395 152.838 555.411 116.989 565.017L116.99 565.02ZM347.742 22.6698C339.028 25.0049 330.792 29.7591 323.299 36.8622C300.391 58.5746 266.841 84.3149 233.555 105.721C204.967 124.104 162.035 148.724 119.866 161.593C89.5338 170.852 54.7686 192.448 24.4897 220.853C-3.56607 247.17 -21.8587 273.932 -23.2465 290.695C-24.1004 300.998 -27.0842 314.547 -30.8603 331.703C-39.2253 369.697 -51.8619 427.112 -56.7169 515.583C-58.2868 544.218 -46.2909 563.393 -21.0586 572.578C3.89872 581.659 41.0449 580.997 89.3498 570.609C131.713 561.499 181.467 544.99 233.235 522.869C333.407 480.068 422.787 424.348 450.592 387.368C466.847 365.748 477.82 343.727 484.141 320.034C489.801 298.814 491.592 276.657 489.609 252.296C485.893 206.592 468.958 159.117 452.583 113.204C435.333 64.835 404.908 30.0825 373.178 22.5118C364.417 20.4196 355.87 20.4957 347.743 22.6733L347.742 22.6698Z" fill="white"/>
        <path d="M118.096 545.803C110.64 547.801 103.379 549.586 96.336 551.147C51.9165 560.992 17.7242 561.833 -5.29879 553.645C-28.571 545.367 -39.7428 527.938 -38.5049 501.842C-35.3462 422.993 -24.6242 368.355 -17.5314 332.203C-14.2012 315.231 -11.5725 301.826 -10.7702 291.484C-9.46777 274.767 7.41415 248.967 33.2881 224.148C60.9934 197.572 93.401 177.098 122.201 167.973C160.937 155.945 200.458 133.572 226.79 116.926C257.725 97.3672 287.88 74.7959 309.522 54.9924C323.182 42.4979 339.401 38.1257 356.431 42.3482C385.991 49.6758 414.243 81.8975 430.158 126.446C445.214 168.461 460.785 211.907 464.212 254.725C466.018 277.279 464.352 297.817 459.119 317.514C453.285 339.484 443.176 359.914 428.227 379.97C402.672 414.485 320.486 466.509 228.372 506.484C189.505 523.35 151.842 536.765 118.093 545.808L118.096 545.803ZM332.048 43.3741C324.285 45.4542 316.936 49.5964 310.214 55.7435C288.53 75.5845 258.323 98.1998 227.339 117.787C200.953 134.466 161.349 156.883 122.511 168.946C93.8557 178.025 61.5933 198.412 33.9987 224.883C8.29771 249.535 -8.4636 275.086 -9.74809 291.562C-10.5529 301.965 -13.19 315.395 -16.5232 332.398C-23.6121 368.522 -34.3217 423.108 -37.4773 501.885C-38.6909 527.484 -27.7487 544.574 -4.94934 552.683C17.8871 560.804 51.8921 559.95 96.1208 550.148C134.988 541.536 180.581 526.108 227.974 505.542C319.94 465.632 401.952 413.745 427.414 379.356C442.29 359.406 452.339 339.09 458.141 317.248C463.344 297.664 464.999 277.241 463.201 254.801C459.784 212.115 444.238 168.734 429.202 126.781C413.398 82.5509 385.423 50.5774 356.188 43.3311C347.878 41.2717 339.758 41.3046 332.047 43.3706L332.048 43.3741Z" fill="white"/>
        <path d="M119.273 526.606C113.753 528.085 108.358 529.429 103.091 530.638C62.759 539.898 31.7183 540.928 10.8331 533.707C-9.97705 526.515 -20.0825 511.191 -19.2004 488.161C-17.716 418.513 -9.20486 368.651 -2.98947 332.248C-0.168335 315.727 2.05691 302.677 2.79811 292.359C4.01266 275.692 18.9808 251.72 42.8379 228.232C67.8635 203.592 97.7621 184.333 124.864 175.389C189.066 155.047 262.679 103.555 296.499 73.9101C309.063 62.9081 323.913 59.2177 339.449 63.2408C366.488 70.24 392.263 99.671 406.719 140.048C419.798 176.331 434.616 217.458 437.742 257.24C439.361 277.861 437.832 296.659 433.062 314.71C427.747 334.826 418.569 353.537 405.004 371.918C393.359 387.93 369.328 407.831 335.513 429.461C303.033 450.239 263.103 471.421 223.087 489.108C186.419 505.313 150.889 518.134 119.277 526.605L119.273 526.606ZM316.329 64.067C309.525 65.8903 303.066 69.423 297.126 74.6263C263.249 104.324 189.492 155.91 125.155 176.296C98.1919 185.196 68.4291 204.373 43.5037 228.911C19.81 252.239 4.94611 275.985 3.74627 292.428C3.00232 302.791 0.771263 315.861 -2.05381 332.41C-8.26176 368.785 -16.7648 418.606 -18.2511 488.191C-19.1146 510.759 -9.2252 525.767 11.1432 532.808C31.8588 539.969 62.72 538.927 102.875 529.707C138.244 521.586 179.682 507.246 222.695 488.235C262.671 470.566 302.552 449.409 334.994 428.656C368.706 407.091 392.648 387.278 404.227 371.355C417.724 353.071 426.851 334.462 432.131 314.469C436.873 296.522 438.396 277.828 436.784 257.316C433.669 217.662 418.872 176.598 405.813 140.373C391.462 100.29 365.939 71.0877 339.202 64.1651C331.325 62.1246 323.627 62.1116 316.326 64.068L316.329 64.067Z" fill="white"/>
        <path d="M120.54 507.432C116.905 508.406 113.339 509.313 109.829 510.153C73.5839 518.823 45.7004 520.049 26.9493 513.796C8.6054 507.678 -0.427661 494.453 0.0986748 474.489C-0.098378 413.399 6.71814 365.861 11.6967 331.153C13.8419 316.195 15.6942 303.279 16.3601 293.24C17.4697 276.866 30.9362 254.091 52.3779 232.322C74.7396 209.621 102.127 191.571 127.519 182.808C152.915 174.568 182.972 160.168 214.449 141.161C239.713 125.905 264.87 108.288 283.473 92.8286C294.939 83.3123 308.426 80.3052 322.476 84.1386C346.986 90.8226 370.28 117.46 383.272 153.659C397.045 191.614 408.657 225.799 411.264 259.764C412.698 278.453 411.3 295.514 406.994 311.92C402.2 330.177 393.95 347.175 381.77 363.881C371.233 378.682 349.541 397.026 319.039 416.929C289.858 435.969 253.898 455.443 217.779 471.764C183.339 487.324 149.972 499.557 120.536 507.445L120.54 507.432ZM300.579 84.742C294.74 86.3066 289.185 89.2375 284.037 93.509C265.404 108.996 240.207 126.642 214.907 141.918C183.372 160.96 153.252 175.392 127.8 183.647C102.543 192.366 75.2794 210.334 53.0128 232.942C31.7154 254.564 18.343 277.131 17.2492 293.298C16.5813 303.371 14.7257 316.303 12.5772 331.277C7.60264 365.957 0.790752 413.456 0.989623 474.498C0.473835 494.039 9.30178 506.974 27.2331 512.952C45.8278 519.153 73.5478 517.918 109.628 509.289C141.506 501.657 178.78 488.403 217.42 470.942C253.499 454.64 289.418 435.192 318.559 416.174C348.969 396.333 370.577 378.067 381.054 363.349C393.171 346.731 401.373 329.832 406.139 311.685C410.42 295.376 411.809 278.41 410.384 259.823C407.785 225.973 396.194 191.85 382.443 153.952C369.546 118.021 346.48 91.5949 322.246 84.987C314.79 82.9534 307.491 82.8863 300.585 84.7367L300.579 84.742Z" fill="white"/>
        <path d="M121.924 488.303C120.115 488.787 118.327 489.252 116.553 489.697C84.3954 497.782 59.6645 499.201 43.0467 493.912C27.1706 488.86 19.2116 477.726 19.3969 460.814C17.4312 407.48 22.6831 361.632 26.5181 328.156C28.0386 314.883 29.3537 303.418 29.9186 294.122C30.9411 277.786 42.6057 256.752 61.9179 236.412C81.6367 215.644 106.512 198.811 130.171 190.231C177.397 174.471 235.986 138.499 270.443 111.748C280.823 103.707 292.953 101.385 305.521 105.035C327.49 111.415 348.299 135.257 359.826 167.262C371.659 199.6 382.47 231.201 384.786 262.276C386.036 279.029 384.772 294.354 380.928 309.115C376.657 325.515 369.333 340.793 358.543 355.826C349.114 369.416 329.756 386.214 302.568 404.394C276.687 421.699 244.69 439.466 212.473 454.423C180.295 469.358 149.128 481.014 121.925 488.306L121.924 488.303ZM284.785 105.395C279.929 106.696 275.284 109.035 270.949 112.392C236.44 139.183 177.75 175.215 130.445 191C106.912 199.535 82.1518 216.293 62.5185 236.974C43.3349 257.179 31.755 278.025 30.7452 294.17C30.178 303.486 28.8622 314.962 27.341 328.246C23.5065 361.696 18.2602 407.509 20.2225 460.802C20.0431 477.331 27.8071 488.199 43.3016 493.129C59.7719 498.37 84.3517 496.947 116.358 488.899C144.74 481.755 177.861 469.583 212.129 453.672C244.306 438.734 276.265 420.991 302.114 403.706C329.219 385.582 348.5 368.862 357.876 355.35C368.613 340.398 375.892 325.207 380.138 308.907C383.96 294.234 385.214 278.999 383.974 262.337C381.667 231.364 370.872 199.823 359.061 167.541C347.622 135.779 327.026 112.131 305.302 105.825C298.243 103.775 291.325 103.65 284.79 105.401L284.785 105.395Z" fill="white"/>
        <path d="M123.467 469.224L123.268 469.278C95.1988 476.78 73.6205 478.392 59.1368 474.072C45.7258 470.075 38.8502 461.011 38.7021 447.136C34.7234 400.648 38.5899 355.227 41.4137 322.063C42.2978 311.676 43.0632 302.708 43.4902 294.996C44.4091 278.932 54.6093 259.066 71.4674 240.496C88.5688 221.658 110.938 206.036 132.836 197.643C153.185 190.617 176.487 179.765 202.111 165.391C221.385 154.577 241.544 141.918 257.425 130.657C266.725 124.085 277.506 122.451 288.612 125.934C308.032 132.023 326.337 153.07 336.387 180.863C346.376 207.873 356.295 236.604 358.316 264.791C359.378 279.612 358.251 293.192 354.868 306.316C351.119 320.856 344.723 334.42 335.317 347.776C318.819 372.322 267.31 408.229 207.153 437.116C177.294 451.456 148.362 462.554 123.467 469.224ZM268.918 126.015C265.06 127.049 261.35 128.807 257.857 131.275C241.957 142.549 221.769 155.227 202.475 166.05C176.815 180.445 153.469 191.313 133.089 198.35C111.31 206.7 89.0485 222.245 72.0231 241.002C55.2781 259.449 45.1523 279.145 44.2403 295.038C43.8117 302.759 43.0481 311.734 42.1614 322.125C39.3381 355.262 35.4762 400.645 39.4525 447.096C39.5994 460.63 46.2935 469.451 59.3505 473.344C73.6991 477.622 95.1385 476.009 123.071 468.544L123.271 468.49C148.12 461.832 177.004 450.75 206.823 436.429C266.87 407.594 318.253 371.792 334.69 347.34C344.048 334.054 350.405 320.572 354.133 306.119C357.494 293.08 358.615 279.577 357.561 264.839C355.547 236.752 345.645 208.081 335.675 181.117C325.702 153.54 307.582 132.668 288.384 126.651C281.691 124.552 275.113 124.351 268.924 126.009L268.918 126.015Z" fill="white"/>
        <path d="M125.123 450.269C103.488 456.066 86.7095 457.426 75.2028 454.309C64.2618 451.343 58.4746 444.341 57.9998 433.487C51.4138 392.968 54.1808 345.613 56.2008 311.031C56.5165 305.604 56.816 300.481 57.0487 295.877C57.8818 279.829 66.3912 261.615 81.0074 244.586C95.7479 227.418 115.095 213.381 135.488 205.062C149.75 199.922 188.886 184.239 244.398 149.575C252.631 144.462 262.086 143.517 271.742 146.853C288.584 152.669 304.369 170.915 312.937 194.467C321.18 216.453 330.117 242.026 331.836 267.308C333.656 294.027 327.194 317.713 312.084 339.727C304.861 350.916 290.166 364.632 269.602 379.388C250.015 393.441 226.576 407.436 201.82 419.857C176.253 432.683 151.406 442.736 129.963 448.923C128.323 449.396 126.707 449.844 125.119 450.27L125.123 450.269ZM252.955 146.582C250.122 147.341 247.379 148.537 244.765 150.159C235.883 155.705 217.771 166.713 196.259 178.116C173.674 190.091 153.315 199.371 135.738 205.703C115.458 213.977 96.2038 227.944 81.5358 245.032C67.0195 261.945 58.5683 280.012 57.7433 295.909C57.5106 300.512 57.2119 305.638 56.8972 311.069C54.8776 345.625 52.1127 392.946 58.6915 433.395L58.6948 433.436C59.1466 443.966 64.7626 450.763 75.3876 453.641C87.444 456.907 106.253 455.048 129.777 448.258C151.182 442.08 175.985 432.047 201.515 419.238C226.238 406.833 249.648 392.857 269.208 378.827C289.704 364.123 304.332 350.469 311.517 339.347C326.542 317.461 332.962 293.913 331.156 267.359C329.443 242.169 320.524 216.651 312.298 194.713C303.798 171.345 288.177 153.262 271.525 147.511C265.144 145.305 258.852 145.009 252.964 146.587L252.955 146.582Z" fill="white"/>
        <path d="M127.49 431.355C112.129 435.472 99.7178 436.62 91.2569 434.669C82.76 432.708 78.0666 427.717 77.3029 419.829C66.6811 384.708 69.4365 323.077 70.61 296.755C72.1355 263.867 99.9068 229.211 138.143 212.481C168.963 200.761 204.119 182.581 225.124 171.723C227.354 170.571 229.449 169.489 231.383 168.491C238.568 164.816 246.728 164.582 254.968 167.806C269.197 173.375 282.424 188.803 289.492 208.073C296.942 227.578 304.019 248.558 305.361 269.827C306.792 292.522 301.395 312.753 288.855 331.68C276.813 351.335 240.559 379.198 196.491 402.657C175.302 413.936 154.614 422.926 136.663 428.658C133.502 429.666 130.44 430.569 127.488 431.36L127.49 431.355ZM236.822 167.06C235.055 167.533 233.336 168.196 231.667 169.048C229.732 170.042 227.641 171.123 225.412 172.279C204.397 183.144 169.222 201.336 138.381 213.061C100.366 229.695 72.7521 264.125 71.2369 296.785C70.0603 323.082 67.3077 384.667 77.9118 419.681L77.9278 419.74C78.6508 427.35 83.1814 432.168 91.3979 434.062C101.377 436.363 116.967 434.287 136.477 428.063C154.394 422.345 175.049 413.371 196.202 402.109C240.174 378.698 276.336 350.924 288.331 331.349C316.178 289.322 303.886 247.519 288.912 208.3C281.901 189.187 268.809 173.898 254.743 168.395C248.589 165.986 242.492 165.548 236.828 167.066L236.822 167.06Z" fill="white"/>
        <path d="M130.242 412.77C120.852 415.286 113.024 416.184 107.347 415.263C101.235 414.267 97.6235 411.214 96.6149 406.191C91.009 397.36 87.1673 380.769 85.1905 356.879C83.7511 339.473 83.3798 317.88 84.1755 297.634C85.5003 265.145 106.669 236.088 140.803 219.902C152.957 214.94 165.539 209.52 177.708 204.277C193.447 197.497 208.313 191.097 218.37 187.406C226.846 184.333 236.54 186.411 245.667 193.253C254.319 199.739 261.744 210.098 266.05 221.675C276.388 248.042 278.34 262.602 278.887 272.343C279.936 291.004 275.597 307.782 265.629 323.63C255.758 340.934 227.252 364.66 191.232 385.536C168.225 398.872 146.804 408.336 130.243 412.773L130.242 412.77ZM220.403 187.352C219.784 187.518 219.172 187.712 218.563 187.931C208.519 191.615 193.664 198.012 177.932 204.79C165.759 210.034 153.173 215.452 141.029 220.411C107.102 236.5 86.0497 265.377 84.7354 297.653C83.942 317.879 84.3103 339.447 85.7476 356.831C87.7182 380.671 91.5457 397.194 97.1157 405.933L97.1429 405.978L97.156 406.027C98.0976 410.829 101.554 413.75 107.436 414.711C123.002 417.25 155.004 405.884 190.949 385.05C226.887 364.222 255.318 340.577 265.147 323.343C275.058 307.589 279.366 290.921 278.327 272.377C277.29 253.914 270.942 235.691 265.523 221.88C261.257 210.394 253.898 200.126 245.33 193.703C237.016 187.471 228.24 185.256 220.404 187.356L220.403 187.352Z" fill="white"/>
        <path d="M133.788 394.81C129.904 395.851 126.532 396.376 123.794 396.334C119.791 396.268 117.156 395.011 115.964 392.592C107.481 389.061 103.018 370.558 100.766 355.632C98.2273 338.797 97.0956 317.446 97.7357 298.508C98.3072 282.211 102.197 268.588 109.631 256.855C117.223 244.874 128.287 235.214 143.457 227.317C166.814 216.795 191.112 208.557 205.37 206.325C212.32 205.268 220.061 207.877 227.165 213.665C233.809 219.082 239.437 226.959 242.6 235.279C251.511 257.102 259.54 285.945 242.398 315.576C234.766 330.419 213.824 350.159 186.383 368.362C166.329 381.666 147.078 391.249 133.784 394.811L133.788 394.81ZM193.286 209.492C179.349 213.226 161.245 219.845 143.677 227.76C128.599 235.606 117.599 245.211 110.054 257.116C102.667 268.773 98.8 282.315 98.234 298.52C97.0312 333.914 101.824 386.366 116.239 392.166L116.328 392.202L116.37 392.288C117.452 394.579 119.954 395.771 123.803 395.834C135.824 396.029 160.281 385.081 186.113 367.943C213.487 349.785 234.371 330.117 241.969 315.332C259.008 285.878 251.012 257.172 242.145 235.454L242.143 235.447C239.008 227.205 233.433 219.4 226.852 214.038C219.858 208.336 212.255 205.769 205.446 206.803C201.944 207.352 197.836 208.265 193.284 209.485L193.286 209.492Z" fill="white"/>
        <path d="M139.464 378.562C137.788 379.011 136.426 379.147 135.436 378.937C132.75 380.091 130.178 379.855 127.793 378.246C120.813 373.537 116.807 358.209 114.673 346.173C112.135 331.856 110.878 314.363 111.306 299.379C111.8 282.428 114.23 270.575 119.185 260.941C124.468 250.669 133.031 242.339 146.125 234.728C161.29 226.828 179.451 223.108 192.394 225.249C204.01 227.22 215.128 238.808 219.163 248.872C228.199 269.485 228.203 289.217 219.18 307.512C215.976 314.867 210.148 323.202 201.868 332.281C194.697 340.14 185.869 348.321 176.327 355.935C161.392 367.857 147.152 376.494 139.466 378.554L139.464 378.562ZM135.392 378.492L135.46 378.507C136.411 378.728 137.734 378.598 139.368 378.161C156.286 373.627 206.377 335.816 218.785 307.341C227.755 289.153 227.747 269.546 218.761 249.051L218.759 249.044C214.768 239.088 203.785 227.625 192.314 225.679C179.457 223.553 161.401 227.255 146.321 235.11C133.308 242.673 124.8 250.943 119.554 261.142C114.631 270.715 112.216 282.512 111.723 299.394C111.295 314.353 112.554 331.811 115.086 346.104C117.205 358.057 121.17 373.273 128.022 377.896C130.296 379.43 132.753 379.641 135.32 378.518L135.384 378.49L135.392 378.492Z" fill="white"/>
        <path d="M147.906 369.848C146.23 370.298 144.596 370.203 143.013 369.556C139.044 367.941 133.399 361.972 129.03 342.727C126.102 329.826 124.544 313.953 124.862 300.265C125.237 284.088 125.686 273.642 128.723 265.051C131.864 256.162 137.672 249.529 148.777 242.162C154.896 238.102 161.419 236.935 168.159 238.692C182.733 242.497 193.759 258.68 195.707 262.482C199.347 269.584 200.346 278.297 198.676 288.38C197.237 297.061 193.829 306.774 188.544 317.261C178.991 336.212 164.855 354.431 154.813 365.162C152.448 367.687 150.139 369.254 147.907 369.852L147.906 369.848ZM156.466 239.008C153.912 239.692 151.415 240.841 148.977 242.461C137.946 249.781 132.176 256.359 129.062 265.17C126.046 273.714 125.597 284.13 125.224 300.273C124.645 325.23 130.693 364.146 143.149 369.224C146.685 370.666 150.518 369.216 154.544 364.915C164.569 354.204 178.68 336.018 188.215 317.098C193.484 306.646 196.882 296.965 198.311 288.321C199.969 278.315 198.982 269.678 195.381 262.648C193.448 258.876 182.507 242.813 168.062 239.044C164.108 238.013 160.228 238.004 156.46 239.013L156.466 239.008Z" fill="white"/>
    </g>
</svg>
