<svg width="185" height="103" viewBox="0 0 185 103" fill="none"
    xmlns="http://www.w3.org/2000/svg">
    <path d="M9.13982 97.826C4.9441 97.7013 2.20862 96.6717 0.958487 94.7382C-0.645735 92.2581 0.209673 88.3212 3.50089 83.0367C7.06817 77.3091 13.6054 69.7987 22.9326 60.7175C35.2802 48.6914 47.3516 38.4985 58.807 30.4196C68.7586 23.4023 78.5619 17.7616 87.9469 13.6568C104.378 6.46565 117.308 4.82075 128.837 4.11216C141.193 3.35257 151.836 5.12791 160.467 9.38802C167.972 13.0924 173.83 18.5779 177.88 25.6954C186.316 40.5266 184.776 59.1129 178.413 68.5158C175.429 72.9254 171.544 75.043 167.478 74.4733C150.263 72.0628 134.955 71.0925 120.678 71.5064C101.006 72.076 83.5343 75.3541 68.7469 81.2451C58.1769 85.4566 42.703 91.2196 29.0121 94.7544C20.5367 96.944 13.8974 97.9674 9.13753 97.8259L9.13982 97.826ZM128.857 4.45401L128.879 4.79592C117.414 5.49954 104.552 7.13733 88.2208 14.2834C78.8798 18.3712 69.1161 23.9878 59.2019 30.9787C47.7746 39.0355 35.7335 49.2064 23.4095 61.2058C14.1224 70.2492 7.6184 77.7172 4.07996 83.3974C0.942402 88.4346 0.085204 92.1241 1.53205 94.3613C3.9886 98.1607 13.4327 98.0658 28.8422 94.0874C42.4962 90.5607 57.9424 84.8084 68.4939 80.6054C83.3553 74.6845 100.907 71.3905 120.657 70.8186C134.971 70.4035 150.317 71.3773 167.571 73.7935C171.366 74.3254 175.013 72.313 177.844 68.1324C184.089 58.9047 185.586 40.6354 177.282 26.0372C173.302 19.0409 167.542 13.6477 160.163 10.0043C151.64 5.79774 141.115 4.04424 128.879 4.79821L128.857 4.4563L128.857 4.45401Z" fill="black"/>
    <path d="M15.2941 92.6609C11.4319 92.5461 8.918 91.5987 7.77993 89.8174C4.71283 85.0241 11.3746 74.7849 28.1462 58.5134C50.1387 37.7156 71.0945 23.1854 90.4325 15.3248C106.128 8.94548 118.122 7.81326 128.747 7.54273C139.725 6.96666 149.171 8.5873 156.817 12.3624C163.5 15.6599 168.7 20.5165 172.276 26.8022C174.74 31.1333 177.624 38.3145 177.368 47.9196C177.186 54.744 175.348 61.2696 172.323 65.8223C169.272 70.4154 165.282 72.665 161.087 72.1532C129.723 68.7382 96.7986 67.0976 68.5288 78.1237C58.9236 81.8692 44.946 86.9735 32.8905 90.0187C25.4185 91.906 19.5401 92.7871 15.2941 92.6609ZM135.172 8.10705C133.103 8.04554 130.969 8.07144 128.771 8.18705C118.199 8.45685 106.272 9.58188 90.673 15.9229C71.4091 23.7536 50.5209 38.24 28.5895 58.9824C20.0095 67.3047 13.9942 74.1757 10.7139 79.401C7.81028 84.0282 7.00317 87.4169 8.31835 89.4692C10.5444 92.948 18.7589 92.9219 32.7285 89.3932C44.7518 86.3562 58.704 81.2603 68.2906 77.5234C96.69 66.4462 129.706 68.0872 161.156 71.5117C165.103 71.9932 168.873 69.8447 171.783 65.465C174.741 61.0111 176.541 54.608 176.719 47.9026C176.858 42.6824 176.104 34.8407 171.713 27.1222C168.203 20.9507 163.096 16.1792 156.531 12.9402C150.508 9.9692 143.344 8.34996 135.17 8.10698L135.172 8.10705Z" fill="black"/>
    <path d="M21.4437 87.5049C17.9103 87.3998 15.6203 86.5347 14.592 84.9055C11.8257 80.5288 17.965 71.1765 33.3597 56.3139C54.3258 37.13 74.3628 23.901 92.9181 16.9928C108.015 11.3721 119.458 10.7961 128.658 10.9734C138.269 10.5765 146.537 12.0476 153.215 15.3473C159.082 18.2472 163.628 22.4912 166.732 27.9636C169.847 33.4523 171.355 39.933 171.095 46.707C170.858 52.8886 169.163 58.6969 166.322 63.0604C163.187 67.8754 159.058 70.279 154.693 69.8309L152.273 69.6398C139.274 68.6144 124.538 67.4526 110.125 67.8144C93.6308 68.2311 79.9522 70.5821 68.3061 75.0022C55.7399 79.7705 45.1258 83.2318 36.762 85.285C30.2933 86.8747 25.1758 87.6135 21.446 87.5026L21.4437 87.5049ZM133.675 11.5439C132.049 11.4956 130.38 11.5078 128.666 11.5782C119.502 11.402 108.13 11.9756 93.1275 17.5602C74.6462 24.443 54.6744 37.6305 33.7717 56.7567C18.8314 71.1794 12.5476 80.5434 15.1022 84.584C17.0627 87.6884 24.3014 87.7272 36.617 84.7013C44.9602 82.652 55.5488 79.1991 68.092 74.4393C79.8005 69.9936 93.5458 67.6308 110.109 67.2116C124.554 66.8485 139.305 68.0107 152.321 69.0389L154.748 69.2301C158.886 69.6532 162.812 67.3466 165.818 62.7316C168.56 58.521 170.264 52.6716 170.494 46.6869C170.749 40.0249 169.268 33.6526 166.209 28.2641C163.166 22.8989 158.704 18.7375 152.947 15.8913C147.547 13.2205 141.082 11.7641 133.675 11.5439Z" fill="black"/>
    <path d="M27.5737 82.3849C24.3761 82.2898 22.3264 81.4937 21.3991 80.0026C18.936 76.0403 24.553 67.5726 38.5754 54.1167C58.5293 36.5312 77.6474 24.6055 95.4058 18.6654C110.061 13.7622 120.82 13.8117 128.559 14.4059C148.388 13.8662 157.29 22.1471 161.264 29.1913C163.948 33.948 165.205 39.5944 164.898 45.5174C164.618 50.9349 163.034 56.158 160.44 60.2218C157.246 65.2252 152.815 67.8855 148.302 67.5131C144.987 67.3528 141.575 67.162 138.277 66.977C114.045 65.6245 88.988 64.227 68.0877 71.8877C48.3317 79.1243 34.9259 82.6057 27.5782 82.3873L27.5737 82.3849ZM124.144 14.7259C116.922 14.5112 107.563 15.1881 95.5797 19.1974C77.8929 25.1144 58.8399 37.0031 38.9517 54.531C25.3528 67.5827 19.603 76.0556 21.872 79.7052C23.5695 82.433 29.8346 82.5391 40.4962 80.016C47.6285 78.327 56.5892 75.4967 67.8886 71.3572C88.8974 63.6585 114.016 65.0602 138.303 66.4143C141.601 66.5994 145.011 66.7877 148.332 66.9506C152.713 67.3076 156.838 64.8123 159.962 59.9167C162.504 55.9338 164.057 50.8083 164.332 45.4868C164.633 39.6691 163.401 34.1287 160.769 29.4651C156.869 22.5537 148.115 14.4307 128.553 14.9669L128.524 14.966C127.16 14.8614 125.699 14.7744 124.139 14.7281L124.144 14.7259Z" fill="black"/>
    <path d="M33.7383 77.2613C31.0157 77.1804 29.0553 76.5312 28.1878 75.1083C26.0279 71.5582 31.1294 63.973 43.7866 51.9171C62.7425 35.9144 80.9417 25.2921 97.8868 20.3356C108.725 17.1649 118.728 16.3468 128.463 17.8364C145.197 17.6833 152.612 24.6305 155.881 30.4879C158.127 34.5102 159.132 39.3063 158.793 44.3556C158.481 48.9866 157.03 53.5792 154.707 57.2892C151.46 62.4766 146.928 65.3468 142.23 65.2072C142.12 65.2039 142.011 65.2007 141.901 65.1928C136.215 65.0811 130.561 64.8581 125.095 64.6452C104.088 63.8215 84.2476 63.0439 67.8558 68.7682C55.4766 73.0886 41.5038 77.4945 33.7336 77.2635L33.7383 77.2613ZM120.842 17.6648C113.545 17.4479 106.02 18.4977 98.0342 20.8347C81.1583 25.7726 63.0241 36.3602 44.1339 52.3053C31.8673 63.9903 26.6469 71.5743 28.6325 74.8375C32.1786 80.6643 57.9788 71.6628 67.6899 68.2754C84.1718 62.5172 104.062 63.2985 125.119 64.1237C130.583 64.3388 136.232 64.5594 141.926 64.6714C146.556 64.9487 151.051 62.1552 154.27 57.0106C156.547 53.3724 157.97 48.8661 158.277 44.3197C158.612 39.371 157.626 34.6762 155.43 30.7425C152.228 25.0062 144.949 18.2004 128.448 18.3581L128.407 18.3569C125.906 17.9711 123.387 17.7404 120.842 17.6648Z" fill="black"/>
    <path d="M39.8318 72.1449C37.4153 72.073 35.709 71.4909 34.9624 70.2274C33.1058 67.0871 37.699 60.3777 49.0025 49.7154C66.979 35.2822 84.2595 25.961 100.375 22.0036C113.469 18.7878 122.827 19.824 128.378 21.2648C142.071 21.4794 148.036 27.1444 150.621 31.8638C154.151 38.3085 153.59 47.096 149.19 54.2508C145.776 59.8043 140.69 63.0199 135.576 62.8679C135.554 62.8672 135.533 62.8666 135.51 62.866C127.397 62.9363 119.853 62.7212 112.558 62.5158C95.1138 62.0225 80.0501 61.5976 67.638 65.6422C56.5902 69.2372 45.9439 72.3242 39.8296 72.1425L39.8318 72.1449ZM118.418 20.4076C104.65 19.9983 81.0704 24.5813 49.3141 50.0773C38.368 60.4045 33.6722 67.1062 35.372 69.9853C38.1753 74.7295 57.9763 68.2867 67.4914 65.189C79.9844 61.117 95.0846 61.5452 112.572 62.0398C119.863 62.2451 127.402 62.4601 135.517 62.3898C135.538 62.3904 135.559 62.391 135.579 62.3916C140.531 62.5388 145.459 59.4078 148.783 54.0006C153.093 46.9896 153.65 38.3921 150.2 32.0941C147.674 27.4841 141.831 21.9418 128.341 21.7447L128.311 21.7438L128.284 21.7361C125.954 21.1286 122.648 20.5333 118.418 20.4076Z" fill="black"/>
    <path d="M45.9863 67.0508C43.885 66.9883 42.3359 66.5002 41.6994 65.3774C40.1509 62.6402 44.2451 56.7978 54.216 47.5158C71.2343 34.6322 87.5936 26.6167 102.86 23.6761C108.507 22.5889 113.855 22.2371 118.754 22.6324C123.682 23.0285 126.833 24.091 128.291 24.7C134.792 25.0284 139.748 26.8156 143.02 30.0163C145.846 32.78 147.273 36.5077 147.146 40.7937C147.006 45.5123 145.008 50.4276 141.659 54.2835C138.113 58.3626 133.66 60.587 129.117 60.5459C118.347 60.9358 108.906 60.7101 100.577 60.5106C87.0096 60.1852 76.2935 59.9285 67.4151 62.5253L66.8686 62.6854C60.3148 64.5977 51.3514 67.2103 45.9886 67.0509L45.9863 67.0508ZM116.274 22.9343C112.622 22.8257 108.176 23.099 102.941 24.1068C87.7412 27.0356 71.4421 35.0255 54.4963 47.8517C44.8498 56.8341 40.6668 62.6624 42.0808 65.162C44.168 68.8497 58.3016 64.728 66.7462 62.2649L67.2927 62.1048C76.2356 59.4916 86.9815 59.7469 100.587 60.0735C108.912 60.2728 118.346 60.4983 129.111 60.1082C133.534 60.1481 137.868 57.9774 141.329 53.9943C144.614 50.2143 146.575 45.3987 146.71 40.7808C146.833 36.6183 145.45 33.0042 142.714 30.3279C139.515 27.198 134.64 25.4499 128.231 25.1334L128.192 25.1323L128.156 25.1174C126.72 24.5136 122.744 23.1266 116.272 22.9342L116.274 22.9343Z" fill="black"/>
    <path d="M52.1145 62.0705C50.2759 62.0158 48.9146 61.5906 48.38 60.5784C47.1398 58.2351 50.7538 53.2419 59.4316 45.3187L59.4504 45.3032C70.4925 37.5144 87.4187 27.7292 105.346 25.351C110.617 24.6511 115.699 24.6556 120.037 25.364C123.45 25.9212 126.426 26.9304 128.21 28.1378C140.735 29.4422 141.785 36.9561 141.654 40.1289C141.488 44.1917 139.298 48.7142 135.797 52.2289C132.036 56.0061 127.394 58.1356 122.723 58.2281C108.818 59.1065 97.9373 58.7808 89.1965 58.5187C79.7545 58.2358 72.9413 58.0309 67.1899 59.4083C66.7317 59.5183 66.2551 59.6324 65.767 59.7508C61.1112 60.8744 55.7026 62.1771 52.1145 62.0705ZM59.6879 45.6195C51.2873 53.2921 47.6008 58.2626 48.7284 60.3941C50.1635 63.105 59.4979 60.8539 65.6733 59.3655C66.1614 59.2472 66.638 59.1331 67.0962 59.023C72.8983 57.6334 79.7366 57.8367 89.206 58.1205C97.9422 58.3847 108.809 58.7078 122.705 57.829C127.216 57.7409 131.881 55.5961 135.515 51.9456C138.946 48.4998 141.093 44.0746 141.257 40.108C141.525 33.6296 136.736 29.4058 128.118 28.5221L128.068 28.516L128.028 28.4874C124.529 26.0884 116.171 24.3077 105.396 25.7373C95.5476 27.0432 79.6217 31.5537 59.688 45.6149L59.6879 45.6195Z" fill="black"/>
    <path d="M58.2957 57.2315C56.6307 57.182 55.3657 56.8237 54.9295 55.8877C54.4803 54.9262 54.9638 53.5045 56.4074 51.541C57.9774 49.405 60.7477 46.5717 64.6452 43.1169L64.6662 43.1015C83.537 30.8867 98.5551 27.6159 107.829 27.0235C118.557 26.3369 125.853 28.8945 128.133 31.5779C135.869 33.1042 136.734 37.4701 136.56 39.9408C136.081 46.729 126.95 55.3625 116.327 55.9056C98.3933 57.5141 87.0197 56.8439 78.713 56.3565C73.6652 56.0599 70.0163 55.8437 66.958 56.2911C66.4575 56.3632 65.9316 56.4438 65.3943 56.524C62.9509 56.8957 60.3261 57.2941 58.2957 57.2337L58.2957 57.2315ZM64.8702 43.3915C57.6527 49.7939 54.4157 53.9463 55.2494 55.7369C56.107 57.5741 61.2256 56.7963 65.3407 56.172C65.8781 56.0895 66.4039 56.0112 66.9067 55.9391C69.9994 55.4882 73.662 55.7048 78.7327 56.0021C87.0279 56.4891 98.3879 57.1589 116.301 55.5522C121.022 55.3123 125.983 53.3091 129.92 50.057C133.625 46.9973 135.973 43.2055 136.206 39.9166C136.494 35.8391 133.579 32.9972 128.004 31.913L127.942 31.902L127.903 31.8528C126.087 29.655 119.247 26.6483 107.853 27.3769C98.6223 27.9683 83.6732 31.2252 64.8702 43.3915Z" fill="black"/>
    <path d="M83.6615 55.0011C77.1269 54.8069 72.9754 54.1177 70.0933 53.6381C68.7238 53.4119 67.6434 53.2309 66.708 53.1665C66.464 53.1477 66.2176 53.1313 65.9712 53.1148C63.7969 52.97 61.5496 52.8207 61.1159 51.4909C60.7618 50.4062 61.2821 48.129 69.8611 40.9151L69.8821 40.8997C80.6455 34.6463 91.2383 30.7423 101.367 29.2936C112.001 27.7728 118.846 29.4535 121.978 30.5887C125.201 31.7587 127.407 33.3726 128.053 35.0271C131.819 36.5247 132.336 38.7663 132.1 40.3877C131.718 43.0263 128.994 46.1313 124.812 48.6913C120.447 51.3649 115.021 53.1459 109.927 53.5808C98.3424 54.9199 89.9105 55.1868 83.6615 55.0011ZM66.7287 52.8556C67.6777 52.9227 68.7673 53.1017 70.1436 53.3304C75.7692 54.2649 86.2378 56.003 109.895 53.2706C121.129 52.3105 131.059 45.4139 131.793 40.342C132.107 38.1663 130.753 36.4197 127.876 35.2921L127.81 35.2672L127.787 35.2001C127.208 33.6094 125.051 32.036 121.874 30.8834C118.366 29.611 99.3858 24.1249 70.0503 41.1635C63.7269 46.4816 60.9001 49.8285 61.4114 51.3943C61.7801 52.5253 63.9202 52.6667 65.9918 52.8039C66.2405 52.8205 66.4869 52.8369 66.731 52.8556L66.7287 52.8556Z" fill="black"/>
    <path d="M78.5559 53.1819C77.0896 53.1384 75.7435 53.0479 74.5222 52.9132C68.498 52.2417 66.9273 50.5551 66.4111 50.0015C65.8997 49.4412 65.6794 48.8552 65.7397 48.2088C65.923 46.272 68.6292 43.5193 75.0815 38.7112L75.1025 38.6981C85.3885 33.5047 95.8892 30.5485 105.47 30.1507C116.297 29.6984 122.213 32.5379 124.254 33.7804C126.603 35.2084 127.92 36.8852 127.966 38.5036C128.861 39.5265 129.106 40.5942 128.699 41.6792C127.736 44.2478 123.361 46.2936 119.865 47.5548C115.285 49.2074 109.483 50.5237 103.531 51.2583C93.1339 52.722 84.7593 53.3663 78.5559 53.1819ZM66.6063 49.8172C70.089 53.5509 82.4994 53.9473 103.493 50.9915C114.382 49.6478 126.827 45.8951 128.446 41.5869C128.82 40.5903 128.578 39.6005 127.73 38.65L127.697 38.6124L127.699 38.562C127.676 37.0222 126.405 35.4087 124.112 34.0144C115.566 28.8178 96.6237 28.1425 75.2302 38.9401C68.9391 43.6293 66.1795 46.4102 66.0063 48.2373C65.9527 48.8106 66.1435 49.3133 66.6063 49.8195L66.6063 49.8172Z" fill="black"/>
    <path d="M73.359 51.3647C69.547 51.2514 67.2112 50.6162 66.3038 49.4578C65.7532 48.7566 65.7154 47.8737 66.1897 46.7609C66.9983 44.8588 69.9281 42.5822 72.2449 41.0089C74.8907 39.2094 78.0592 37.4393 80.3137 36.5008C92.4611 31.4406 102.381 30.801 108.561 31.1542C115.745 31.5647 122.074 33.5965 125.494 36.5864C127.471 38.3148 128.301 40.2359 127.837 41.9971C126.667 46.424 118.926 46.9772 109.964 47.6178C105.756 47.9187 101.406 48.2291 97.128 48.938C86.4179 50.7107 78.5299 51.5184 73.359 51.3647ZM80.3562 36.6074L80.401 36.7141C76.2508 38.4436 67.7808 43.6063 66.4018 46.8543C65.9643 47.8834 65.9929 48.6881 66.4863 49.3189C68.539 51.9383 78.839 51.7337 97.0936 48.7125C101.383 48.0017 105.738 47.6914 109.951 47.3906C118.825 46.7566 126.489 46.208 127.617 41.9402C128.06 40.2676 127.252 38.4297 125.345 36.7606C121.963 33.8017 115.684 31.7919 108.55 31.3829C102.386 31.0301 92.5091 31.671 80.4034 36.7119L80.3586 36.6052L80.3562 36.6074Z" fill="black"/>
</svg>
    