<svg width="390" height="176" viewBox="0 0 390 176" fill="none"
    xmlns="http://www.w3.org/2000/svg">
    <g opacity="0.3">
        <path d="M232.906 134.02C223.481 136.545 214.327 138.766 205.492 140.665C156.986 151.1 119.637 151.748 94.4835 142.592C68.7492 133.227 56.5136 113.69 58.1123 84.5179C62.9703 -4.04011 75.6218 -61.511 83.9933 -99.5371C87.7612 -116.653 90.7377 -130.174 91.5858 -140.4C92.9948 -157.42 111.418 -184.45 139.663 -210.945C170.059 -239.456 204.976 -261.145 235.464 -270.45C277.512 -283.283 320.35 -307.847 348.88 -326.196C382.115 -347.57 415.606 -373.264 438.466 -394.93C453.223 -408.917 470.818 -413.973 489.345 -409.552C521.423 -401.895 552.145 -366.877 569.52 -318.168C577.754 -295.081 586.27 -271.205 593.024 -247.774C600.494 -221.868 604.935 -199.305 606.605 -178.798C608.596 -154.312 606.796 -132.033 601.104 -110.693C594.747 -86.8661 583.714 -64.7202 567.374 -42.9879C539.467 -5.87155 449.904 49.991 349.577 92.8598C308.534 110.395 268.753 124.411 232.905 134.017L232.906 134.02ZM463.657 -408.33C454.943 -405.995 446.708 -401.241 439.215 -394.138C416.307 -372.425 382.757 -346.685 349.47 -325.279C320.882 -306.896 277.95 -282.276 235.781 -269.407C205.449 -260.148 170.684 -238.552 140.405 -210.147C112.349 -183.83 94.0566 -157.068 92.6688 -140.305C91.8149 -130.002 88.8311 -116.453 85.055 -99.2971C76.69 -61.3027 64.0534 -3.88822 59.1984 84.5828C57.6285 113.218 69.6244 132.393 94.8567 141.578C119.814 150.659 156.96 149.997 205.265 139.609C247.628 130.499 297.382 113.99 349.15 91.8689C449.323 49.0677 538.703 -6.65213 566.507 -43.6324C582.762 -65.2518 593.735 -87.2729 600.056 -110.966C605.717 -132.186 607.508 -154.343 605.525 -178.704C601.809 -224.408 584.873 -271.883 568.499 -317.796C551.249 -366.165 520.823 -400.918 489.094 -408.488C480.333 -410.58 471.785 -410.504 463.658 -408.327L463.657 -408.33Z" fill="white"/>
        <path d="M234.011 114.803C226.556 116.801 219.295 118.586 212.251 120.147C167.832 129.992 133.639 130.833 110.617 122.645C87.3443 114.367 76.1725 96.9384 77.4104 70.8419C80.5691 -8.00692 91.2911 -62.6455 98.3839 -98.7966C101.714 -115.769 104.343 -129.174 105.145 -139.516C106.448 -156.233 123.329 -182.033 149.203 -206.852C176.909 -233.428 209.316 -253.902 238.117 -263.027C276.852 -275.055 316.374 -297.428 342.705 -314.074C373.64 -333.633 403.795 -356.204 425.437 -376.008C439.097 -388.502 455.316 -392.874 472.346 -388.652C501.907 -381.324 530.158 -349.103 546.074 -304.554C561.13 -262.539 576.7 -219.093 580.127 -176.275C581.933 -153.721 580.267 -133.183 575.035 -113.486C569.2 -91.5157 559.091 -71.0859 544.142 -51.0303C518.587 -16.5147 436.402 35.5088 344.288 75.484C305.42 92.35 267.758 105.765 234.008 114.808L234.011 114.803ZM447.964 -387.626C440.201 -385.546 432.851 -381.404 426.129 -375.257C404.445 -355.415 374.238 -332.8 343.254 -313.213C316.868 -296.534 277.265 -274.117 238.426 -262.054C209.771 -252.975 177.509 -232.588 149.914 -206.117C124.213 -181.465 107.452 -155.914 106.167 -139.438C105.362 -129.035 102.725 -115.605 99.3921 -98.6022C92.3032 -62.4783 81.5936 -7.89181 78.4381 70.885C77.2244 96.4842 88.1666 113.574 110.966 121.683C133.802 129.804 167.807 128.95 212.036 119.148C250.903 110.536 296.496 95.1083 343.889 74.5418C435.856 34.6324 517.867 -17.2548 543.329 -51.6441C558.205 -71.5941 568.255 -91.9104 574.056 -113.752C579.259 -133.336 580.914 -153.759 579.116 -176.199C575.699 -218.885 560.153 -262.266 545.117 -304.219C529.314 -348.449 501.338 -380.423 472.103 -387.669C463.794 -389.728 455.673 -389.695 447.963 -387.629L447.964 -387.626Z" fill="white"/>
        <path d="M235.189 95.6055C229.668 97.0847 224.273 98.4293 219.006 99.6382C178.674 108.898 147.634 109.928 126.748 102.707C105.938 95.5154 95.8328 80.1912 96.7148 57.1611C98.1993 -12.4873 106.71 -62.3486 112.926 -98.7517C115.747 -115.273 117.972 -128.323 118.713 -138.641C119.928 -155.308 134.896 -179.28 158.753 -202.768C183.779 -227.408 213.677 -246.667 240.779 -255.611C304.981 -275.953 378.595 -327.445 412.414 -357.09C424.978 -368.092 439.828 -371.782 455.364 -367.759C482.403 -360.76 508.179 -331.329 522.635 -290.952C535.713 -254.669 550.531 -213.542 553.658 -173.76C555.276 -153.139 553.747 -134.341 548.978 -116.29C543.662 -96.1745 534.484 -77.4627 520.92 -59.0819C509.274 -43.0698 485.243 -23.1695 451.428 -1.53922C418.949 19.2387 379.018 40.4209 339.002 58.1079C302.335 74.3132 266.804 87.1342 235.192 95.6046L235.189 95.6055ZM432.244 -366.933C425.44 -365.11 418.981 -361.577 413.041 -356.374C379.164 -326.676 305.407 -275.09 241.071 -254.704C214.107 -245.804 184.344 -226.627 159.419 -202.089C135.725 -178.761 120.861 -155.015 119.662 -138.572C118.918 -128.209 116.687 -115.139 113.861 -98.5902C107.654 -62.2154 99.1505 -12.3937 97.6641 57.1914C96.8007 79.7595 106.69 94.767 127.058 101.808C147.774 108.969 178.635 107.927 218.79 98.7069C254.159 90.5861 295.597 76.2459 338.61 57.2349C378.586 39.5661 418.467 18.4086 450.909 -2.34417C484.621 -23.9095 508.563 -43.7222 520.143 -59.6455C533.639 -77.9294 542.766 -96.5375 548.047 -116.531C552.788 -134.478 554.311 -153.172 552.699 -173.684C549.585 -213.338 534.787 -254.402 521.728 -290.627C507.377 -330.71 481.854 -359.912 455.117 -366.835C447.24 -368.875 439.542 -368.888 432.241 -366.932L432.244 -366.933Z" fill="white"/>
        <path d="M236.456 76.4324C232.821 77.4063 229.254 78.3133 225.744 79.1526C189.499 87.8229 161.616 89.0488 142.865 82.7962C124.521 76.6779 115.488 63.4529 116.014 43.489C115.817 -17.6013 122.633 -65.139 127.612 -99.8469C129.757 -114.805 131.61 -127.721 132.275 -137.76C133.385 -154.134 146.852 -176.909 168.293 -198.678C190.655 -221.379 218.043 -239.429 243.434 -248.192C268.831 -256.432 298.887 -270.832 330.364 -289.839C355.629 -305.095 380.785 -322.712 399.388 -338.171C410.854 -347.688 424.342 -350.695 438.391 -346.861C462.901 -340.177 486.196 -313.54 499.187 -277.341C512.961 -239.386 524.573 -205.201 527.179 -171.236C528.614 -152.547 527.216 -135.486 522.909 -119.08C518.115 -100.823 509.865 -83.8254 497.686 -67.1194C487.148 -52.3183 465.456 -33.9739 434.955 -14.0706C405.774 4.96926 369.813 24.4431 333.695 40.7637C299.254 56.3236 265.887 68.5574 236.451 76.4447L236.456 76.4324ZM416.494 -346.258C410.655 -344.693 405.1 -341.762 399.953 -337.491C381.32 -322.004 356.122 -304.358 330.822 -289.082C299.287 -270.04 269.168 -255.608 243.715 -247.353C218.458 -238.634 191.195 -220.666 168.928 -198.058C147.631 -176.436 134.258 -153.869 133.165 -137.702C132.497 -127.629 130.641 -114.697 128.493 -99.7232C123.518 -65.0426 116.706 -17.5436 116.905 43.4976C116.389 63.039 125.217 75.9743 143.148 81.9521C161.743 88.153 189.463 86.9184 225.543 78.2886C257.421 70.6574 294.695 57.4028 333.336 39.942C369.414 23.6396 405.333 4.19195 434.475 -14.8262C464.884 -34.6673 486.492 -52.933 496.97 -67.6506C509.086 -84.2686 517.288 -101.168 522.055 -119.315C526.335 -135.624 527.725 -152.59 526.299 -171.177C523.701 -205.027 512.109 -239.15 498.358 -277.048C485.461 -312.979 462.396 -339.405 438.161 -346.013C430.706 -348.047 423.406 -348.114 416.5 -346.263L416.494 -346.258Z" fill="white"/>
        <path d="M237.839 57.3028C236.03 57.7875 234.243 58.2516 232.468 58.697C200.311 66.7816 175.58 68.2006 158.962 62.9124C143.086 57.86 135.127 46.7262 135.312 29.8135C133.347 -23.5197 138.598 -69.3681 142.433 -102.844C143.954 -116.117 145.269 -127.582 145.834 -136.878C146.856 -153.214 158.521 -174.248 177.833 -194.588C197.552 -215.356 222.427 -232.189 246.087 -240.769C293.312 -256.529 351.902 -292.501 386.358 -319.252C396.738 -327.293 408.869 -329.615 421.437 -325.965C443.405 -319.585 464.214 -295.743 475.741 -263.738C487.575 -231.4 498.386 -199.799 500.702 -168.724C501.951 -151.971 500.688 -136.646 496.844 -121.885C492.573 -105.485 485.249 -90.2073 474.459 -75.1736C465.029 -61.5835 445.671 -44.7861 418.483 -26.6063C392.602 -9.3011 360.605 8.4663 328.388 23.423C296.21 38.358 265.043 50.0136 237.84 57.3063L237.839 57.3028ZM400.7 -325.605C395.844 -324.304 391.199 -321.965 386.864 -318.608C352.355 -291.817 293.665 -255.785 246.36 -240C222.828 -231.465 198.067 -214.707 178.434 -194.026C159.25 -173.821 147.67 -152.975 146.661 -136.83C146.093 -127.514 144.777 -116.038 143.256 -102.754C139.422 -69.304 134.175 -23.4908 136.138 29.8021C135.958 46.331 143.722 57.1987 159.217 62.1285C175.687 67.37 200.267 65.9466 232.273 57.8988C260.656 50.7546 293.777 38.5829 328.044 22.6721C360.222 7.73366 392.18 -10.0085 418.029 -27.2938C445.134 -45.4178 464.415 -62.1384 473.791 -75.6504C484.528 -90.6024 491.808 -105.793 496.053 -122.093C499.876 -136.766 501.129 -152.001 499.889 -168.663C497.582 -199.636 486.787 -231.177 474.976 -263.459C463.537 -295.221 442.941 -318.869 421.217 -325.175C414.158 -327.225 407.241 -327.35 400.706 -325.599L400.7 -325.605Z" fill="white"/>
        <path d="M239.383 38.2241L239.183 38.2776C211.114 45.7799 189.536 47.3919 175.052 43.0717C161.641 39.0747 154.765 30.0109 154.617 16.1361C150.639 -30.3524 154.505 -75.7734 157.329 -108.937C158.213 -119.324 158.978 -128.292 159.405 -136.004C160.324 -152.068 170.525 -171.934 187.383 -190.504C204.484 -209.342 226.853 -224.964 248.751 -233.357C269.1 -240.383 292.402 -251.235 318.026 -265.609C337.3 -276.423 357.459 -289.082 373.34 -300.343C382.64 -306.915 393.421 -308.549 404.527 -305.066C423.947 -298.977 442.253 -277.93 452.302 -250.137C462.292 -223.127 472.21 -194.396 474.232 -166.209C475.293 -151.388 474.166 -137.808 470.784 -124.685C467.034 -110.144 460.639 -96.5798 451.232 -83.2244C434.734 -58.6776 383.226 -22.7714 323.068 6.11586C293.209 20.4557 264.277 31.5536 239.383 38.2241ZM384.834 -304.985C380.975 -303.951 377.265 -302.193 373.772 -299.725C357.872 -288.451 337.684 -275.773 318.39 -264.95C292.731 -250.555 269.384 -239.687 249.005 -232.65C227.226 -224.3 204.964 -208.755 187.938 -189.998C171.193 -171.551 161.068 -151.855 160.156 -135.962C159.727 -128.241 158.963 -119.266 158.077 -108.875C155.253 -75.7378 151.391 -30.3555 155.368 16.0961C155.515 29.6303 162.209 38.4505 175.266 42.3438C189.614 46.6216 211.054 45.0093 238.986 37.5435L239.186 37.49C264.035 30.8317 292.919 19.7504 322.738 5.42886C382.786 -23.4065 434.169 -59.2078 450.606 -83.6597C459.963 -96.9458 466.321 -110.428 470.049 -124.881C473.409 -137.92 474.53 -151.423 473.476 -166.161C471.462 -194.248 461.56 -222.919 451.59 -249.883C441.617 -277.46 423.497 -298.332 404.3 -304.349C397.606 -306.448 391.028 -306.649 384.84 -304.991L384.834 -304.985Z" fill="white"/>
        <path d="M241.038 19.2691C219.404 25.066 202.625 26.426 191.118 23.3087C180.177 20.3434 174.39 13.3407 173.915 2.48691C167.329 -38.0315 170.096 -85.3871 172.116 -119.969C172.432 -125.396 172.731 -130.519 172.964 -135.123C173.797 -151.171 182.306 -169.385 196.923 -186.414C211.663 -203.582 231.011 -217.619 251.403 -225.938C265.665 -231.078 304.801 -246.761 360.314 -281.425C368.546 -286.538 378.001 -287.483 387.658 -284.147C404.499 -278.33 420.285 -260.085 428.853 -236.533C437.095 -214.547 446.032 -188.974 447.752 -163.692C449.572 -136.973 443.11 -113.287 427.999 -91.2733C420.776 -80.0839 406.082 -66.3682 385.517 -51.6115C365.93 -37.5589 342.491 -23.5645 317.735 -11.1427C292.169 1.6835 267.321 11.7357 245.878 17.9235C244.239 18.3965 242.623 18.8445 241.034 19.27L241.038 19.2691ZM368.871 -284.418C366.037 -283.659 363.294 -282.463 360.68 -280.841C351.798 -275.295 333.687 -264.287 312.174 -252.884C289.59 -240.909 269.23 -231.629 251.654 -225.297C231.373 -217.023 212.119 -203.056 197.451 -185.968C182.935 -169.055 174.484 -150.988 173.659 -135.091C173.426 -130.488 173.127 -125.362 172.813 -119.931C170.793 -85.3753 168.028 -38.0539 174.607 2.39526L174.61 2.43558C175.062 12.9659 180.678 19.7633 191.303 22.641C203.359 25.907 222.168 24.048 245.692 17.2577C267.097 11.0802 291.901 1.04722 317.431 -11.7617C342.154 -24.1671 365.563 -38.1426 385.123 -52.1728C405.619 -66.8774 420.247 -80.5306 427.432 -91.6534C442.457 -113.539 448.877 -137.086 447.072 -163.641C445.358 -188.831 436.439 -214.349 428.214 -236.287C419.714 -259.655 404.092 -277.738 387.44 -283.489C381.06 -285.695 374.767 -285.991 368.879 -284.413L368.871 -284.418Z" fill="white"/>
        <path d="M243.406 0.355437C228.044 4.47157 215.633 5.62032 207.172 3.66882C198.675 1.70827 193.982 -3.28335 193.218 -11.1712C182.596 -46.2923 185.352 -107.923 186.525 -134.245C188.051 -167.133 215.822 -201.789 254.058 -218.519C284.878 -230.239 320.034 -248.419 341.04 -259.277C343.269 -260.429 345.364 -261.511 347.298 -262.509C354.484 -266.184 362.644 -266.418 370.883 -263.194C385.113 -257.625 398.339 -242.197 405.408 -222.927C412.857 -203.422 419.934 -182.442 421.276 -161.173C422.707 -138.478 417.311 -118.247 404.77 -99.3197C392.729 -79.6647 356.474 -51.8021 312.407 -28.3426C291.217 -17.064 270.529 -8.07367 252.578 -2.34209C249.417 -1.33406 246.356 -0.431313 243.403 0.359854L243.406 0.355437ZM352.737 -263.94C350.971 -263.467 349.251 -262.804 347.582 -261.952C345.648 -260.958 343.556 -259.877 341.327 -258.721C320.312 -247.856 285.137 -229.664 254.296 -217.939C216.282 -201.305 188.667 -166.875 187.152 -134.215C185.976 -107.918 183.223 -46.3328 193.827 -11.3194L193.843 -11.2599C194.566 -3.6497 199.097 1.16821 207.313 3.06155C217.293 5.36294 232.882 3.28749 252.392 -2.93677C270.309 -8.65548 290.965 -17.6294 312.117 -28.8907C356.089 -52.3021 392.251 -80.0762 404.247 -99.6514C432.094 -141.678 419.802 -183.481 404.827 -222.7C397.816 -241.813 384.724 -257.102 370.658 -262.605C364.505 -265.014 358.407 -265.452 352.743 -263.934L352.737 -263.94Z" fill="white"/>
    </g>
</svg>
    