<svg class="shared-nav-ps-logo" xmlns="http://www.w3.org/2000/svg" viewBox="4.3 9.5 41.10000000000001 31" width="2500" height="1461"><path d="M5.8 32.1c-1.5 1-1 2.9 2.2 3.8 3.3 1.1 6.9 1.4 10.4.8.2 0 .4-.1.5-.1v-3.4l-3.4 1.1c-1.3.4-2.6.5-3.9.2-1-.3-.8-.9.4-1.4l6.9-2.4V27l-9.6 3.3c-1.2.4-2.4 1-3.5 1.8zm23.2-15v9.7c4.1 2 7.3 0 7.3-5.2 0-5.3-1.9-7.7-7.4-9.6C26 11 23 10.1 20 9.5v28.9l7 2.1V16.2c0-1.1 0-1.9.8-1.6 1.1.3 1.2 1.4 1.2 2.5zm13 12.7c-2.9-1-6-1.4-9-1.1-1.6.1-3.1.5-4.5 1l-.3.1v3.9l6.5-2.4c1.3-.4 2.6-.5 3.9-.2 1 .3.8.9-.4 1.4l-10 3.7V40L42 34.9c1-.4 1.9-.9 2.7-1.7.7-1 .4-2.4-2.7-3.4z" fill="currentColor"/></svg>