<svg version="1.2" xmlns="http://www.w3.org/2000/svg" viewBox="0 0 167 55" width="167" height="55"><defs><clipPath clipPathUnits="userSpaceOnUse" id="cp1"><path d="m-685-163h1536v1261h-1536z"/></clipPath></defs><style>tspan{white-space:pre}.a{font-size: 33px;fill: #f7f9f6;font-weight: 300;font-family: "Poppins-Light", "Poppins"}.b{fill:#f7f9f6}</style><g clip-path="url(#cp1)"><text style="transform:matrix(1,0,0,1,56.343,43)" ><tspan x="0" y="0" class="a">Kalio.io
</tspan></text><path fill-rule="evenodd" class="b" d="m54.2 0h0.4v2.2c0 5.2-0.5 11.1-1.3 15.9-0.6 3.3-1.1 5.1-2 6.9-2 4.1-5.2 6.5-9.9 7.5-1.3 0.3-4.6 0.4-6.4 0.2-2.5-0.2-5.2-0.8-7.9-1.8-0.8-0.2-1.5-0.4-1.5-0.4-0.1 0 0 0.5 0.1 1.2 1 5.7 1.6 12.1 1.5 15.7-0.1 2.7-0.4 4.4-1.1 5.7-0.3 0.7-1.1 1.6-1.4 1.6 0 0-0.3-0.4-0.6-0.8l-0.4-0.9 0.3-0.3c1-1.1 1.4-5.6 1-11.3-0.3-3.4-1.2-10-1.4-10-0.1 0-0.5 0.3-0.9 0.6-2.4 1.7-4.9 2.9-7.2 3.3-1.1 0.2-3.1 0.2-4.1-0.1-2.1-0.6-3.9-1.9-5.4-4-0.9-1.3-2.4-4.2-3.6-6.9-0.7-1.5-1.9-4.7-2.2-5.7l-0.2-0.6h0.3c2.9-0.6 9-0.9 12.5-0.6 4 0.3 7 1.5 9.1 3.5l0.8 0.8 0.1-0.8c0.5-5.1 3.5-9.6 8.5-12.9 4.5-2.9 12.7-5.9 20.6-7.6 1.1-0.2 2.1-0.4 2.3-0.4zm-1.7 2.4c-0.3 0-4.2 1-5.4 1.3-4.4 1.2-9.6 3.2-12.5 4.7-6.5 3.5-9.8 8.3-9.8 14.1 0 1.2 0.2 3.3 0.4 3.6 0 0.1 0.3-0.3 0.9-1 1-1.6 2.7-3.4 4.1-4.3 0.6-0.4 2.5-1.3 4.2-2.2 3.9-1.9 5.2-2.7 7.3-4.5l0.8-0.7 0.7 0.7 0.7 0.8-0.7 0.5c-0.9 0.9-2.8 2.3-4.1 3.1-0.6 0.3-2.4 1.2-3.9 2-1.6 0.8-3.2 1.6-3.8 2-1.1 0.7-2.7 2.4-3.5 3.6-0.9 1.3-1.5 2.3-1.4 2.4 0.4 0.4 4.7 1.6 6.6 1.9 2.8 0.5 6.1 0.5 8.1 0.1q7.4-1.6 9.4-9.5c0.6-2.3 1.3-7.3 1.6-11 0.2-1.7 0.3-5.8 0.3-6.9 0-0.4 0-0.7 0-0.7zm-47.4 17c-2 0.2-2.3 0.2-2.3 0.4 0 0.4 1.7 4.4 2.8 6.6 2 3.9 3.2 5.3 5.1 6.3 0.8 0.4 1.2 0.5 2.2 0.6 2.5 0.4 5.9-0.9 9.1-3.3 0.8-0.6 0.8-0.9 0.2-1.5-0.8-0.9-2.7-1.6-5.3-2-0.9-0.1-4.3-0.3-5.4-0.3-0.1 0-0.1-0.3-0.1-1v-1.1h0.4c1 0 4.1 0.3 5.2 0.4 2.1 0.3 4.2 0.9 5.3 1.5 0.2 0.2 0.5 0.3 0.5 0.2 0 0-0.1-0.4-0.3-0.9-1.3-3.2-4.3-5.2-8.8-5.8-1.1-0.1-7.2-0.2-8.6-0.1z"/></g></svg>