<svg xmlns="http://www.w3.org/2000/svg" width="2500" height="1305" viewBox="0 0 53.396 27.868"><path d="M9.906.346v7.993H6.055V.346H.368v21h5.687v-8.132h3.851v8.132h5.688v-21zM42.062 0a10.783 10.783 0 0 0-9.75 6.175 7.247 7.247 0 0 0-.062-.641C31.5.355 26.188.346 26.188.346H16.75v21h10c2.438 0 5.562-2.5 5.562-5.625 0-.119-.003-.235-.009-.349a10.784 10.784 0 0 0 9.759 6.195c5.956 0 10.783-4.828 10.783-10.784S48.018 0 42.062 0z"/><circle cx="51.688" cy="1.534" r="1.272"/><path d="M45.519 27.648h1.667c.858 0 1.314-.458 1.314-1 0-.58-.445-.736-.699-.826.425-.175.516-.485.516-.707 0-.461-.37-.854-1.094-.854h-1.705v3.387zM0 24.263h.604v3.386H0zM3.648 24.268H.895v.495h1.074v2.885h.605v-2.885h1.074zM20.515 24.268h-2.753v.495h1.074v2.885h.605v-2.885h1.074zM25.39 24.268h-2.753v.495h1.074v2.885h.605v-2.885h1.074zM4.594 24.784v-.521h-.521v.881zM4.914 27.085c.019.027.473.667 1.461.667 1.055 0 1.438-.648 1.438-1.083 0-.652-.678-.844-1.342-.945-.963-.147-1.043-.353-1.043-.534 0-.313.347-.646.989-.646.679 0 .985.42.998.438l.359-.249c-.018-.026-.44-.626-1.357-.626-.927 0-1.427.559-1.427 1.083 0 .659.68.854 1.415.966.971.148.971.395.971.513 0 .26-.266.646-1 .646-.762 0-1.098-.474-1.101-.479l-.361.249zM31.367 24.263h.604v3.386h-.604zM44.224 24.263v1.39h-1.677v-1.39h-.604v3.385h.604v-1.39h1.677v1.39h.604v-3.385zM35.015 24.268h-2.753v.495h1.074v2.885h.605v-2.885h1.074zM35.961 24.784v-.521h-.521v.881zM36.281 27.085c.019.027.473.667 1.461.667 1.055 0 1.438-.648 1.438-1.083 0-.652-.678-.844-1.342-.945-.963-.147-1.043-.353-1.043-.534 0-.313.347-.646.989-.646.679 0 .985.42.998.438l.359-.249c-.018-.026-.44-.626-1.357-.626-.927 0-1.427.559-1.427 1.083 0 .659.68.854 1.415.966.971.148.971.395.971.513 0 .26-.266.646-1 .646-.762 0-1.098-.474-1.101-.479l-.361.249zM10.548 27.648v-3.385l2.348 2.288v-2.288h.5v3.475l-2.323-2.284v2.194z"/><circle cx="15.781" cy="25.961" r="1.842"/><circle cx="50.69" cy="25.961" r="1.842"/><path d="M27.25 26.527l-1.046-2.264h-.545l1.591 3.445 1.591-3.445h-.546z"/><circle cx="28.359" cy="27.581" r=".287"/><circle cx="53.109" cy="27.581" r=".287"/><path d="M24.938 16.596H22.25v-3.625h2.875s1.625.062 1.625 1.75-1.062 1.875-1.812 1.875zM25.027 8.659H22.25V5.034h2.965s1.625.062 1.625 1.75-1.302 1.875-1.813 1.875zM29.375 10.721s1.134-.285 1.996-1.325c-.058.455-.092.917-.092 1.388 0 .619.055 1.225.155 1.815-.865-1.343-2.059-1.878-2.059-1.878z" fill="#fff"/><circle cx="42.062" cy="10.784" r="5.48" fill="#fff"/><circle cx="42.062" cy="10.784" r="4.154"/><circle cx="51.687" cy="1.534" r="1.085" fill="#fff"/><path d="M51.346 1.637h.485c.24 0 .265.143.265.266 0 .056.006.282.035.372h.245v-.032c-.062-.035-.072-.066-.074-.149l-.012-.27c-.008-.208-.092-.245-.177-.28.094-.056.206-.136.206-.354 0-.312-.244-.397-.487-.397h-.684v1.48h.199v-.636z"/><path d="M46.039 24.655h.952c.584 0 .807.179.807.494 0 .414-.309.545-.812.545h-.947v-1.039zM46.039 26.069h1.033c.427 0 .908.094.908.57 0 .377-.276.617-.822.617h-1.119v-1.187z" fill="#fff"/><circle cx="15.781" cy="25.961" r="1.31" fill="#fff"/><circle cx="50.69" cy="25.961" r="1.31" fill="#fff"/><path d="M51.346.965h.5c.099 0 .266.019.266.246 0 .217-.155.254-.301.254h-.464v-.5z" fill="#fff"/></svg>