<svg width="177" height="152" viewBox="0 0 177 152" fill="none"
    xmlns="http://www.w3.org/2000/svg">
    <path d="M68.7264 141.255C66.3702 141.886 64.0817 142.441 61.8729 142.916C49.7464 145.525 40.4093 145.687 34.1209 143.398C27.6873 141.057 24.6284 136.172 25.0281 128.879C26.2426 106.74 29.4055 92.3723 31.4983 82.8657C32.4403 78.5868 33.1844 75.2066 33.3965 72.6499C33.7487 68.395 38.3546 61.6376 45.4156 55.0137C53.0148 47.886 61.7439 42.4637 69.366 40.1375C79.878 36.9294 90.5874 30.7881 97.7199 26.201C106.029 20.8576 114.401 14.434 120.117 9.01748C123.806 5.52069 128.205 4.25676 132.836 5.36198C140.856 7.27622 148.536 16.0307 152.88 28.2081C154.938 33.9798 157.067 39.9488 158.756 45.8064C160.624 52.283 161.734 57.9237 162.151 63.0504C162.649 69.1719 162.199 74.7417 160.776 80.0768C159.187 86.0335 156.429 91.5699 152.343 97.003C145.367 106.282 122.976 120.248 97.8943 130.965C87.6335 135.349 77.6883 138.853 68.7262 141.254L68.7264 141.255ZM126.414 5.66746C124.236 6.25122 122.177 7.43978 120.304 9.21555C114.577 14.6437 106.189 21.0787 97.8676 26.4303C90.7205 31.026 79.9876 37.181 69.4452 40.3982C61.8623 42.713 53.171 48.1121 45.6013 55.2131C38.5873 61.7925 34.0142 68.4831 33.6672 72.6738C33.4537 75.2496 32.7078 78.6369 31.7638 82.9257C29.6725 92.4243 26.5133 106.778 25.2996 128.896C24.9071 136.055 27.9061 140.848 34.2142 143.144C40.4535 145.415 49.7401 145.249 61.8163 142.652C72.407 140.375 84.8456 136.247 97.7876 130.717C122.831 120.017 145.176 106.087 152.127 96.8419C156.191 91.437 158.934 85.9318 160.514 80.0084C161.929 74.7035 162.377 69.1642 161.881 63.0741C160.952 51.648 156.718 39.7792 152.625 28.3009C148.312 16.2087 140.706 7.52063 132.773 5.62794C130.583 5.10491 128.446 5.12394 126.415 5.66833L126.414 5.66746Z" fill="black"/>
    <path d="M69.0027 136.451C67.1389 136.95 65.3237 137.396 63.5628 137.787C52.4579 140.248 43.9099 140.458 38.1541 138.411C32.3361 136.342 29.5431 131.985 29.8526 125.46C30.6423 105.748 33.3228 92.0886 35.096 83.0508C35.9285 78.8078 36.5857 75.4565 36.7863 72.871C37.1119 68.6917 41.3324 62.2417 47.8008 56.037C54.7272 49.393 62.8291 44.2746 70.0291 41.9932C79.713 38.9863 89.5934 33.3931 96.1762 29.2315C103.91 24.3418 111.449 18.699 116.859 13.7481C120.274 10.6245 124.329 9.53143 128.587 10.587C135.977 12.4189 143.04 20.4744 147.018 31.6116C150.782 42.1151 154.675 52.9766 155.532 63.6813C155.983 69.3196 155.567 74.4544 154.259 79.3784C152.8 84.8711 150.273 89.9785 146.536 94.9924C140.147 103.621 119.6 116.627 96.5719 126.621C86.855 130.838 77.4394 134.191 69.0021 136.452L69.0027 136.451ZM122.491 10.8435C120.55 11.3635 118.713 12.3991 117.032 13.9359C111.611 18.8961 104.06 24.55 96.3136 29.4466C89.717 33.6166 79.8161 39.2209 70.1065 42.2365C62.9427 44.5064 54.8772 49.6029 47.9785 56.2207C41.5533 62.3839 37.3629 68.7715 37.0418 72.8906C36.8406 75.4912 36.1813 78.8487 35.348 83.0995C33.5758 92.1304 30.8984 105.777 30.1095 125.471C29.8061 131.871 32.5416 136.143 38.2415 138.171C43.9506 140.201 52.4519 139.987 63.509 137.537C73.2257 135.384 84.6241 131.527 96.4722 126.385C119.464 116.408 139.967 103.436 146.332 94.839C150.051 89.8515 152.564 84.7724 154.014 79.3119C155.315 74.4161 155.729 69.3101 155.279 63.7003C154.425 53.0287 150.538 42.1834 146.779 31.6953C142.828 20.6377 135.835 12.6443 128.526 10.8328C126.448 10.3179 124.418 10.3261 122.491 10.8426L122.491 10.8435Z" fill="black"/>
    <path d="M69.2972 131.651C67.917 132.021 66.5682 132.357 65.2515 132.66C55.1685 134.974 47.4084 135.232 42.187 133.427C36.9845 131.629 34.4581 127.798 34.6787 122.04C35.0498 104.628 37.1776 92.1629 38.7314 83.0621C39.4367 78.9318 39.993 75.6694 40.1783 73.0899C40.4819 68.9229 44.224 62.9299 50.1882 57.0579C56.4447 50.8979 63.9193 46.0833 70.6947 43.8473C86.7452 38.7617 105.149 25.8888 113.604 18.4775C116.745 15.727 120.457 14.8044 124.341 15.8102C131.101 17.56 137.545 24.9177 141.159 35.0119C144.428 44.0828 148.133 54.3644 148.914 64.3099C149.319 69.4653 148.937 74.1647 147.744 78.6775C146.416 83.7064 144.121 88.3843 140.73 92.9795C137.819 96.9826 131.811 101.958 123.357 107.365C115.237 112.56 105.254 117.855 95.2504 122.277C86.0836 126.328 77.201 129.534 69.298 131.651L69.2972 131.651ZM118.561 16.0168C116.86 16.4726 115.245 17.3558 113.76 18.6566C105.291 26.0811 86.8518 38.9776 70.7676 44.0741C64.0268 46.299 56.586 51.0932 50.3547 57.2278C44.4313 63.0598 40.7153 68.9962 40.4153 73.1069C40.2294 75.6978 39.6716 78.9653 38.9653 83.1024C37.4133 92.1962 35.2876 104.652 34.916 122.048C34.7001 127.69 37.1725 131.442 42.2646 133.202C47.4435 134.992 55.1588 134.732 65.1976 132.427C74.0398 130.397 84.3992 126.811 95.1526 122.059C105.147 117.642 115.117 112.352 123.227 107.164C131.655 101.773 137.641 96.8194 140.536 92.8386C143.91 88.2676 146.192 83.6156 147.512 78.6172C148.697 74.1306 149.078 69.4569 148.675 64.3291C147.896 54.4156 144.197 44.1495 140.932 35.0932C137.344 25.0726 130.964 17.7719 124.279 16.0413C122.31 15.5312 120.386 15.5279 118.56 16.017L118.561 16.0168Z" fill="black"/>
    <path d="M69.6139 126.858C68.7052 127.102 67.8136 127.328 66.9361 127.538C57.8748 129.706 50.9039 130.012 46.2162 128.449C41.6302 126.919 39.3719 123.613 39.5035 118.622C39.4542 103.35 41.1584 91.4653 42.403 82.7883C42.9393 79.0488 43.4024 75.8198 43.5689 73.31C43.8463 69.2166 47.2129 63.5227 52.5733 58.0805C58.1637 52.4051 65.0107 47.8927 71.3585 45.7019C77.7077 43.6419 85.2219 40.0419 93.0911 35.2902C99.4072 31.4763 105.696 27.0721 110.347 23.2072C113.214 20.8281 116.585 20.0763 120.098 21.0346C126.225 22.7057 132.049 29.3651 135.297 38.4146C138.74 47.9035 141.643 56.4498 142.295 64.9409C142.653 69.6132 142.304 73.8786 141.227 77.9801C140.029 82.5441 137.966 86.7937 134.921 90.9702C132.287 94.6704 126.864 99.2565 119.239 104.232C111.943 108.992 102.953 113.861 93.9236 117.941C85.3135 121.831 76.9718 124.889 69.6129 126.861L69.6139 126.858ZM114.624 21.1855C113.164 21.5766 111.775 22.3094 110.488 23.3773C105.83 27.2489 99.5306 31.6605 93.2056 35.4796C85.3218 40.2399 77.792 43.8479 71.4288 45.9116C65.1145 48.0915 58.2987 52.5835 52.732 58.2356C47.4077 63.641 44.0646 69.2827 43.7911 73.3245C43.6242 75.8428 43.1603 79.0758 42.6231 82.8192C41.3795 91.4894 39.6765 103.364 39.7262 118.624C39.5973 123.51 41.8043 126.744 46.2871 128.238C50.9358 129.788 57.8658 129.48 66.8858 127.322C74.8552 125.414 84.1738 122.101 93.8339 117.735C102.854 113.66 111.833 108.798 119.119 104.043C126.721 99.0832 132.123 94.5167 134.742 90.8374C137.772 86.6829 139.822 82.4581 141.014 77.9212C142.084 73.8439 142.431 69.6025 142.075 64.9558C141.425 56.4932 138.527 47.9625 135.09 38.4879C131.865 29.5051 126.099 22.8987 120.04 21.2467C118.176 20.7384 116.352 20.7216 114.625 21.1842L114.624 21.1855Z" fill="black"/>
    <path d="M69.9597 122.076C69.5076 122.197 69.0606 122.313 68.617 122.424C60.5776 124.445 54.3949 124.8 50.2404 123.478C46.2714 122.215 44.2817 119.432 44.328 115.203C43.8366 101.87 45.1496 90.408 46.1083 82.0389C46.4884 78.7207 46.8172 75.8546 46.9584 73.5304C47.214 69.4466 50.1302 64.1881 54.9582 59.103C59.888 53.911 66.1068 49.7027 72.0216 47.5577C83.828 43.6177 98.4753 34.6248 107.089 27.937C109.684 25.9267 112.717 25.3464 115.859 26.2588C121.351 27.8537 126.554 33.8141 129.435 41.8154C132.394 49.9001 135.096 57.8003 135.675 65.5691C135.988 69.7574 135.672 73.5885 134.711 77.2787C133.643 81.3788 131.812 85.1982 129.115 88.9566C126.757 92.3541 121.918 96.5535 115.121 101.098C108.65 105.425 100.651 109.867 92.597 113.606C84.5525 117.339 76.7607 120.253 69.96 122.077L69.9597 122.076ZM110.675 26.3487C109.461 26.674 108.3 27.2587 107.216 28.0979C98.5887 34.7959 83.9163 43.8038 72.0901 47.7501C66.2068 49.8838 60.0167 54.0732 55.1084 59.2435C50.3125 64.2948 47.4175 69.5063 47.1651 73.5425C47.0233 75.8715 46.6943 78.7405 46.314 82.0616C45.3554 90.424 44.0438 101.877 44.5344 115.201C44.4896 119.333 46.4306 122.05 50.3042 123.282C54.4218 124.593 60.5667 124.237 68.5683 122.225C75.6639 120.439 83.9441 117.396 92.5111 113.418C100.555 109.683 108.545 105.248 115.007 100.927C121.784 96.3955 126.604 92.2154 128.948 88.8374C131.632 85.0994 133.452 81.3017 134.513 77.2268C135.469 73.5586 135.782 69.7497 135.472 65.5842C134.895 57.8411 132.197 49.9556 129.244 41.8854C126.384 33.9447 121.235 28.0328 115.804 26.4561C114.04 25.9436 112.31 25.9125 110.676 26.3503L110.675 26.3487Z" fill="black"/>
    <path d="M70.3456 117.306L70.2958 117.319C63.2785 119.195 57.8839 119.598 54.263 118.518C50.9103 117.519 49.1914 115.253 49.1543 111.784C48.1597 100.162 49.1263 88.8067 49.8322 80.5157C50.0533 77.9191 50.2446 75.6771 50.3514 73.749C50.5811 69.733 53.1311 64.7665 57.3457 60.1239C61.621 55.4145 67.2132 51.5089 72.6878 49.4107C77.775 47.6542 83.6005 44.9412 90.0066 41.3477C94.825 38.6442 99.8649 35.4795 103.835 32.6642C106.16 31.0212 108.855 30.6128 111.632 31.4836C116.487 33.0057 121.063 38.2675 123.575 45.2157C126.073 51.9683 128.552 59.151 129.058 66.1976C129.323 69.903 129.042 73.2979 128.196 76.5789C127.259 80.2141 125.66 83.6051 123.308 86.9439C119.184 93.0806 106.306 102.057 91.267 109.279C83.8023 112.864 76.5693 115.638 70.3456 117.306ZM106.708 31.5037C105.744 31.7622 104.816 32.2018 103.943 32.8189C99.9681 35.6373 94.9211 38.8067 90.0976 41.5125C83.6826 45.1112 77.846 47.8281 72.7512 49.5876C67.3064 51.675 61.7409 55.5612 57.4846 60.2506C53.2983 64.8622 50.7669 69.7862 50.5389 73.7596C50.4317 75.6897 50.2408 77.9335 50.0192 80.5311C49.3133 88.8155 48.3479 100.161 49.3419 111.774C49.3787 115.158 51.0522 117.363 54.3164 118.336C57.9036 119.405 63.2634 119.002 70.2466 117.136L70.2964 117.123C76.5088 115.458 83.7297 112.688 91.1845 109.107C106.196 101.898 119.042 92.948 123.151 86.8351C125.491 83.5136 127.08 80.1429 128.012 76.5298C128.852 73.27 129.133 69.8942 128.869 66.2099C128.366 59.188 125.89 52.0202 123.398 45.2793C120.904 38.385 116.374 33.167 111.575 31.6628C109.902 31.138 108.257 31.0878 106.71 31.5024L106.708 31.5037Z" fill="black"/>
    <path d="M70.7595 112.567C65.3509 114.016 61.1562 114.357 58.2796 113.577C55.5443 112.836 54.0975 111.085 53.9788 108.372C52.3323 98.2421 53.0241 86.4032 53.5291 77.7577C53.608 76.4009 53.6829 75.1202 53.7411 73.9694C53.9493 69.9572 56.0767 65.4037 59.7307 61.1464C63.4158 56.8546 68.2527 53.3453 73.3508 51.2656C76.9164 49.9805 86.7003 46.0598 100.578 37.3939C102.637 36.1156 105 35.8793 107.414 36.7133C111.625 38.1674 115.571 42.7288 117.713 48.6167C119.774 54.1133 122.008 60.5066 122.438 66.8269C122.893 73.5068 121.277 79.4283 117.5 84.9317C115.694 87.729 112.02 91.1579 106.879 94.8471C101.983 98.3603 96.1229 101.859 89.9338 104.964C83.5422 108.171 77.3304 110.684 71.9695 112.231C71.5597 112.349 71.1557 112.461 70.7586 112.568L70.7595 112.567ZM102.718 36.6455C102.009 36.8353 101.324 37.1343 100.67 37.5398C98.4496 38.9262 93.9217 41.6783 88.5437 44.529C82.8974 47.5227 77.8075 49.8428 73.4134 51.4258C68.3433 53.4943 63.5298 56.9861 59.8628 61.2581C56.2338 65.4862 54.1209 70.003 53.9147 73.9772C53.8565 75.128 53.7818 76.4096 53.7032 77.7672C53.1983 86.4062 52.507 98.2365 54.1517 108.349L54.1526 108.359C54.2655 110.991 55.6695 112.691 58.3258 113.41C61.3399 114.227 66.042 113.762 71.9231 112.064C77.2743 110.52 83.4752 108.012 89.8577 104.81C96.0384 101.708 101.891 98.2144 106.781 94.7068C111.905 91.0306 115.562 87.6174 117.358 84.8366C121.114 79.3653 122.719 73.4784 122.268 66.8397C121.839 60.5423 119.61 54.1628 117.553 48.6782C115.428 42.8364 111.523 38.3155 107.36 36.8777C105.765 36.3263 104.192 36.2524 102.72 36.6468L102.718 36.6455Z" fill="black"/>
    <path d="M71.3514 107.839C67.511 108.868 64.4083 109.155 62.2931 108.667C60.1689 108.177 58.9955 106.929 58.8046 104.957C56.1491 96.1769 56.838 80.7693 57.1314 74.1886C57.5127 65.9668 64.4556 57.3028 74.0146 53.1202C81.7196 50.1902 90.5086 45.6454 95.7599 42.9307C96.3174 42.6427 96.8411 42.3722 97.3245 42.1228C99.1209 41.204 101.161 41.1454 103.221 41.9516C106.778 43.3437 110.085 47.2008 111.852 52.0183C113.714 56.8946 115.484 62.1396 115.819 67.4568C116.177 73.1306 114.828 78.1883 111.693 82.9201C108.682 87.8338 99.6186 94.7995 88.6017 100.664C83.3044 103.484 78.1323 105.732 73.6445 107.164C72.8543 107.416 72.0889 107.642 71.3508 107.84L71.3514 107.839ZM98.6844 41.765C98.2427 41.8833 97.8128 42.0491 97.3956 42.262C96.9119 42.5106 96.3891 42.7809 95.8319 43.0697C90.5781 45.7859 81.7844 50.3339 74.0742 53.2653C64.5705 57.4238 57.6669 66.0314 57.2881 74.1963C56.9939 80.7706 56.3058 96.1668 58.9568 104.92L58.9608 104.935C59.1416 106.838 60.2742 108.042 62.3284 108.515C64.8232 109.091 68.7206 108.572 73.5981 107.016C78.0773 105.586 83.2412 103.343 88.5294 100.527C99.5223 94.6745 108.563 87.731 111.562 82.8372C118.524 72.3304 115.45 61.8796 111.707 52.075C109.954 47.2967 106.681 43.4746 103.165 42.0987C101.626 41.4965 100.102 41.3871 98.6858 41.7665L98.6844 41.765Z" fill="black"/>
    <path d="M72.0393 103.192C69.6919 103.821 67.7348 104.046 66.3157 103.816C64.7876 103.567 63.8847 102.804 63.6326 101.548C62.2311 99.34 61.2707 95.1924 60.7765 89.2198C60.4166 84.8682 60.3238 79.47 60.5227 74.4086C60.854 66.2863 66.1461 59.0219 74.6796 54.9754C77.7181 53.7351 80.8637 52.3799 83.9059 51.0693C87.8406 49.3743 91.5571 47.7743 94.0714 46.8515C96.1903 46.0833 98.614 46.6028 100.896 48.3133C103.059 49.9348 104.915 52.5246 105.991 55.4188C108.576 62.0104 109.064 65.6506 109.201 68.0856C109.463 72.751 108.378 76.9455 105.886 80.9074C103.418 85.2336 96.2918 91.1651 87.287 96.384C81.5351 99.718 76.18 102.084 72.0396 103.193L72.0393 103.192ZM94.5796 46.838C94.4248 46.8795 94.2719 46.928 94.1197 46.9828C91.6087 47.9038 87.8948 49.5031 83.9618 51.1976C80.9187 52.5084 77.7721 53.863 74.7361 55.1026C66.2543 59.125 60.9913 66.3441 60.6627 74.4132C60.4644 79.4698 60.5564 84.8617 60.9158 89.2078C61.4084 95.1676 62.3653 99.2984 63.7578 101.483L63.7646 101.495L63.7679 101.507C64.0033 102.707 64.8674 103.438 66.3378 103.678C70.2294 104.312 78.2299 101.471 87.216 96.2626C96.2006 91.0556 103.308 85.1442 105.766 80.8357C108.243 76.8973 109.32 72.7302 109.061 68.0942C108.801 63.4786 107.214 58.9229 105.86 55.47C104.793 52.5984 102.953 50.0314 100.811 48.4258C98.7328 46.8679 96.539 46.3139 94.5799 46.8389L94.5796 46.838Z" fill="black"/>
    <path d="M72.9257 98.7026C71.9549 98.9627 71.1117 99.0941 70.4274 99.0835C69.4265 99.067 68.7677 98.7527 68.4697 98.1479C66.3491 97.2653 65.2333 92.6395 64.6703 88.908C64.0357 84.6993 63.7527 79.3614 63.9128 74.627C64.0556 70.5527 65.0282 67.147 66.8866 64.2138C68.7847 61.2184 71.5507 58.8035 75.3431 56.8292C81.1822 54.1987 87.2569 52.1392 90.8214 51.5812C92.5588 51.3171 94.494 51.9693 96.2701 53.4163C97.9312 54.7705 99.3382 56.7398 100.129 58.8198C102.357 64.2754 104.364 71.4863 100.078 78.8941C98.1705 82.6048 92.9347 87.5397 86.0746 92.0904C81.0612 95.4166 76.2484 97.8123 72.9248 98.7028L72.9257 98.7026ZM87.8004 52.3729C84.316 53.3066 79.7902 54.9613 75.3981 56.9399C71.6285 58.9016 68.8785 61.3029 66.9922 64.2791C65.1456 67.1932 64.1788 70.5787 64.0373 74.6301C63.7366 83.4785 64.9349 96.5915 68.5387 98.0414L68.5608 98.0505L68.5713 98.072C68.8419 98.6448 69.4673 98.9427 70.4295 98.9584C73.4348 99.0074 79.5492 96.2704 86.0072 91.9857C92.8506 87.4461 98.0715 82.5292 99.9711 78.8329C104.231 71.4695 102.232 64.2929 100.015 58.8634L100.015 58.8617C99.2309 56.8013 97.8372 54.85 96.1919 53.5094C94.4432 52.0841 92.5427 51.4422 90.8403 51.7007C89.9649 51.8379 88.9378 52.0663 87.7999 52.3712L87.8004 52.3729Z" fill="black"/>
    <path d="M74.3449 94.6405C73.9259 94.7527 73.5854 94.7868 73.3379 94.7342C72.6662 95.0228 72.0233 94.9638 71.4271 94.5615C69.6822 93.3844 68.6806 89.5522 68.1472 86.5433C67.5125 82.9641 67.1984 78.5908 67.3055 74.8447C67.4289 70.6071 68.0363 67.6438 69.2752 65.2353C70.5959 62.6672 72.7367 60.5847 76.0102 58.682C79.8015 56.707 84.3415 55.7771 87.5773 56.3122C90.4813 56.8051 93.2608 59.702 94.2696 62.2181C96.5287 67.3712 96.5297 72.3041 94.2738 76.878C93.4728 78.7168 92.0158 80.8006 89.9458 83.0702C88.1531 85.0351 85.9461 87.0801 83.5605 88.9838C79.8268 91.9643 76.2668 94.1236 74.3453 94.6385L74.3449 94.6405ZM73.3268 94.6229L73.3438 94.6268C73.5817 94.682 73.9123 94.6496 74.3208 94.5401C78.5504 93.4068 91.0731 83.9539 94.1751 76.8352C96.4176 72.2883 96.4156 67.3865 94.1691 62.2628L94.1686 62.2611C93.1708 59.772 90.425 56.9063 87.5574 56.4196C84.3431 55.8881 79.8292 56.8138 76.0592 58.7775C72.8059 60.6683 70.679 62.7358 69.3674 65.2856C68.1366 67.6787 67.5329 70.6279 67.4096 74.8486C67.3027 78.5882 67.6173 82.9529 68.2504 86.526C68.7802 89.5142 69.7713 93.3183 71.4843 94.4741C72.0529 94.8575 72.667 94.9102 73.3089 94.6296L73.3248 94.6225L73.3268 94.6229Z" fill="black"/>
    <path d="M76.4552 92.4621C76.0363 92.5744 75.6278 92.5508 75.232 92.389C74.2398 91.9852 72.8285 90.4929 71.7362 85.6819C71.0042 82.4565 70.6149 78.4884 70.6944 75.0662C70.7881 71.022 70.9002 68.4106 71.6595 66.2627C72.4448 64.0404 73.8969 62.3822 76.6731 60.5406C78.2028 59.5256 79.8335 59.2338 81.5186 59.6731C85.1622 60.6244 87.9185 64.6701 88.4056 65.6204C89.3154 67.396 89.5654 69.5742 89.1478 72.0951C88.7881 74.2651 87.9362 76.6935 86.6148 79.3152C84.2265 84.0529 80.6925 88.6077 78.1819 91.2904C77.5909 91.9218 77.0134 92.3135 76.4554 92.463L76.4552 92.4621ZM78.5953 59.752C77.9569 59.9231 77.3326 60.2102 76.7231 60.6152C73.9654 62.4453 72.5228 64.0898 71.7444 66.2924C70.9903 68.4286 70.8781 71.0325 70.7849 75.0681C70.64 81.3074 72.1521 91.0366 75.266 92.3059C76.15 92.6666 77.1084 92.304 78.1148 91.2288C80.621 88.551 84.1488 84.0044 86.5326 79.2745C87.8498 76.6614 88.6992 74.2412 89.0566 72.0801C89.471 69.5788 89.2242 67.4195 88.324 65.662C87.8407 64.719 85.1055 60.7032 81.4943 59.7611C80.5057 59.5033 79.5358 59.501 78.5938 59.7534L78.5953 59.752Z" fill="black"/>
</svg>
    