<svg width="300" height="264" viewBox="0 0 300 264" fill="none"
    xmlns="http://www.w3.org/2000/svg">
    <g opacity="0.1">
        <path d="M29.2618 247.919C16.1382 247.529 7.58204 244.309 3.67182 238.261C-1.34594 230.504 1.32965 218.19 11.6241 201.66C22.782 183.746 43.2295 160.254 72.4034 131.849C111.025 94.2335 148.783 62.3517 184.613 37.0822C215.74 15.1331 246.404 -2.51001 275.758 -15.3492C327.151 -37.8421 367.597 -42.9872 403.657 -45.2035C442.304 -47.5794 475.595 -42.0264 502.592 -28.7014C526.065 -17.1145 544.389 0.0432533 557.056 22.3055C583.442 68.6953 578.625 126.831 558.723 156.241C549.39 170.034 537.238 176.658 524.52 174.875C470.673 167.336 422.792 164.301 378.135 165.595C316.604 167.377 261.957 177.63 215.704 196.057C182.642 209.23 134.242 227.256 91.4192 238.312C64.9096 245.16 44.1428 248.362 29.2547 247.919L29.2618 247.919ZM403.718 -44.1343L403.787 -43.0648C367.927 -40.864 327.697 -35.7412 276.615 -13.3894C247.398 -0.6035 216.859 16.9645 185.848 38.8311C150.106 64.0316 112.443 95.8446 73.8954 133.377C44.8465 161.663 24.503 185.022 13.4353 202.789C3.62151 218.544 0.940325 230.085 5.46585 237.082C13.1496 248.966 42.6893 248.669 90.8878 236.226C133.596 225.195 181.909 207.202 214.913 194.056C261.397 175.536 316.296 165.233 378.071 163.444C422.842 162.146 470.844 165.192 524.812 172.749C536.682 174.413 548.088 168.118 556.943 155.042C576.478 126.179 581.158 69.0357 555.187 23.3747C542.738 1.49141 524.72 -15.3779 501.641 -26.7739C474.982 -39.9313 442.061 -45.416 403.786 -43.0577L403.718 -44.1271L403.718 -44.1343Z" fill="white"/>
        <path d="M48.5117 231.764C36.4311 231.405 28.5681 228.441 25.0084 222.869C15.4149 207.877 36.252 175.85 88.711 124.955C157.5 59.9029 223.047 14.4548 283.533 -10.132C332.627 -30.0856 370.143 -33.627 403.374 -34.4732C437.713 -36.2751 467.258 -31.206 491.175 -19.3981C512.077 -9.08407 528.343 6.10694 539.528 25.7677C547.233 39.3144 556.254 61.7764 555.454 91.8195C554.884 113.165 549.136 133.576 539.675 147.816C530.131 162.183 517.652 169.22 504.529 167.619C406.429 156.937 303.445 151.806 215.022 186.293C184.978 198.009 141.258 213.974 103.55 223.499C80.1792 229.402 61.7924 232.158 48.5117 231.764ZM423.471 -32.7081C416.999 -32.9005 410.325 -32.8195 403.45 -32.4579C370.383 -31.614 333.075 -28.095 284.285 -8.26131C224.031 16.232 158.696 61.5432 90.0974 126.422C63.2607 152.453 44.4457 173.945 34.1854 190.289C25.1033 204.762 22.5788 215.361 26.6924 221.781C33.6552 232.662 59.3488 232.58 103.044 221.543C140.651 212.044 184.291 196.104 214.277 184.416C303.106 149.768 406.375 154.901 504.746 165.612C517.093 167.118 528.883 160.398 537.985 146.699C547.237 132.768 552.866 112.74 553.425 91.7664C553.861 75.4384 551.501 50.9107 537.767 26.7684C526.786 7.46482 510.813 -7.45961 490.278 -17.5908C471.441 -26.8836 449.032 -31.9483 423.464 -32.7083L423.471 -32.7081Z" fill="white"/>
        <path d="M67.7464 215.636C56.6946 215.308 49.5317 212.602 46.3154 207.506C37.6628 193.816 56.8658 164.564 105.018 118.076C170.597 58.0713 233.27 16.6929 291.308 -4.91485C338.529 -22.4956 374.32 -24.2973 403.098 -23.7428C433.159 -24.9841 459.021 -20.3826 479.908 -10.0618C498.258 -0.991337 512.478 12.2834 522.187 29.4001C531.931 46.5679 536.648 66.8387 535.832 88.0268C535.093 107.362 529.791 125.529 520.905 139.178C511.097 154.238 498.182 161.756 484.531 160.355L476.962 159.757C436.301 156.55 390.21 152.916 345.13 154.048C293.537 155.351 250.752 162.704 214.325 176.53C175.02 191.444 141.821 202.271 115.66 208.693C95.4267 213.665 79.4199 215.976 67.7537 215.629L67.7464 215.636ZM418.79 -21.9582C413.703 -22.1094 408.482 -22.0711 403.12 -21.8508C374.457 -22.402 338.888 -20.608 291.963 -3.14022C234.156 18.3884 171.687 59.6368 106.307 119.461C59.5755 164.573 39.921 193.862 47.9112 206.5C54.0436 216.21 76.6851 216.332 115.206 206.867C141.303 200.457 174.422 189.657 213.655 174.769C250.278 160.864 293.271 153.473 345.078 152.162C390.259 151.026 436.4 154.661 477.111 157.877L484.701 158.476C497.647 159.799 509.924 152.584 519.327 138.149C527.905 124.979 533.233 106.683 533.954 87.9638C534.752 67.1262 530.117 47.1945 520.551 30.34C511.032 13.5586 497.075 0.542414 479.071 -8.36021C462.18 -16.7139 441.958 -21.2695 418.79 -21.9582Z" fill="white"/>
        <path d="M86.9205 199.622C76.9189 199.324 70.5076 196.834 67.6073 192.17C59.903 179.777 77.4721 153.291 121.332 111.203C183.745 56.1984 243.544 18.8967 299.089 0.316891C344.928 -15.0196 378.58 -14.8647 402.786 -13.0061C464.808 -14.6944 492.654 11.2071 505.084 33.2402C513.48 48.1185 517.409 65.7797 516.451 84.3058C515.576 101.251 510.621 117.588 502.506 130.299C492.517 145.949 478.655 154.27 464.54 153.105C454.172 152.604 443.5 152.007 433.185 151.428C357.389 147.198 279.015 142.827 213.642 166.788C151.848 189.423 109.917 200.313 86.9346 199.629L86.9205 199.622ZM388.978 -12.0053C366.388 -12.6767 337.116 -10.5595 299.633 1.98076C244.311 20.4884 184.716 57.6744 122.509 112.499C79.9738 153.323 61.9895 179.825 69.0865 191.24C74.3958 199.772 93.9922 200.104 127.34 192.212C149.649 186.929 177.677 178.077 213.019 165.129C278.732 141.049 357.298 145.433 433.266 149.668C443.581 150.247 454.246 150.836 464.635 151.346C478.337 152.462 491.24 144.657 501.012 129.345C508.961 116.887 513.821 100.855 514.681 84.2102C515.622 66.0131 511.768 48.6837 503.536 34.0968C491.336 12.4789 463.955 -12.9287 402.77 -11.2515L402.677 -11.2542C398.411 -11.5816 393.842 -11.8535 388.963 -11.9986L388.978 -12.0053Z" fill="white"/>
        <path d="M106.202 183.596C97.6866 183.343 91.5547 181.312 88.8412 176.862C82.0853 165.757 98.0422 142.032 137.632 104.323C196.923 54.269 253.848 21.0441 306.849 5.54078C340.751 -4.37648 372.038 -6.9353 402.488 -2.27628C454.829 -2.75504 478.022 18.9748 488.246 37.2959C495.273 49.8769 498.416 64.8784 497.353 80.6719C496.379 95.157 491.841 109.522 484.574 121.126C474.418 137.352 460.243 146.329 445.548 145.893C445.205 145.882 444.862 145.872 444.52 145.848C426.733 145.498 409.05 144.8 391.951 144.135C326.245 141.558 264.188 139.126 212.917 157.031C174.197 170.544 130.492 184.325 106.188 183.603L106.202 183.596ZM378.651 -2.81291C355.826 -3.49138 332.289 -0.20785 307.31 7.1019C254.525 22.5472 197.804 55.6635 138.718 105.537C100.35 142.086 84.0215 165.808 90.2321 176.015C101.324 194.24 182.023 166.085 212.398 155.489C263.951 137.479 326.165 139.923 392.028 142.504C409.119 143.176 426.789 143.866 444.597 144.217C459.079 145.084 473.139 136.346 483.206 120.255C490.33 108.875 494.782 94.78 495.741 80.5595C496.787 65.0807 493.706 50.3962 486.835 38.0922C476.822 20.1498 454.051 -1.13761 402.44 -0.644353L402.311 -0.648175C394.489 -1.85498 386.609 -2.57635 378.651 -2.81291Z" fill="white"/>
        <path d="M125.262 167.593C117.703 167.368 112.366 165.547 110.031 161.595C104.224 151.773 118.59 130.787 153.946 97.4365C210.174 52.2917 264.225 23.1364 314.631 10.7582C355.587 0.699635 384.857 3.94093 402.22 8.44733C445.052 9.11873 463.709 26.8381 471.794 41.5996C482.835 61.7575 481.082 89.2435 467.317 111.623C456.64 128.993 440.732 139.051 424.737 138.576C424.665 138.574 424.601 138.572 424.529 138.57C399.153 138.79 375.556 138.117 352.737 137.474C298.176 135.931 251.059 134.602 212.235 147.253C177.679 158.498 144.379 168.154 125.255 167.585L125.262 167.593ZM371.067 5.76617C328.003 4.48611 254.25 18.821 154.921 98.5687C120.683 130.87 105.995 151.832 111.312 160.838C120.081 175.677 182.015 155.525 211.777 145.836C250.853 133.099 298.084 134.439 352.781 135.986C375.586 136.628 399.169 137.3 424.552 137.08C424.616 137.082 424.681 137.084 424.745 137.086C440.233 137.546 455.647 127.753 466.046 110.84C479.526 88.9107 481.269 62.019 470.478 42.3199C462.577 27.9005 444.301 10.565 402.104 9.94831L402.011 9.94555L401.926 9.92152C394.639 8.0214 384.298 6.15945 371.067 5.76617Z" fill="white"/>
        <path d="M144.512 151.659C137.939 151.464 133.094 149.937 131.103 146.425C126.26 137.863 139.066 119.589 170.253 90.5567C223.484 50.2588 274.653 25.1873 322.405 15.9898C340.067 12.589 356.796 11.4887 372.118 12.725C387.533 13.9641 397.388 17.2873 401.95 19.1924C422.284 20.2195 437.784 25.8096 448.019 35.8209C456.857 44.4654 461.323 56.1249 460.924 69.5311C460.486 84.29 454.237 99.6643 443.761 111.725C432.67 124.484 418.742 131.441 404.531 131.313C370.845 132.532 341.314 131.826 315.262 131.202C272.827 130.185 239.308 129.382 211.538 137.504L209.829 138.005C189.33 143.986 161.293 152.158 144.519 151.659L144.512 151.659ZM364.361 13.6693C352.937 13.3297 339.033 14.1844 322.658 17.337C275.115 26.4977 224.134 51.4888 171.13 91.6073C140.957 119.703 127.874 137.933 132.296 145.751C138.825 157.286 183.032 144.394 209.446 136.69L211.155 136.189C239.127 128.015 272.739 128.814 315.296 129.835C341.333 130.459 370.843 131.164 404.514 129.944C418.347 130.069 431.905 123.279 442.729 110.82C453.005 98.9973 459.138 83.9347 459.56 69.4905C459.947 56.4708 455.621 45.1665 447.06 36.7954C437.055 27.0058 421.809 21.5379 401.76 20.5479L401.638 20.5443L401.525 20.4979C397.034 18.6093 384.6 14.2709 364.354 13.6691L364.361 13.6693Z" fill="white"/>
        <path d="M163.68 136.081C157.929 135.91 153.672 134.58 152 131.414C148.12 124.085 159.424 108.467 186.567 83.6843L186.626 83.6359C221.164 59.2736 274.107 28.667 330.179 21.2284C346.669 19.0392 362.563 19.0532 376.133 21.269C386.807 23.0119 396.116 26.1685 401.695 29.945C440.872 34.0252 444.156 57.5273 443.747 67.4515C443.226 80.1591 436.377 94.3049 425.425 105.298C413.662 117.113 399.142 123.774 384.532 124.063C341.041 126.811 307.007 125.792 279.667 124.972C250.134 124.087 228.824 123.446 210.834 127.754C209.401 128.099 207.91 128.456 206.383 128.826C191.821 132.34 174.904 136.415 163.68 136.081ZM187.369 84.6251C161.093 108.624 149.562 124.171 153.089 130.838C157.578 139.317 186.775 132.276 206.09 127.621C207.617 127.25 209.108 126.894 210.541 126.549C228.689 122.203 250.078 122.839 279.697 123.726C307.023 124.553 341.014 125.563 384.477 122.815C398.585 122.539 413.178 115.831 424.544 104.412C435.275 93.6345 441.993 79.7929 442.505 67.3859C443.343 47.1226 428.362 33.9112 401.409 31.1472L401.252 31.1282L401.126 31.0385C390.181 23.5349 364.04 17.9652 330.336 22.4366C299.533 26.5214 249.719 40.6294 187.369 84.6108L187.369 84.6251Z" fill="white"/>
        <path d="M183.014 120.946C177.806 120.791 173.85 119.67 172.485 116.743C171.08 113.735 172.592 109.288 177.108 103.147C182.019 96.4656 190.684 87.6035 202.875 76.7973L202.94 76.7491C261.965 38.5433 308.939 28.3126 337.946 26.4597C371.502 24.3121 394.324 32.312 401.454 40.7051C425.652 45.4792 428.356 59.1352 427.812 66.8632C426.316 88.0956 397.755 115.1 364.527 116.799C308.433 121.83 272.859 119.733 246.877 118.209C231.088 117.281 219.674 116.605 210.109 118.004C208.543 118.23 206.898 118.482 205.217 118.733C197.575 119.896 189.365 121.142 183.014 120.953L183.014 120.946ZM203.578 77.6564C181.003 97.6819 170.878 110.67 173.486 116.271C176.168 122.017 192.179 119.585 205.05 117.632C206.731 117.374 208.376 117.129 209.948 116.903C219.622 115.493 231.078 116.17 246.938 117.1C272.884 118.624 308.416 120.719 364.446 115.693C379.212 114.943 394.729 108.677 407.043 98.505C418.633 88.9346 425.978 77.0746 426.706 66.7874C427.607 54.0337 418.49 45.1445 401.051 41.7534L400.859 41.7191L400.735 41.5649C395.054 34.6907 373.661 25.2861 338.021 27.5651C309.15 29.4149 262.391 39.6019 203.578 77.6564Z" fill="white"/>
        <path d="M262.354 113.969C241.915 113.362 228.93 111.206 219.915 109.706C215.632 108.999 212.252 108.433 209.327 108.231C208.563 108.172 207.792 108.121 207.022 108.069C200.221 107.616 193.192 107.15 191.835 102.99C190.728 99.5972 192.355 92.4745 219.189 69.9106L219.255 69.8624C252.921 50.3027 286.054 38.0916 317.736 33.5601C350.997 28.8034 372.407 34.0605 382.204 37.6113C392.285 41.2708 399.185 46.3187 401.205 51.4938C412.985 56.1781 414.6 63.1894 413.863 68.2611C412.667 76.5142 404.148 86.2259 391.068 94.2333C377.412 102.596 360.444 108.167 344.508 109.527C308.274 113.715 281.9 114.55 262.354 113.969ZM209.391 107.259C212.359 107.469 215.768 108.028 220.073 108.744C237.668 111.667 270.413 117.103 344.408 108.557C379.548 105.554 410.607 83.9822 412.902 68.1179C413.884 61.3127 409.648 55.8497 400.651 52.3226L400.446 52.2449L400.374 52.035C398.562 47.0596 391.816 42.138 381.877 38.5328C370.905 34.5531 311.538 17.3932 219.781 70.6876C200.002 87.3217 191.16 97.7904 192.759 102.688C193.913 106.225 200.607 106.668 207.086 107.097C207.864 107.149 208.635 107.2 209.398 107.259L209.391 107.259Z" fill="white"/>
        <path d="M246.385 108.279C241.799 108.143 237.588 107.86 233.768 107.439C214.925 105.338 210.013 100.063 208.398 98.3314C206.798 96.5789 206.109 94.7459 206.298 92.7241C206.871 86.6662 215.336 78.056 235.518 63.0171L235.583 62.9761C267.757 46.7318 300.601 37.4852 330.569 36.2412C364.433 34.8263 382.938 43.7081 389.322 47.5944C396.669 52.061 400.789 57.3056 400.932 62.3676C403.732 65.5672 404.498 68.9068 403.225 72.3005C400.212 80.3348 386.529 86.7338 375.593 90.6784C361.267 95.8476 343.119 99.9647 324.503 102.263C291.983 106.841 265.788 108.856 246.385 108.279ZM209.009 97.755C219.902 109.434 258.72 110.673 324.385 101.428C358.445 97.2252 397.37 85.4871 402.432 72.0119C403.605 68.8946 402.846 65.7987 400.196 62.8257L400.092 62.708L400.097 62.5505C400.025 57.7343 396.05 52.6873 388.879 48.3263C362.148 32.072 302.898 29.9598 235.983 63.733C216.305 78.4001 207.674 87.0984 207.132 92.8134C206.964 94.6066 207.561 96.1789 209.008 97.7621L209.009 97.755Z" fill="white"/>
        <path d="M230.13 102.595C218.207 102.241 210.901 100.254 208.063 96.6308C206.34 94.4376 206.222 91.676 207.705 88.1954C210.235 82.2457 219.399 75.125 226.645 70.2039C234.921 64.5754 244.832 59.0386 251.883 56.1032C289.879 40.2757 320.906 38.2751 340.236 39.3798C362.708 40.6638 382.504 47.0192 393.202 56.3709C399.383 61.7771 401.979 67.786 400.528 73.2949C396.87 87.1415 372.658 88.8718 344.626 90.8755C331.463 91.8167 317.856 92.7877 304.476 95.0049C270.976 100.55 246.304 103.076 230.13 102.595ZM252.016 56.4367L252.156 56.7705C239.175 62.1802 212.682 78.3282 208.369 88.4874C207 91.7063 207.09 94.2235 208.633 96.1964C215.054 104.389 247.271 103.749 304.368 94.2996C317.784 92.0764 331.406 91.1058 344.583 90.165C372.342 88.1819 396.311 86.4658 399.84 73.1168C401.225 67.8854 398.7 62.1365 392.735 56.9158C382.156 47.6608 362.515 41.3745 340.201 40.0951C320.921 38.9919 290.029 40.9965 252.164 56.7635L252.024 56.4298L252.016 56.4367Z" fill="white"/>
    </g>
</svg>
    