<svg width="32" height="32" viewBox="0 0 32 32" fill="none"
    xmlns="http://www.w3.org/2000/svg">
    <path opacity="0.4" d="M16.0002 2.66668C8.63637 2.66668 2.66683 8.63622 2.66683 16C2.66683 23.3638 8.63637 29.3333 16.0002 29.3333C23.364 29.3333 29.3335 23.3638 29.3335 16C29.3335 8.63622 23.364 2.66668 16.0002 2.66668Z" fill="white"/>
    <path d="M11.2931 17.2967C11.5465 17.2967 11.7998 17.39 11.9998 17.59L15.9998 21.59L19.9998 17.59C20.3865 17.2033 21.0265 17.2033 21.4131 17.59C21.7998 17.9767 21.7998 18.6167 21.4131 19.0033L16.7065 23.71C16.3198 24.0967 15.6798 24.0967 15.2931 23.71L10.5865 19.0033C10.1998 18.6167 10.1998 17.9767 10.5865 17.59C10.7865 17.39 11.0398 17.2967 11.2931 17.2967Z" fill="white"/>
    <path d="M11.2931 10.8967C11.5465 10.8967 11.7998 10.99 11.9998 11.19L15.9998 15.19L19.9998 11.19C20.3865 10.8033 21.0265 10.8033 21.4131 11.19C21.7998 11.5767 21.7998 12.2167 21.4131 12.6033L16.7065 17.31C16.3198 17.6967 15.6798 17.6967 15.2931 17.31L10.5865 12.6033C10.1998 12.2167 10.1998 11.5767 10.5865 11.19C10.7865 10.99 11.0398 10.8967 11.2931 10.8967Z" fill="white"/>
</svg>
    