<!-- <svg width="19" height="19" viewBox="0 0 19 19" fill="none" xmlns="http://www.w3.org/2000/svg">
    <path opacity="0.4" d="M9.50008 1.58335C5.12783 1.58335 1.58341 5.12777 1.58341 9.50002C1.58341 13.8723 5.12783 17.4167 9.50008 17.4167C13.8723 17.4167 17.4167 13.8723 17.4167 9.50002C17.4167 5.12777 13.8723 1.58335 9.50008 1.58335Z" fill="white"/>
    <path d="M6.70529 10.2699C6.85571 10.2699 7.00613 10.3253 7.12488 10.4441L9.49988 12.8191L11.8749 10.4441C12.1045 10.2145 12.4845 10.2145 12.714 10.4441C12.9436 10.6736 12.9436 11.0536 12.714 11.2832L9.91946 14.0778C9.68988 14.3074 9.30988 14.3074 9.08029 14.0778L6.28571 11.2832C6.05613 11.0536 6.05613 10.6736 6.28571 10.4441C6.40446 10.3253 6.55488 10.2699 6.70529 10.2699Z" fill="white"/>
    <path d="M6.70529 6.46991C6.85571 6.46991 7.00613 6.52532 7.12488 6.64407L9.49988 9.01907L11.8749 6.64407C12.1045 6.41449 12.4845 6.41449 12.714 6.64407C12.9436 6.87366 12.9436 7.25366 12.714 7.48324L9.91946 10.2778C9.68988 10.5074 9.30988 10.5074 9.08029 10.2778L6.28571 7.48324C6.05613 7.25366 6.05613 6.87366 6.28571 6.64407C6.40446 6.52532 6.55488 6.46991 6.70529 6.46991Z" fill="white"/>
</svg>
     -->

<svg width="7" height="9" viewBox="0 0 7 9" fill="none"
    xmlns="http://www.w3.org/2000/svg">
    <path d="M0.705292 4.2699C0.855709 4.2699 1.00613 4.32531 1.12488 4.44406L3.49988 6.81906L5.87488 4.44406C6.10446 4.21448 6.48446 4.21448 6.71404 4.44406C6.94363 4.67365 6.94363 5.05365 6.71404 5.28323L3.91946 8.07781C3.68988 8.3074 3.30988 8.3074 3.08029 8.07781L0.285709 5.28323C0.0561256 5.05365 0.0561256 4.67365 0.285709 4.44406C0.404459 4.32531 0.554875 4.2699 0.705292 4.2699Z" fill="white"/>
    <path d="M0.705292 0.469907C0.855709 0.469907 1.00613 0.525324 1.12488 0.644074L3.49988 3.01907L5.87488 0.644074C6.10446 0.41449 6.48446 0.41449 6.71404 0.644074C6.94363 0.873657 6.94363 1.25366 6.71404 1.48324L3.91946 4.27782C3.68988 4.50741 3.30988 4.50741 3.08029 4.27783L0.285709 1.48324C0.0561256 1.25366 0.0561256 0.873658 0.285709 0.644074C0.404459 0.525324 0.554875 0.469907 0.705292 0.469907Z" fill="white"/>
</svg>
        