<svg width="20" height="20" viewBox="0 0 20 20" fill="none"
    xmlns="http://www.w3.org/2000/svg">
    <path d="M15.0009 9.00019H7.41087L10.7109 5.71019C10.8992 5.52188 11.005 5.26649 11.005 5.00019C11.005 4.73388 10.8992 4.47849 10.7109 4.29019C10.5226 4.10188 10.2672 3.99609 10.0009 3.99609C9.73457 3.99609 9.47918 4.10188 9.29087 4.29019L4.29087 9.29019C4.19983 9.38529 4.12847 9.49743 4.08087 9.62019C3.98085 9.86365 3.98085 10.1367 4.08087 10.3802C4.12847 10.5029 4.19983 10.6151 4.29087 10.7102L9.29087 15.7102C9.38384 15.8039 9.49444 15.8783 9.6163 15.9291C9.73816 15.9798 9.86886 16.006 10.0009 16.006C10.1329 16.006 10.2636 15.9798 10.3854 15.9291C10.5073 15.8783 10.6179 15.8039 10.7109 15.7102C10.8046 15.6172 10.879 15.5066 10.9298 15.3848C10.9805 15.2629 11.0067 15.1322 11.0067 15.0002C11.0067 14.8682 10.9805 14.7375 10.9298 14.6156C10.879 14.4937 10.8046 14.3831 10.7109 14.2902L7.41087 11.0002H15.0009C15.2661 11.0002 15.5204 10.8948 15.708 10.7073C15.8955 10.5198 16.0009 10.2654 16.0009 10.0002C16.0009 9.73497 15.8955 9.48062 15.708 9.29308C15.5204 9.10554 15.2661 9.00019 15.0009 9.00019Z" fill="white"/>
</svg>
    