<svg width="20" height="20" viewBox="0 0 20 20" fill="none"
    xmlns="http://www.w3.org/2000/svg">
    <path opacity="0.4" d="M10.0001 18.3333C14.6025 18.3333 18.3334 14.6024 18.3334 9.99999C18.3334 5.39762 14.6025 1.66666 10.0001 1.66666C5.39771 1.66666 1.66675 5.39762 1.66675 9.99999C1.66675 14.6024 5.39771 18.3333 10.0001 18.3333Z" fill="white"/>
    <path d="M12.9418 9.18958C12.7835 9.18958 12.6251 9.13125 12.5001 9.00625L10.0001 6.50625L7.50013 9.00625C7.25846 9.24792 6.85846 9.24792 6.6168 9.00625C6.37513 8.76458 6.37513 8.36458 6.6168 8.12292L9.55846 5.18125C9.80013 4.93958 10.2001 4.93958 10.4418 5.18125L13.3835 8.12292C13.6251 8.36458 13.6251 8.76458 13.3835 9.00625C13.2585 9.13125 13.1001 9.18958 12.9418 9.18958Z" fill="white"/>
    <path d="M12.9418 13.1896C12.7835 13.1896 12.6251 13.1313 12.5001 13.0063L10.0001 10.5063L7.50013 13.0063C7.25846 13.2479 6.85846 13.2479 6.6168 13.0063C6.37513 12.7646 6.37513 12.3646 6.6168 12.1229L9.55846 9.18125C9.80013 8.93958 10.2001 8.93958 10.4418 9.18125L13.3835 12.1229C13.6251 12.3646 13.6251 12.7646 13.3835 13.0063C13.2585 13.1313 13.1001 13.1896 12.9418 13.1896Z" fill="white"/>
</svg>
    