<svg width="48" height="49" viewBox="0 0 48 49" fill="none"
    xmlns="http://www.w3.org/2000/svg">
    <path fill-rule="evenodd" clip-rule="evenodd" d="M23.5616 4.50061C28.7893 4.50061 33.1079 8.48393 33.6404 13.5785L33.789 13.5802C36.689 13.5802 40.215 15.5062 41.405 20.9082L42.983 33.1222C43.549 37.0642 42.841 40.2262 40.875 42.4942C38.919 44.7502 35.823 45.9442 31.921 45.9442H15.225C10.939 45.9442 7.953 44.8942 6.095 42.7362C4.229 40.5722 3.605 37.3262 4.241 33.0902L5.793 21.0382C6.813 15.5122 10.543 13.5802 13.431 13.5802C13.6803 11.2812 14.717 9.09401 16.3616 7.45461C18.2516 5.57661 20.8576 4.50061 23.5196 4.50061H23.5616ZM33.789 16.5802H13.431C12.549 16.5802 9.601 16.9362 8.755 21.5042L7.211 33.5042C6.709 36.8702 7.097 39.3062 8.367 40.7802C9.621 42.2362 11.865 42.9442 15.225 42.9442H31.921C34.017 42.9442 36.879 42.5262 38.607 40.5302C39.979 38.9482 40.451 36.5922 40.011 33.5262L38.453 21.4222C37.789 18.4402 36.037 16.5802 33.789 16.5802ZM29.3946 22.1484C30.2226 22.1484 30.9406 22.8204 30.9406 23.6484C30.9406 24.4764 30.3146 25.1484 29.4866 25.1484H29.3946C28.5666 25.1484 27.8946 24.4764 27.8946 23.6484C27.8946 22.8204 28.5666 22.1484 29.3946 22.1484ZM17.7344 22.1484C18.5624 22.1484 19.2804 22.8204 19.2804 23.6484C19.2804 24.4764 18.6524 25.1484 17.8244 25.1484H17.7344C16.9064 25.1484 16.2344 24.4764 16.2344 23.6484C16.2344 22.8204 16.9064 22.1484 17.7344 22.1484ZM23.5556 7.50061H23.5256C21.6436 7.50061 19.8096 8.25861 18.4796 9.58061C17.3962 10.6591 16.6876 12.077 16.4584 13.5793L30.617 13.5798C30.103 10.1434 27.1314 7.50061 23.5556 7.50061Z" fill="white"/>
</svg>
    