<svg width="48" height="48" viewBox="0 0 48 48" fill="none"
    xmlns="http://www.w3.org/2000/svg">
    <path fill-rule="evenodd" clip-rule="evenodd" d="M14.4629 14.2985V15.0617H11.3852C10.9416 15.0614 10.5127 15.2218 10.1768 15.5134C9.84103 15.8051 9.62073 16.2085 9.55623 16.6501L9.11129 19.7299C8.23569 25.7419 8.23569 31.8502 9.11129 37.8623C9.30214 39.1715 9.92124 40.3794 10.8708 41.295C11.8203 42.2107 13.046 42.7818 14.3543 42.9183L15.644 43.0544C21.336 43.6485 27.0732 43.6485 32.7652 43.0544L34.057 42.9183C35.3649 42.7814 36.5902 42.21 37.5393 41.2944C38.4884 40.3788 39.1072 39.1712 39.2979 37.8623C40.1735 31.8502 40.1735 25.7419 39.2979 19.7299L38.8509 16.6501C38.7864 16.2085 38.5661 15.8051 38.2303 15.5134C37.8945 15.2218 37.4656 15.0614 37.0219 15.0617H33.9422V14.2985C33.9422 11.6998 32.916 9.20748 31.0895 7.36991C29.263 5.53234 26.7857 4.5 24.2026 4.5C21.6195 4.5 19.1421 5.53234 17.3156 7.36991C15.4891 9.20748 14.4629 11.6998 14.4629 14.2985ZM25.8634 7.80673C24.879 7.55185 23.8496 7.52692 22.8542 7.73385C21.8587 7.94078 20.9234 8.37408 20.12 9.00059C19.3166 9.6271 18.6663 10.4302 18.2189 11.3485C17.7714 12.2667 17.5388 13.2758 17.5386 14.2985V15.0617H30.8665V14.2985C30.8663 12.8114 30.3747 11.3666 29.469 10.1914C28.5633 9.01625 27.2949 8.17735 25.8634 7.80673ZM17.5386 18.156C17.5386 17.7457 17.3766 17.3521 17.0882 17.062C16.7998 16.7719 16.4086 16.6089 16.0008 16.6089C15.5929 16.6089 15.2018 16.7719 14.9134 17.062C14.625 17.3521 14.4629 17.7457 14.4629 18.156V22.2817C14.4629 22.692 14.625 23.0855 14.9134 23.3756C15.2018 23.6658 15.5929 23.8288 16.0008 23.8288C16.4086 23.8288 16.7998 23.6658 17.0882 23.3756C17.3766 23.0855 17.5386 22.692 17.5386 22.2817V18.156ZM33.9422 18.156C33.9422 17.7457 33.7802 17.3521 33.4918 17.062C33.2034 16.7719 32.8122 16.6089 32.4043 16.6089C31.9965 16.6089 31.6053 16.7719 31.3169 17.062C31.0285 17.3521 30.8665 17.7457 30.8665 18.156V22.2817C30.8665 22.692 31.0285 23.0855 31.3169 23.3756C31.6053 23.6658 31.9965 23.8288 32.4043 23.8288C32.8122 23.8288 33.2034 23.6658 33.4918 23.3756C33.7802 23.0855 33.9422 22.692 33.9422 22.2817V18.156Z" fill="black"/>
</svg>
    