<svg width="24" height="24" viewBox="0 0 24 24" fill="none"
    xmlns="http://www.w3.org/2000/svg">
    <path d="M18.2891 20.3772H8.16476C5.82017 20.3772 5.00311 19.1339 5.00311 17.9971C5.00311 16.8603 5.82017 15.617 8.16476 15.617H18.2891C18.6799 15.617 18.9996 15.9367 18.9996 16.3275C18.9996 16.7183 18.6799 17.038 18.2891 17.038H8.16476C7.38323 17.038 6.42408 17.2156 6.42408 17.9971C6.42408 18.7786 7.38323 18.9563 8.16476 18.9563H18.2891C18.6799 18.9563 18.9996 19.276 18.9996 19.6667C18.9996 20.0575 18.6799 20.3772 18.2891 20.3772Z" fill="#14161B"/>
    <path d="M9.82506 16.3525L6.3437 16.7877H5.90853L5.47336 5.4733L6.77887 4.16779H18.0933V16.3525H9.82506Z" fill="#14161B"/>
    <path d="M5.78607 17.8237C5.39531 17.8237 5.07559 17.504 5.07559 17.1132V5.67448C5.07559 4.39562 6.07027 3.36542 7.31361 3.36542H18.255C18.6458 3.36542 18.9655 3.68513 18.9655 4.0759V16.1896C18.9655 16.5804 18.6458 16.9001 18.255 16.9001C17.8643 16.9001 17.5445 16.5804 17.5445 16.1896V4.78638H7.31361C6.88732 4.78638 6.49656 5.21267 6.49656 5.67448V17.1132C6.49656 17.504 6.17684 17.8237 5.78607 17.8237Z" fill="#14161B"/>
    <path d="M18.2885 20.6319C17.4359 20.6319 16.903 19.6727 16.903 18.2162C16.903 16.7597 17.4714 15.8006 18.2885 15.8006C18.6793 15.8006 18.999 16.1203 18.999 16.5111C18.999 16.8308 18.7858 17.115 18.5016 17.186C18.4306 17.3281 18.324 17.6834 18.324 18.2162C18.324 18.7491 18.4306 19.1043 18.5016 19.2464C18.7858 19.353 18.999 19.6017 18.999 19.9214C18.999 20.3122 18.6793 20.6319 18.2885 20.6319Z" fill="#14161B"/>
</svg>
    