<svg width="48" height="48" viewBox="0 0 48 48" fill="none"
    xmlns="http://www.w3.org/2000/svg">
    <path d="M7.86353 26H19.8635C20.394 26 20.9027 26.2107 21.2777 26.5858C21.6528 26.9609 21.8635 27.4696 21.8635 28V40C21.8635 40.5304 21.6528 41.0391 21.2777 41.4142C20.9027 41.7893 20.394 42 19.8635 42H7.86353C7.33309 42 6.82438 41.7893 6.44931 41.4142C6.07424 41.0391 5.86353 40.5304 5.86353 40V28C5.86353 27.4696 6.07424 26.9609 6.44931 26.5858C6.82438 26.2107 7.33309 26 7.86353 26ZM27.8635 26H39.8635C40.394 26 40.9027 26.2107 41.2777 26.5858C41.6528 26.9609 41.8635 27.4696 41.8635 28V40C41.8635 40.5304 41.6528 41.0391 41.2777 41.4142C40.9027 41.7893 40.394 42 39.8635 42H27.8635C27.3331 42 26.8244 41.7893 26.4493 41.4142C26.0742 41.0391 25.8635 40.5304 25.8635 40V28C25.8635 27.4696 26.0742 26.9609 26.4493 26.5858C26.8244 26.2107 27.3331 26 27.8635 26ZM7.86353 6H19.8635C20.394 6 20.9027 6.21071 21.2777 6.58578C21.6528 6.96085 21.8635 7.46956 21.8635 8V20C21.8635 20.5304 21.6528 21.0391 21.2777 21.4142C20.9027 21.7893 20.394 22 19.8635 22H7.86353C7.33309 22 6.82438 21.7893 6.44931 21.4142C6.07424 21.0391 5.86353 20.5304 5.86353 20V8C5.86353 7.46956 6.07424 6.96085 6.44931 6.58578C6.82438 6.21071 7.33309 6 7.86353 6ZM33.8635 6C38.2755 6 41.8635 9.588 41.8635 14C41.8635 18.412 38.2755 22 33.8635 22C29.4515 22 25.8635 18.412 25.8635 14C25.8635 9.588 29.4515 6 33.8635 6Z" fill="black"/>
</svg>
    