<svg width="24" height="24" viewBox="0 0 24 24" fill="none"
    xmlns="http://www.w3.org/2000/svg">
    <g clip-path="url(#clip0_403_3671)">
        <path d="M23.9999 24H12.0179C9.67684 23.9989 7.38728 23.3131 5.43117 22.027C3.47506 20.7409 1.93785 18.9108 1.00886 16.762C0.0798767 14.6132 -0.200302 12.2396 0.202835 9.93353C0.605972 7.62749 1.67482 5.48972 3.27772 3.78354C4.88062 2.07737 6.94758 0.877292 9.22399 0.331138C11.5004 -0.215015 13.8869 -0.0833956 16.0894 0.709785C18.2919 1.50297 20.2144 2.92307 21.6199 4.79517C23.0255 6.66727 23.8528 8.90961 23.9999 11.246V11.309V24ZM12.0179 2C9.36569 2 6.82215 3.05357 4.94679 4.92893C3.07142 6.8043 2.01785 9.34784 2.01785 12C2.01785 14.6522 3.07142 17.1957 4.94679 19.0711C6.82215 20.9464 9.36569 22 12.0179 22H21.9999V11.341C21.8284 8.80932 20.7026 6.43703 18.8498 4.70323C16.997 2.96943 14.5553 2.00332 12.0179 2Z" fill="#374957"/>
        <path d="M13.0002 6.99988H7.00024V8.99987H13.0002V6.99988Z" fill="#374957"/>
        <path d="M17.0002 11.0001H7.00024V13.0001H17.0002V11.0001Z" fill="#374957"/>
        <path d="M17.0002 15H7.00024V17H17.0002V15Z" fill="#374957"/>
    </g>
    <defs>
        <clipPath id="clip0_403_3671">
            <rect width="24" height="24" fill="white"/>
        </clipPath>
    </defs>
</svg>
    