<svg width="16" height="16" viewBox="0 0 16 16" fill="none"
    xmlns="http://www.w3.org/2000/svg">
    <path d="M10.9994 8.01085C10.9999 8.24403 10.9185 8.47001 10.7694 8.64955L6.76942 13.6394C6.59968 13.8432 6.35577 13.9713 6.09134 13.9957C5.82692 14.02 5.56364 13.9385 5.35942 13.7691C5.1552 13.5997 5.02678 13.3563 5.0024 13.0924C4.97802 12.8285 5.05968 12.5658 5.22942 12.362L8.70942 8.01085L5.38942 3.65974C5.30636 3.55766 5.24432 3.4402 5.20689 3.31412C5.16946 3.18804 5.15737 3.05582 5.17131 2.92506C5.18524 2.7943 5.22494 2.66757 5.28812 2.55217C5.35129 2.43677 5.43669 2.33497 5.53942 2.25261C5.64224 2.16122 5.76287 2.092 5.89374 2.0493C6.02462 2.00659 6.16292 1.99132 6.29998 2.00444C6.43704 2.01755 6.56992 2.05877 6.69027 2.12552C6.81063 2.19227 6.91588 2.2831 6.99942 2.39233L10.8294 7.38214C10.9549 7.56685 11.0148 7.78821 10.9994 8.01085Z" fill="white"/>
</svg>
    