<svg width="24" height="24" viewBox="0 0 24 24" fill="none"
    xmlns="http://www.w3.org/2000/svg">
    <g clip-path="url(#clip0_403_3735)">
        <path d="M17.4998 10.9997C18.3282 10.9997 18.9998 10.3281 18.9998 9.49969C18.9998 8.67127 18.3282 7.99969 17.4998 7.99969C16.6714 7.99969 15.9998 8.67127 15.9998 9.49969C15.9998 10.3281 16.6714 10.9997 17.4998 10.9997Z" fill="#374957"/>
        <path d="M12.4997 7.99969C13.3281 7.99969 13.9997 7.32812 13.9997 6.49969C13.9997 5.67127 13.3281 4.99969 12.4997 4.99969C11.6713 4.99969 10.9997 5.67127 10.9997 6.49969C10.9997 7.32812 11.6713 7.99969 12.4997 7.99969Z" fill="#374957"/>
        <path d="M7.5 10.9997C8.32843 10.9997 9 10.3281 9 9.49969C9 8.67127 8.32843 7.99969 7.5 7.99969C6.67157 7.99969 6 8.67127 6 9.49969C6 10.3281 6.67157 10.9997 7.5 10.9997Z" fill="#374957"/>
        <path d="M7.5 16.9997C8.32843 16.9997 9 16.3281 9 15.4997C9 14.6713 8.32843 13.9997 7.5 13.9997C6.67157 13.9997 6 14.6713 6 15.4997C6 16.3281 6.67157 16.9997 7.5 16.9997Z" fill="#374957"/>
        <path d="M12.0828 23.9999C9.69204 23.9997 7.35585 23.2854 5.3738 21.9485C3.39174 20.6117 1.85419 18.7133 0.958287 16.4967C0.062389 14.2802 -0.151008 11.8466 0.345462 9.50796C0.841932 7.16933 2.02564 5.0323 3.74478 3.37091C4.89959 2.24563 6.27129 1.36709 7.77641 0.78877C9.28153 0.210447 10.8886 -0.0555689 12.4998 0.00691313C15.5445 0.149026 18.4248 1.4299 20.5696 3.59564C22.7144 5.76139 23.9672 8.65393 24.0798 11.6999C24.1205 13.2533 23.8572 14.7996 23.3048 16.2519C23.1923 16.5478 23.0073 16.8107 22.7667 17.0163C22.526 17.222 22.2376 17.3639 21.9278 17.4289C21.6129 17.4983 21.2856 17.4869 20.9763 17.3958C20.667 17.3047 20.3858 17.1369 20.1588 16.9079L20.0588 16.8079C19.5581 16.3072 18.9197 15.9669 18.2249 15.8303C17.5301 15.6937 16.8104 15.7669 16.1574 16.0407C15.5044 16.3145 14.9477 16.7765 14.5581 17.3677C14.1685 17.959 13.9637 18.6529 13.9698 19.3609L14.0098 23.8769L13.0858 23.9539C12.7528 23.9779 12.4208 23.9999 12.0828 23.9999ZM12.0828 1.99991C9.43062 1.98798 6.88234 3.0301 4.99853 4.89703C3.11473 6.76395 2.04972 9.30275 2.03778 11.9549C2.02585 14.6071 3.06797 17.1554 4.93489 19.0392C6.80182 20.923 9.34062 21.988 11.9928 21.9999L11.9688 19.3749C11.9643 18.6359 12.106 17.9033 12.386 17.2194C12.6659 16.5354 13.0784 15.9137 13.5998 15.3899C14.6441 14.3469 16.0598 13.7611 17.5358 13.7611C19.0118 13.7611 20.4274 14.3469 21.4718 15.3899L21.4858 15.4039C21.9124 14.2339 22.1143 12.9938 22.0808 11.7489C21.9873 9.21146 20.944 6.8017 19.1576 4.99718C17.3713 3.19265 14.9722 2.12505 12.4358 2.00591C12.3168 1.99991 12.1998 1.99991 12.0818 1.99991H12.0828Z" fill="#374957"/>
    </g>
    <defs>
        <clipPath id="clip0_403_3735">
            <rect width="24" height="24" fill="white"/>
        </clipPath>
    </defs>
</svg>
    