<svg xmlns="http://www.w3.org/2000/svg" xml:space="preserve" x="0" y="0" version="1.1" viewBox="0 0 968.2 1292" class="absolute -inset-0 z-5 overflow-hidden gsap:stamp/source" data-flip-id="passo-malera:stamp">
    <g>
        <path class="fill-dust" d="M906.8,97.8c-2.3-1.2-5.7-2.3-10.2-3.2c3.5-1,6.3-2.2,8.4-3.6c3.3-2.2,5.7-4.8,7.4-7.8   c1.7-3.1,2.5-6.5,2.5-10.3c0-5.3-1.6-9.8-4.8-13.6c-3.2-3.8-7.5-6.4-13-7.8c-3.7-1-10.6-1.5-20.6-1.5h-41l0,5.9h2.9   c2.6,0,4.4,0.2,5.3,0.7s1.5,1.3,2,2.4c0.5,1.1,0.7,3.2,0.7,6.3v65.2c0,3-0.7,5.2-2.2,6.5c-1.1,0.9-3,1.4-5.8,1.4h-2.9v5.7h43.2   c5.2,0,10.2-0.3,15.1-1s9.2-2.2,12.9-4.5c3.7-2.4,6.6-5.4,8.6-9c2-3.7,3-7.6,3-11.9s-1-8.3-3.1-11.8S910.3,99.7,906.8,97.8z   M857.9,57.5h18.9c7.1,0,11.7,0.3,13.9,0.9c3.4,1,6.2,2.7,8.2,5.3c2.1,2.6,3.1,5.8,3.1,9.7c0,4.5-1.2,8.3-3.4,11.2   c-2.2,2.9-5.5,5-9.7,6.2c-2.8,0.7-7.8,1.1-15.2,1.1h-15.8V57.5z M901.5,128.7c-2.5,3.3-5.5,5.4-9.1,6.4c-3.5,1-9.5,1.5-17.8,1.5   h-8.4c-3.2,0-5.2-0.1-5.9-0.3c-1-0.3-1.7-0.9-2-1.7c-0.3-0.6-0.4-2.4-0.4-5.5V98.3h0v-0.1h16.6c9.2,0,15.6,0.7,19.2,2   c3.6,1.4,6.5,3.5,8.5,6.5c2.1,3,3.1,6.4,3.1,10.3C905.3,121.5,904,125.5,901.5,128.7z"></path>
        <path class="fill-dust" d="M917.8,32.9H836c-9.6,0-17.5,7.8-17.5,17.5v93.1c0,9.6,7.8,17.5,17.5,17.5h81.8c9.7,0,17.5-7.9,17.5-17.5V50.4   C935.3,40.8,927.5,32.9,917.8,32.9z M929,143.6c0,6.2-5.1,11.2-11.2,11.2H836c-6.1,0-11.1-5.1-11.1-11.2V50.5   c0-6.2,5-11.2,11.1-11.2h81.8c6.2,0,11.2,5.1,11.2,11.2V143.6z"></path>
        <path class="fill-dust" d="M56.5,33H34.2c1.6,4.4,1.8,12.2,1.8,22.8v18.3c0,10.6-0.2,18.4-1.8,22.8h22.3c-1.6-4.4-1.8-12.2-1.8-22.8V55.8   C54.7,45.2,54.9,37.4,56.5,33z"></path>
        <path class="fill-dust" d="M97.7,51.5c6.3,0,9.7,0.5,12.1,1.9V33H63.1v20.4c2.4-1.5,5.7-1.9,12.1-1.9h1.9v22.6c0,10.6-0.2,18.4-1.8,22.8   h22.3c-1.6-4.4-1.8-12.2-1.8-22.8V51.5H97.7z"></path>
        <path class="fill-dust" d="M162.4,86.8L147.1,33h-21.7l-15.3,53.8c-1.8,6.3-2.3,9.2-4.2,10.1h23c-0.6-1.1-0.8-2.6-0.4-5.4l0.5-2.7h14.6   l0.5,2.7c0.4,2.8,0.2,4.3-0.4,5.4h22.9C164.7,96,164.2,93.1,162.4,86.8z M132.1,74l4-19.8h0.4l4,19.8H132.1z"></path>
        <path class="fill-dust" d="M189.9,77.3V55.8c0-10.6,0.2-18.4,1.8-22.8h-22.3c1.6,4.4,1.8,12.2,1.8,22.8v18.3c0,10.6-0.2,18.4-1.8,22.8   h38.7V75.4c-2.5,1.4-5.8,1.9-12.1,1.9H189.9z"></path>
        <path class="fill-dust" d="M236.7,33h-22.3c1.6,4.4,1.8,12.2,1.8,22.8v18.3c0,10.6-0.2,18.4-1.8,22.8h22.3c-1.6-4.4-1.8-12.2-1.8-22.8   V55.8C234.9,45.2,235.1,37.4,236.7,33z"></path>
        <path class="fill-dust" d="M295.9,86.8L280.6,33h-21.7l-15.3,53.8c-1.8,6.3-2.3,9.2-4.2,10.1h23c-0.6-1.1-0.8-2.6-0.4-5.4l0.5-2.7h14.6   l0.5,2.7c0.4,2.8,0.2,4.3-0.4,5.4h22.9C298.2,96,297.7,93.1,295.9,86.8z M265.7,74l4-19.8h0.4l4,19.8H265.7z"></path>
    </g>
    <g>
        <path class="fill-current" d="M98.1,1161.9H79.6L65.7,1189h-0.2l-13.9-27.1H33.1c1.6,4.4,1.8,12.2,1.8,22.8v26.6c0,6.5-0.6,11.4-1.7,14.6   h22.2c-1.3-2.6-1.7-6.2-1.7-13.2l-0.2-16.8h0.4l11.2,17.9h1.1l11.2-17.9h0.4l-0.2,16.8c0,6.9-0.4,10.6-1.7,13.2h22.2   c-1.6-4.4-1.8-12.2-1.8-22.8v-18.4C96.3,1174.1,96.5,1166.3,98.1,1161.9z"></path>
        <path class="fill-current" d="M129.2,1173.6c-13.9,0-25,9.9-25,26.8c0,17,11,27,25,27s25.1-10,25.1-27   C154.3,1183.5,143.2,1173.6,129.2,1173.6z M129.3,1211.5c-4.9,0-8.9-3.7-8.9-11.1c0-7.2,4-10.9,8.9-10.9c4.8,0,8.9,3.7,8.9,10.9   C138.2,1207.8,134,1211.5,129.3,1211.5z"></path>
        <path class="fill-current" d="M207.5,1175.1h-18.3c1.1,2.1,1.4,5.1,1.4,10.5l-0.1,13.1v1.4h-0.1l-0.8-1.3l-13.8-23.7h-15.3   c1.2,3.4,1.4,9.7,1.4,18.1v14.6c0,8.4-0.2,14.6-1.4,18.1h18.3c-1.1-2.1-1.4-5-1.4-10.5v-11.9h0.1l0.9,1.4l13.8,21h15.2   c-1.2-3.5-1.4-9.7-1.4-18.1l0.1-14.6C206.1,1184.8,206.3,1178.7,207.5,1175.1z"></path>
        <path class="fill-current" d="M214.2,1191.6c2-1.2,4.6-1.5,9.7-1.5h1.7v17.7c0,8.4-0.3,14.6-1.5,18.1h18.2c-1.3-3.4-1.5-9.7-1.5-18.1v-17.7   h1.7c5.1,0,7.8,0.3,9.7,1.5v-16.5h-38V1191.6z"></path>
        <path class="fill-current" d="M277.2,1175.1H259c1.3,3.4,1.5,9.7,1.5,18.1v14.6c0,8.4-0.2,14.6-1.5,18.1h18.2c-1.3-3.4-1.5-9.7-1.5-18.1   v-14.6C275.7,1184.8,276,1178.6,277.2,1175.1z"></path>
        <path class="fill-current" d="M329.9,1206.3v-21.5c0-10.6,0.2-18.4,1.8-22.8h-22.3c1.6,4.4,1.8,12.2,1.8,22.8v18.3c0,10.6-0.2,18.4-1.8,22.8   h38.7v-21.5c-2.4,1.4-5.8,1.8-12.1,1.9H329.9z"></path>
        <path class="fill-current" d="M357,1193.4v14.5c0,8.5-0.2,14.6-1.4,18.2h35.9V1210c-2,1.2-4.6,1.5-9.7,1.5h-9.6l-0.1-5.2h6.7   c5.1,0,8.6,0.2,9.7,0.8V1194c-1.1,0.6-4.6,0.8-9.7,0.8H372l0.1-5.2h9.6c5.1,0,7.8,0.3,9.7,1.5v0h0.1v-15.8h-35.9   C356.8,1178.7,357,1185,357,1193.4z"></path>
        <path class="fill-current" d="M423,1196.9c-4.2-3.3-7.6-4.3-7.6-6.3c0-1.5,1.4-2.4,3.7-2.4c2,0,4.4,0.7,6,2.6h0.7l2.3-15.2   c-2.5-1.2-6-2.1-10.4-2.1c-11.3,0-18.6,7-18.6,16.7c0,6,2.9,9.8,6.8,13c3.6,3,7.9,4.7,7.9,6.8c0,1.6-1.3,2.4-3.7,2.4   c-3,0-6.3-1.8-8-4.3h-0.6l-2.8,16.6c2.5,1.5,7.5,2.7,13.4,2.6c10.4,0,17.9-6.9,17.9-16.5C430,1204.4,428.1,1200.8,423,1196.9z"></path>
        <path class="fill-current" d="M459.3,1197c-4.2-3.3-7.6-4.3-7.6-6.3c0-1.5,1.4-2.4,3.7-2.4c2,0,4.4,0.7,6,2.6h0.7l2.2-15.3   c-2.5-1.2-6-2.1-10.4-2.1c-11.3,0-18.6,7-18.6,16.7c0,6,2.9,9.8,6.8,13c3.6,3,7.9,4.7,7.9,6.8c0,1.6-1.3,2.4-3.7,2.4   c-3,0-6.3-1.8-8-4.3h-0.6l-2.8,16.6c2.4,1.5,7.5,2.7,13.5,2.7c10.4,0,17.9-6.9,17.9-16.5C466.3,1204.5,464.4,1200.9,459.3,1197z"></path>
        <path class="fill-current" d="M491,1175.1h-18.2c1.3,3.4,1.5,9.7,1.5,18.1v14.6c0,8.4-0.2,14.6-1.5,18.1H491c-1.3-3.4-1.5-9.7-1.5-18.1   v-14.6C489.5,1184.8,489.8,1178.6,491,1175.1z"></path>
        <path class="fill-current" d="M545.7,1193.2c0-8.4,0.2-14.5,1.4-18.1h-18.3c1.1,2.1,1.4,5.1,1.4,10.5l-0.1,13.1v1.4H530l-0.8-1.3l-13.8-23.7   h-15.3c1.2,3.4,1.4,9.7,1.4,18.1v14.6c0,8.4-0.2,14.6-1.4,18.1h18.2c-1.1-2.1-1.4-5-1.4-10.5v-11.9h0.1l0.9,1.4l13.8,21h15.2   c-1.2-3.5-1.4-9.7-1.4-18.1h0.2V1193.2z"></path>
        <path class="fill-current" d="M572.6,1193.2c0-8.4,0.3-14.6,1.5-18.1h-18.2c1.3,3.4,1.5,9.7,1.5,18.1v14.6c0,8.4-0.2,14.6-1.5,18.1h18.2   c-1.3-3.4-1.5-9.7-1.5-18.1V1193.2z"></path>
    </g>
</svg>