<svg width="24" height="24" viewBox="0 0 24 24" fill="none"
    xmlns="http://www.w3.org/2000/svg">
    <g clip-path="url(#clip0_1_15)">
        <path d="M20 9H19V5.5C19 5.10217 18.842 4.72064 18.5607 4.43934C18.2794 4.15803 17.8978 4 17.5 4H16.29C16.0778 3.31971 15.6124 2.74693 14.99 2.4C14.4451 2.09577 13.8219 1.96102 13.2 2.013C12.9275 2.04348 12.6518 2.00306 12.3995 1.89566C12.1472 1.78827 11.9269 1.61753 11.76 1.4C11.3946 0.924491 10.9135 0.550561 10.3625 0.313891C9.81146 0.0772215 9.209 -0.0142897 8.61258 0.0480906C8.01615 0.110471 7.44567 0.324661 6.95556 0.67022C6.46546 1.01578 6.07209 1.48118 5.813 2.022C5.14431 1.94623 4.46979 2.10099 3.901 2.46066C3.33221 2.82034 2.90322 3.36339 2.685 4H1.5C1.10218 4 0.720644 4.15803 0.43934 4.43934C0.158035 4.72064 0 5.10217 0 5.5L0 18.5C0.00158817 19.9582 0.581561 21.3562 1.61267 22.3873C2.64377 23.4184 4.0418 23.9984 5.5 24H13.5C14.6961 23.998 15.8591 23.6066 16.813 22.8849C17.7669 22.1632 18.4598 21.1505 18.787 20H20C21.0609 20 22.0783 19.5786 22.8284 18.8284C23.5786 18.0783 24 17.0609 24 16V13C24 11.9391 23.5786 10.9217 22.8284 10.1716C22.0783 9.42142 21.0609 9 20 9ZM16 18.5C16 19.163 15.7366 19.7989 15.2678 20.2678C14.7989 20.7366 14.163 21 13.5 21H5.5C4.83696 21 4.20107 20.7366 3.73223 20.2678C3.26339 19.7989 3 19.163 3 18.5V7H3.5C3.89782 7 4.27936 7.15803 4.56066 7.43934C4.84196 7.72064 5 8.10217 5 8.5V13C5 13.5304 5.21071 14.0391 5.58579 14.4142C5.96086 14.7893 6.46957 15 7 15C7.53043 15 8.03914 14.7893 8.41421 14.4142C8.78929 14.0391 9 13.5304 9 13V8.5C9 8.10217 9.15804 7.72064 9.43934 7.43934C9.72064 7.15803 10.1022 7 10.5 7H16V18.5ZM21 16C21 16.2652 20.8946 16.5196 20.7071 16.7071C20.5196 16.8946 20.2652 17 20 17H19V12H20C20.2652 12 20.5196 12.1054 20.7071 12.2929C20.8946 12.4804 21 12.7348 21 13V16Z" fill="white"/>
    </g>
    <defs>
        <clipPath id="clip0_1_15">
            <rect width="24" height="24" fill="white"/>
        </clipPath>
    </defs>
</svg>
