<svg width="48" height="48" viewBox="0 0 48 48" fill="none"
    xmlns="http://www.w3.org/2000/svg">
    <path d="M9 35.5385C9 37.4502 10.5498 39 12.4615 39H17.6538C20.5215 39 22.8462 36.6753 22.8462 33.8077V28.6154C22.8462 26.7036 21.2964 25.1538 19.3846 25.1538H14.1923C11.3247 25.1538 9 27.4785 9 30.3462V35.5385Z" fill="black"/>
    <path d="M9 12.4615C9 10.5498 10.5498 9 12.4615 9H17.6538C20.5215 9 22.8462 11.3247 22.8462 14.1923V19.3846C22.8462 21.2964 21.2964 22.8462 19.3846 22.8462H14.1923C11.3247 22.8462 9 20.5215 9 17.6538V12.4615Z" fill="black"/>
    <path d="M39 35.5385C39 37.4502 37.4502 39 35.5385 39L30.3462 39C27.4785 39 25.1538 36.6753 25.1538 33.8077L25.1538 28.6154C25.1538 26.7036 26.7036 25.1538 28.6154 25.1538L33.8077 25.1538C36.6753 25.1538 39 27.4785 39 30.3462L39 35.5385Z" fill="black"/>
    <path d="M39 12.4615C39 10.5498 37.4502 9 35.5385 9L30.3462 9C27.4785 9 25.1538 11.3247 25.1538 14.1923L25.1538 19.3846C25.1538 21.2964 26.7036 22.8462 28.6154 22.8462L33.8077 22.8462C36.6753 22.8462 39 20.5215 39 17.6538L39 12.4615Z" fill="black"/>
</svg>
    