<svg width="32" height="32" viewBox="0 0 32 32" fill="none"
    xmlns="http://www.w3.org/2000/svg">
    <g opacity="0.2">
        <path d="M16.6667 11.9999C14.4 11.9999 12.6667 13.7333 12.6667 15.9999C12.6667 18.2666 14.4 19.9999 16.6667 19.9999C18.9334 19.9999 20.6667 18.2666 20.6667 15.9999C20.6667 13.7333 18.9334 11.9999 16.6667 11.9999ZM29.8667 15.4666C27.2 9.19992 22.1334 5.33325 16.6667 5.33325C11.2 5.33325 6.13337 9.19992 3.4667 15.4666C3.33337 15.8666 3.33337 16.1333 3.4667 16.5333C6.13337 22.7999 11.2 26.6666 16.6667 26.6666C22.1334 26.6666 27.2 22.7999 29.8667 16.5333C30 16.1333 30 15.8666 29.8667 15.4666ZM16.6667 22.6666C12.9334 22.6666 10 19.7333 10 15.9999C10 12.2666 12.9334 9.33325 16.6667 9.33325C20.4 9.33325 23.3334 12.2666 23.3334 15.9999C23.3334 19.7333 20.4 22.6666 16.6667 22.6666Z" fill="white"/>
    </g>
</svg>
    