<svg width="48" height="48" viewBox="0 0 48 48" fill="none"
    xmlns="http://www.w3.org/2000/svg">
    <path fill-rule="evenodd" clip-rule="evenodd" d="M8.444 10.7281C10.4672 8.70559 13.1461 7.47212 15.9982 7.24991C18.8503 7.0277 21.688 7.83135 24 9.51607C26.4425 7.74892 29.4605 6.96551 32.4541 7.32154C35.4477 7.67757 38.1978 9.14698 40.1576 11.4377C42.1175 13.7284 43.1437 16.6727 43.0322 19.6854C42.9208 22.698 41.6798 25.5584 39.556 27.6981L28.242 39.0121C27.1168 40.1369 25.591 40.7688 24 40.7688C22.409 40.7688 20.8832 40.1369 19.758 39.0121L8.444 27.7001C6.19374 25.4497 4.92957 22.3975 4.92957 19.2151C4.92957 16.0326 6.19374 12.9785 8.444 10.7281Z" fill="black"/>
</svg>
    