<svg width="24" height="24" viewBox="0 0 24 24" fill="none"
    xmlns="http://www.w3.org/2000/svg">
    <g clip-path="url(#clip0_403_3385)">
        <path d="M14.9998 24L8.99982 19.5V14.38L0.999817 5.38V3C0.999817 2.20435 1.31589 1.44129 1.8785 0.87868C2.44111 0.31607 3.20417 0 3.99982 0L19.9998 0C20.7955 0 21.5585 0.31607 22.1211 0.87868C22.6837 1.44129 22.9998 2.20435 22.9998 3V5.38L14.9998 14.38V24ZM10.9998 18.5L12.9998 20V13.62L20.9998 4.62V3C20.9998 2.73478 20.8945 2.48043 20.7069 2.29289C20.5194 2.10536 20.265 2 19.9998 2H3.99982C3.7346 2 3.48025 2.10536 3.29271 2.29289C3.10517 2.48043 2.99982 2.73478 2.99982 3V4.62L10.9998 13.62V18.5Z" fill="#374957"/>
    </g>
    <defs>
        <clipPath id="clip0_403_3385">
            <rect width="24" height="24" fill="white"/>
        </clipPath>
    </defs>
</svg>
    