<svg width="21" height="16" viewBox="0 0 21 16" fill="none" xmlns="http://www.w3.org/2000/svg">
<g clip-path="url(#clip0_1_3942)">
<rect y="0.5" width="21" height="15" rx="3" fill="white"/>
<path fill-rule="evenodd" clip-rule="evenodd" d="M0 0.5H9V7.5H0V0.5Z" fill="#1A47B8"/>
<path fill-rule="evenodd" clip-rule="evenodd" d="M9 0.5V1.5H21V0.5H9ZM9 2.5V3.5H21V2.5H9ZM9 4.5V5.5H21V4.5H9ZM9 6.5V7.5H21V6.5H9ZM0 8.5V9.5H21V8.5H0ZM0 10.5V11.5H21V10.5H0ZM0 12.5V13.5H21V12.5H0ZM0 14.5V15.5H21V14.5H0Z" fill="#F93939"/>
<path fill-rule="evenodd" clip-rule="evenodd" d="M1 1.5V2.5H2V1.5H1ZM3 1.5V2.5H4V1.5H3ZM5 1.5V2.5H6V1.5H5ZM7 1.5V2.5H8V1.5H7ZM6 2.5V3.5H7V2.5H6ZM4 2.5V3.5H5V2.5H4ZM2 2.5V3.5H3V2.5H2ZM1 3.5V4.5H2V3.5H1ZM3 3.5V4.5H4V3.5H3ZM5 3.5V4.5H6V3.5H5ZM7 3.5V4.5H8V3.5H7ZM1 5.5V6.5H2V5.5H1ZM3 5.5V6.5H4V5.5H3ZM5 5.5V6.5H6V5.5H5ZM7 5.5V6.5H8V5.5H7ZM6 4.5V5.5H7V4.5H6ZM4 4.5V5.5H5V4.5H4ZM2 4.5V5.5H3V4.5H2Z" fill="white"/>
</g>
<defs>
<clipPath id="clip0_1_3942">
<rect y="0.5" width="21" height="15" rx="3" fill="white"/>
</clipPath>
</defs>
</svg>
