<svg width="21" height="16" viewBox="0 0 21 16" fill="none" xmlns="http://www.w3.org/2000/svg">
<g clip-path="url(#clip0_1_3946)">
<rect y="0.5" width="21" height="15" rx="3" fill="#F93939"/>
<path d="M19 0.5H2C0.89543 0.5 0 1.39543 0 2.5V13.5C0 14.6046 0.89543 15.5 2 15.5H19C20.1046 15.5 21 14.6046 21 13.5V2.5C21 1.39543 20.1046 0.5 19 0.5Z" fill="#F93939"/>
<path fill-rule="evenodd" clip-rule="evenodd" d="M0 4.5H21V11.5H0V4.5Z" fill="#FFDA2C"/>
<path fill-rule="evenodd" clip-rule="evenodd" d="M9 6.72204V9.24204C9 9.94204 8.328 10.502 7.5 10.502H5.5C4.674 10.5 4 9.93704 4 9.24004V6.72004C4 6.14804 4.448 5.67004 5.064 5.51504C5.25 4.99504 5.822 5.46104 6.5 5.46104C7.182 5.46104 7.75 4.99804 7.936 5.51604C8.55 5.67504 9 6.15404 9 6.72204Z" fill="#D4AF2C"/>
<path fill-rule="evenodd" clip-rule="evenodd" d="M9 7.5H10V10.5H9V7.5ZM3 7.5H4V10.5H3V7.5Z" fill="#CBCBCB"/>
<path fill-rule="evenodd" clip-rule="evenodd" d="M9 9.5H10V10.5H9V9.5ZM3 9.5H4V10.5H3V9.5Z" fill="#1A47B8"/>
<path fill-rule="evenodd" clip-rule="evenodd" d="M9 6.5H10V7.5H9V6.5ZM3 6.5H4V7.5H3V6.5Z" fill="#D4AF2C"/>
<path fill-rule="evenodd" clip-rule="evenodd" d="M5 6.5H6V8H5V6.5ZM7 8.5H8V10H7V8.5Z" fill="#AF010D"/>
<path fill-rule="evenodd" clip-rule="evenodd" d="M5 8.5H6V10H5V8.5Z" fill="#FFDA2C"/>
<path fill-rule="evenodd" clip-rule="evenodd" d="M7 6.5H8V8H7V6.5Z" fill="#AE6A3E"/>
<path fill-rule="evenodd" clip-rule="evenodd" d="M6 6.5L5 5.5H8L7 6.5H6Z" fill="#AF010D"/>
<path fill-rule="evenodd" clip-rule="evenodd" d="M6 4.5H7V5.5H6V4.5Z" fill="#D4AF2C"/>
</g>
<defs>
<clipPath id="clip0_1_3946">
<rect y="0.5" width="21" height="15" rx="3" fill="white"/>
</clipPath>
</defs>
</svg>
