<svg width="48" height="49" viewBox="0 0 48 49" fill="none"
    xmlns="http://www.w3.org/2000/svg">
    <path fill-rule="evenodd" clip-rule="evenodd" d="M24.4694 8.57799C27.7214 6.52199 32.0414 5.95399 35.7734 7.14999C43.8914 9.76799 46.4114 18.618 44.1574 25.66C40.6794 36.72 25.8254 44.97 25.1954 45.316C24.9714 45.44 24.7234 45.502 24.4754 45.502C24.2274 45.502 23.9814 45.442 23.7574 45.32C23.1314 44.978 8.38543 36.85 4.79142 25.662L4.78942 25.66C2.53342 18.616 5.04543 9.76399 13.1554 7.14999C16.9634 5.91799 21.1134 6.45999 24.4694 8.57799ZM14.0754 10.006C7.51343 12.122 5.86542 19.18 7.64742 24.746C10.4514 33.47 21.5294 40.524 24.4734 42.27C27.4274 40.506 38.5854 33.374 41.2994 24.754C43.0814 19.182 41.4274 12.124 34.8554 10.006C31.6714 8.98399 27.9574 9.60599 25.3934 11.59C24.8574 12.002 24.1134 12.01 23.5734 11.602C20.8574 9.55999 17.3094 8.96199 14.0754 10.006ZM32.9354 13.9778C35.6614 14.8598 37.5714 17.2738 37.8054 20.1278C37.8714 20.9538 37.2574 21.6778 36.4314 21.7438C36.3894 21.7478 36.3494 21.7498 36.3074 21.7498C35.5334 21.7498 34.8774 21.1558 34.8134 20.3718C34.6814 18.7278 33.5814 17.3398 32.0154 16.8338C31.2254 16.5778 30.7934 15.7318 31.0474 14.9458C31.3054 14.1578 32.1434 13.7298 32.9354 13.9778Z" fill="white"/>
</svg>
    