<svg width="12" height="10" viewBox="0 0 12 10" fill="none"
    xmlns="http://www.w3.org/2000/svg">
    <path d="M6 9.825C5.845 9.825 5.695 9.805 5.57 9.76C3.66 9.105 0.625 6.78 0.625 3.345C0.625 1.595 2.04 0.175003 3.78 0.175003C4.625 0.175003 5.415 0.505003 6 1.095C6.585 0.505003 7.375 0.175003 8.22 0.175003C9.96 0.175003 11.375 1.6 11.375 3.345C11.375 6.785 8.34 9.105 6.43 9.76C6.305 9.805 6.155 9.825 6 9.825ZM3.78 0.925003C2.455 0.925003 1.375 2.01 1.375 3.345C1.375 6.76 4.66 8.66 5.815 9.055C5.905 9.085 6.1 9.085 6.19 9.055C7.34 8.66 10.63 6.765 10.63 3.345C10.63 2.01 9.55 0.925003 8.225 0.925003C7.465 0.925003 6.76 1.28 6.305 1.895C6.165 2.085 5.845 2.085 5.705 1.895C5.24 1.275 4.54 0.925003 3.78 0.925003Z" fill="#0C1221"/>
</svg>
    