<svg width="24" height="24" viewBox="0 0 24 24" fill="none"
    xmlns="http://www.w3.org/2000/svg">
    <path d="M10.8119 19.7164C10.3989 19.3419 9.96215 18.9584 9.51348 18.5644C8.18268 17.3957 6.74739 16.1353 5.51932 14.7494C3.87736 12.8964 2.75 10.9696 2.75 8.96859C2.75 4.85936 6.81303 2.71787 9.87424 4.24242C11.168 4.88672 12.832 4.88672 14.1258 4.24242C17.187 2.71787 21.25 4.85935 21.25 8.96857C21.25 10.9695 20.1226 12.8964 18.4807 14.7494C17.2526 16.1353 15.8173 17.3957 14.4865 18.5644C14.0378 18.9584 13.6011 19.342 13.1881 19.7164C12.5487 20.2962 11.4513 20.2962 10.8119 19.7164Z" stroke="black" stroke-width="1.5" stroke-linecap="round"/>
</svg>
    