<svg width="48" height="48" viewBox="0 0 48 48" fill="none"
    xmlns="http://www.w3.org/2000/svg">
    <path fill-rule="evenodd" clip-rule="evenodd" d="M22.9584 5.18623C23.4155 4.74684 24.0354 4.5 24.6818 4.5C25.3281 4.5 25.948 4.74684 26.4051 5.18623L43.4681 21.5927C43.8089 21.9205 44.0409 22.3381 44.135 22.7926C44.229 23.2472 44.1807 23.7184 43.9962 24.1466C43.8118 24.5748 43.4994 24.9408 43.0987 25.1984C42.6979 25.4559 42.2267 25.5934 41.7447 25.5935H39.3072V39.6562C39.3072 40.2778 39.0503 40.874 38.5932 41.3135C38.1361 41.7531 37.5161 42 36.8696 42H31.9945C31.348 42 30.728 41.7531 30.2708 41.3135C29.8137 40.874 29.5569 40.2778 29.5569 39.6562V32.6249C29.5569 32.0033 29.3001 31.4071 28.8429 30.9676C28.3858 30.528 27.7658 30.2811 27.1193 30.2811H22.2442C21.5977 30.2811 20.9777 30.528 20.5206 30.9676C20.0634 31.4071 19.8066 32.0033 19.8066 32.6249V39.6562C19.8066 40.2778 19.5498 40.874 19.0927 41.3135C18.6356 41.7531 18.0155 42 17.3691 42H12.4939C11.8475 42 11.2275 41.7531 10.7703 41.3135C10.3132 40.874 10.0564 40.2778 10.0564 39.6562V25.5935H7.61881C7.13678 25.5934 6.6656 25.4559 6.26484 25.1984C5.86408 24.9408 5.55173 24.5748 5.36728 24.1466C5.18283 23.7184 5.13456 23.2472 5.22857 22.7926C5.32258 22.3381 5.55466 21.9205 5.89545 21.5927L22.9584 5.18623Z" fill="black"/>
</svg>
    