<svg width="36" height="36" viewBox="0 0 36 36" fill="none" xmlns="http://www.w3.org/2000/svg">
<path d="M12.4613 9.69233C12.4613 10.4268 12.1696 11.1311 11.6502 11.6505C11.1309 12.1698 10.4265 12.4616 9.69208 12.4616C8.95764 12.4616 8.25327 12.1698 7.73394 11.6505C7.21461 11.1311 6.92285 10.4268 6.92285 9.69233C6.92285 8.95788 7.21461 8.25352 7.73394 7.73418C8.25327 7.21485 8.95764 6.9231 9.69208 6.9231C10.4265 6.9231 11.1309 7.21485 11.6502 7.73418C12.1696 8.25352 12.4613 8.95788 12.4613 9.69233ZM12.4613 18C12.4613 18.7345 12.1696 19.4388 11.6502 19.9582C11.1309 20.4775 10.4265 20.7692 9.69208 20.7692C8.95764 20.7692 8.25327 20.4775 7.73394 19.9582C7.21461 19.4388 6.92285 18.7345 6.92285 18C6.92285 17.2656 7.21461 16.5612 7.73394 16.0419C8.25327 15.5225 8.95764 15.2308 9.69208 15.2308C10.4265 15.2308 11.1309 15.5225 11.6502 16.0419C12.1696 16.5612 12.4613 17.2656 12.4613 18ZM9.69208 29.0769C10.4265 29.0769 11.1309 28.7852 11.6502 28.2659C12.1696 27.7465 12.4613 27.0422 12.4613 26.3077C12.4613 25.5733 12.1696 24.8689 11.6502 24.3496C11.1309 23.8302 10.4265 23.5385 9.69208 23.5385C8.95764 23.5385 8.25327 23.8302 7.73394 24.3496C7.21461 24.8689 6.92285 25.5733 6.92285 26.3077C6.92285 27.0422 7.21461 27.7465 7.73394 28.2659C8.25327 28.7852 8.95764 29.0769 9.69208 29.0769ZM20.769 9.69233C20.769 10.4268 20.4772 11.1311 19.9579 11.6505C19.4386 12.1698 18.7342 12.4616 17.9998 12.4616C17.2653 12.4616 16.561 12.1698 16.0416 11.6505C15.5223 11.1311 15.2305 10.4268 15.2305 9.69233C15.2305 8.95788 15.5223 8.25352 16.0416 7.73418C16.561 7.21485 17.2653 6.9231 17.9998 6.9231C18.7342 6.9231 19.4386 7.21485 19.9579 7.73418C20.4772 8.25352 20.769 8.95788 20.769 9.69233ZM17.9998 20.7692C18.7342 20.7692 19.4386 20.4775 19.9579 19.9582C20.4772 19.4388 20.769 18.7345 20.769 18C20.769 17.2656 20.4772 16.5612 19.9579 16.0419C19.4386 15.5225 18.7342 15.2308 17.9998 15.2308C17.2653 15.2308 16.561 15.5225 16.0416 16.0419C15.5223 16.5612 15.2305 17.2656 15.2305 18C15.2305 18.7345 15.5223 19.4388 16.0416 19.9582C16.561 20.4775 17.2653 20.7692 17.9998 20.7692ZM20.769 26.3077C20.769 27.0422 20.4772 27.7465 19.9579 28.2659C19.4386 28.7852 18.7342 29.0769 17.9998 29.0769C17.2653 29.0769 16.561 28.7852 16.0416 28.2659C15.5223 27.7465 15.2305 27.0422 15.2305 26.3077C15.2305 25.5733 15.5223 24.8689 16.0416 24.3496C16.561 23.8302 17.2653 23.5385 17.9998 23.5385C18.7342 23.5385 19.4386 23.8302 19.9579 24.3496C20.4772 24.8689 20.769 25.5733 20.769 26.3077ZM26.3075 12.4616C27.0419 12.4616 27.7463 12.1698 28.2656 11.6505C28.7849 11.1311 29.0767 10.4268 29.0767 9.69233C29.0767 8.95788 28.7849 8.25352 28.2656 7.73418C27.7463 7.21485 27.0419 6.9231 26.3075 6.9231C25.573 6.9231 24.8687 7.21485 24.3493 7.73418C23.83 8.25352 23.5382 8.95788 23.5382 9.69233C23.5382 10.4268 23.83 11.1311 24.3493 11.6505C24.8687 12.1698 25.573 12.4616 26.3075 12.4616ZM29.0767 18C29.0767 18.7345 28.7849 19.4388 28.2656 19.9582C27.7463 20.4775 27.0419 20.7692 26.3075 20.7692C25.573 20.7692 24.8687 20.4775 24.3493 19.9582C23.83 19.4388 23.5382 18.7345 23.5382 18C23.5382 17.2656 23.83 16.5612 24.3493 16.0419C24.8687 15.5225 25.573 15.2308 26.3075 15.2308C27.0419 15.2308 27.7463 15.5225 28.2656 16.0419C28.7849 16.5612 29.0767 17.2656 29.0767 18ZM26.3075 29.0769C27.0419 29.0769 27.7463 28.7852 28.2656 28.2659C28.7849 27.7465 29.0767 27.0422 29.0767 26.3077C29.0767 25.5733 28.7849 24.8689 28.2656 24.3496C27.7463 23.8302 27.0419 23.5385 26.3075 23.5385C25.573 23.5385 24.8687 23.8302 24.3493 24.3496C23.83 24.8689 23.5382 25.5733 23.5382 26.3077C23.5382 27.0422 23.83 27.7465 24.3493 28.2659C24.8687 28.7852 25.573 29.0769 26.3075 29.0769Z" fill="white"/>
</svg>
