<svg width="20" height="20" viewBox="0 0 20 20" fill="none"
    xmlns="http://www.w3.org/2000/svg">
    <g opacity="0.7">
        <path d="M16.6667 4.16669C17.1269 4.16669 17.5 4.53978 17.5 5.00002C17.5 5.46026 17.1269 5.83335 16.6667 5.83335H3.33333C2.8731 5.83335 2.5 5.46026 2.5 5.00002C2.5 4.53978 2.8731 4.16669 3.33333 4.16669H16.6667ZM16.6667 9.16669C17.1269 9.16669 17.5 9.53978 17.5 10C17.5 10.4603 17.1269 10.8334 16.6667 10.8334H3.33333C2.8731 10.8334 2.5 10.4603 2.5 10C2.5 9.53978 2.8731 9.16669 3.33333 9.16669H16.6667ZM16.6667 14.1667C17.1269 14.1667 17.5 14.5398 17.5 15C17.5 15.4603 17.1269 15.8334 16.6667 15.8334H3.33333C2.8731 15.8334 2.5 15.4603 2.5 15C2.5 14.5398 2.8731 14.1667 3.33333 14.1667H16.6667Z" fill="white"/>
    </g>
</svg>
