<svg width="38" height="38" viewBox="0 0 38 38" fill="none"
    xmlns="http://www.w3.org/2000/svg">
    <path d="M19 4.75001C16.3766 4.75001 14.25 6.87666 14.25 9.50001V17.4167C14.25 20.04 16.3766 22.1667 19 22.1667C21.6234 22.1667 23.75 20.04 23.75 17.4167V9.50001C23.75 6.87666 21.6234 4.75001 19 4.75001ZM20.5833 31.5797V34.0417C20.5833 34.9161 19.8745 35.625 19 35.625C18.1255 35.625 17.4167 34.9161 17.4167 34.0417V31.5797C10.2917 30.7921 4.75 24.7516 4.75 17.4167C4.75 16.5422 5.45888 15.8333 6.33333 15.8333C7.20778 15.8333 7.91667 16.5422 7.91667 17.4167C7.91667 23.5378 12.8788 28.5 19 28.5C25.1212 28.5 30.0833 23.5378 30.0833 17.4167C30.0833 16.5422 30.7922 15.8333 31.6667 15.8333C32.5411 15.8333 33.25 16.5422 33.25 17.4167C33.25 24.7516 27.7083 30.7921 20.5833 31.5797ZM19 1.58334C23.3723 1.58334 26.9167 5.12776 26.9167 9.50001V17.4167C26.9167 21.7889 23.3723 25.3333 19 25.3333C14.6277 25.3333 11.0833 21.7889 11.0833 17.4167V9.50001C11.0833 5.12776 14.6277 1.58334 19 1.58334Z" fill="#010101"/>
</svg>
    