<svg width="28" height="28" viewBox="0 0 28 28" fill="none" xmlns="http://www.w3.org/2000/svg">
    <path d="M14.0232 3.39502C10.1615 3.39502 7.02319 6.53335 7.02319 10.395V13.7667C7.02319 14.4784 6.71986 15.5634 6.35819 16.17L5.01653 18.3984C4.18819 19.775 4.75986 21.3034 6.27653 21.8167C11.3049 23.4967 16.7299 23.4967 21.7582 21.8167C23.1699 21.35 23.7882 19.6817 23.0182 18.3984L21.6765 16.17C21.3265 15.5634 21.0232 14.4784 21.0232 13.7667V10.395C21.0232 6.54502 17.8732 3.39502 14.0232 3.39502Z" stroke="white" stroke-width="1.5" stroke-miterlimit="10" stroke-linecap="round"/>
    <path d="M16.1819 3.73331C15.8202 3.62831 15.4469 3.54664 15.0619 3.49997C13.9419 3.35997 12.8686 3.44164 11.8652 3.73331C12.2036 2.86997 13.0436 2.26331 14.0236 2.26331C15.0036 2.26331 15.8436 2.86997 16.1819 3.73331Z" stroke="white" stroke-width="1.5" stroke-miterlimit="10" stroke-linecap="round" stroke-linejoin="round"/>
    <path d="M17.5234 22.2367C17.5234 24.1617 15.9484 25.7367 14.0234 25.7367C13.0668 25.7367 12.1801 25.34 11.5501 24.71C10.9201 24.08 10.5234 23.1934 10.5234 22.2367" stroke="white" stroke-width="1.5" stroke-miterlimit="10"/>
    </svg>
    