<svg width="48" height="48" viewBox="0 0 48 48" fill="none"
    xmlns="http://www.w3.org/2000/svg">
    <path d="M24 4.5C24.6746 4.5 25.3215 4.76797 25.7985 5.24497C26.2755 5.72196 26.5435 6.36891 26.5435 7.04348V21.4565H40.9565C41.6311 21.4565 42.278 21.7245 42.755 22.2015C43.232 22.6785 43.5 23.3254 43.5 24C43.5 24.6746 43.232 25.3215 42.755 25.7985C42.278 26.2755 41.6311 26.5435 40.9565 26.5435H26.5435V40.9565C26.5435 41.6311 26.2755 42.278 25.7985 42.755C25.3215 43.232 24.6746 43.5 24 43.5C23.3254 43.5 22.6785 43.232 22.2015 42.755C21.7245 42.278 21.4565 41.6311 21.4565 40.9565V26.5435H7.04348C6.36891 26.5435 5.72196 26.2755 5.24497 25.7985C4.76797 25.3215 4.5 24.6746 4.5 24C4.5 23.3254 4.76797 22.6785 5.24497 22.2015C5.72196 21.7245 6.36891 21.4565 7.04348 21.4565H21.4565V7.04348C21.4565 6.36891 21.7245 5.72196 22.2015 5.24497C22.6785 4.76797 23.3254 4.5 24 4.5Z" fill="black"/>
</svg>
    