<svg width="48" height="48" viewBox="0 0 48 48" fill="none"
    xmlns="http://www.w3.org/2000/svg">
    <path fill-rule="evenodd" clip-rule="evenodd" d="M16 14C16 11.8783 16.8429 9.84344 18.3431 8.34315C19.8434 6.84285 21.8783 6 24 6C26.1217 6 28.1566 6.84285 29.6569 8.34315C31.1571 9.84344 32 11.8783 32 14C32 16.1217 31.1571 18.1566 29.6569 19.6569C28.1566 21.1571 26.1217 22 24 22C21.8783 22 19.8434 21.1571 18.3431 19.6569C16.8429 18.1566 16 16.1217 16 14ZM16 26C13.3478 26 10.8043 27.0536 8.92893 28.9289C7.05357 30.8043 6 33.3478 6 36C6 37.5913 6.63214 39.1174 7.75736 40.2426C8.88258 41.3679 10.4087 42 12 42H36C37.5913 42 39.1174 41.3679 40.2426 40.2426C41.3679 39.1174 42 37.5913 42 36C42 33.3478 40.9464 30.8043 39.0711 28.9289C37.1957 27.0536 34.6522 26 32 26H16Z" fill="black"/>
</svg>
    