<svg width="25" height="24" viewBox="0 0 25 24" fill="none"
    xmlns="http://www.w3.org/2000/svg">
    <path d="M17.5 3.3C13.6 1.1 8.8 1.8 5.6 4.7V3C5.6 2.4 5.2 2 4.6 2C4 2 3.6 2.4 3.6 3V7.5C3.6 8.1 4 8.5 4.6 8.5H9.1C9.7 8.5 10.1 8.1 10.1 7.5C10.1 6.9 9.7 6.5 9.1 6.5H6.7C8.2 4.9 10.3 4 12.5 4C16.9 4 20.5 7.6 20.5 12C20.5 12.6 20.9 13 21.5 13C22.1 13 22.5 12.6 22.5 12C22.5 8.4 20.6 5.1 17.5 3.3ZM20.4 15.5H15.9C15.3 15.5 14.9 15.9 14.9 16.5C14.9 17.1 15.3 17.5 15.9 17.5H18.3C16.8 19.1 14.7 20 12.5 20C8.1 20 4.5 16.4 4.5 12C4.5 11.4 4.1 11 3.5 11C2.9 11 2.5 11.4 2.5 12C2.5 17.5 7 22 12.5 22C15.1 22 17.5 21 19.4 19.2V21C19.4 21.6 19.8 22 20.4 22C21 22 21.4 21.6 21.4 21V16.5C21.4 15.9 20.9 15.5 20.4 15.5Z" fill="#FF5858"/>
</svg>
    