<svg width="24" height="24" viewBox="0 0 24 24" fill="none"
    xmlns="http://www.w3.org/2000/svg">
    <g clip-path="url(#clip0_1_59)">
        <path fill-rule="evenodd" clip-rule="evenodd" d="M11.672 4C10.608 4.00009 9.55946 4.25462 8.61383 4.74235C7.6682 5.23009 6.85292 5.93688 6.23601 6.80376C5.6191 7.67065 5.21846 8.67249 5.0675 9.7257C4.91654 10.7789 5.01965 11.8529 5.36821 12.8582C5.71678 13.8635 6.3007 14.7708 7.07127 15.5045C7.84183 16.2382 8.77668 16.777 9.79783 17.0759C10.819 17.3749 11.8968 17.4253 12.9414 17.223C13.986 17.0206 14.9671 16.5715 15.8028 15.9129L18.6696 18.7796C18.8177 18.9226 19.016 19.0018 19.2218 19C19.4276 18.9982 19.6245 18.9156 19.7701 18.7701C19.9156 18.6245 19.9982 18.4277 20 18.2218C20.0018 18.016 19.9226 17.8177 19.7796 17.6697L16.9128 14.8029C17.6884 13.819 18.1713 12.6367 18.3062 11.3912C18.4412 10.1457 18.2228 8.88732 17.676 7.76014C17.1292 6.63296 16.276 5.6825 15.2142 5.01752C14.1525 4.35254 12.9249 3.99992 11.672 4ZM6.56946 10.6723C6.56946 9.31911 7.10705 8.0213 8.06397 7.06442C9.02089 6.10754 10.3187 5.56996 11.672 5.56996C13.0253 5.56996 14.3232 6.10754 15.2801 7.06442C16.237 8.0213 16.7746 9.31911 16.7746 10.6723C16.7746 12.0256 16.237 13.3234 15.2801 14.2803C14.3232 15.2372 13.0253 15.7747 11.672 15.7747C10.3187 15.7747 9.02089 15.2372 8.06397 14.2803C7.10705 13.3234 6.56946 12.0256 6.56946 10.6723Z" fill="#A2A2A2"/>
    </g>
    <defs>
        <clipPath id="clip0_1_59">
            <rect width="24" height="24" fill="white"/>
        </clipPath>
    </defs>
</svg>
    