<svg viewBox="0 0 496 661"
    xmlns="http://www.w3.org/2000/svg" fill="#020202" class="absolute z-0 top-4 left-8 w-[110%] gsap:shadow/source" data-flip-id="malga-pidocchio:shadow">
    <defs>
        <filter id="blur" x="-6.448" y="-5.666" width="508.107" height="673.215" filterUnits="userSpaceOnUse" color-interpolation-filters="sRGB">
            <feGaussianBlur in="BackgroundImageFix" stdDeviation="4.275"></feGaussianBlur>
        </filter>
    </defs>
    <g opacity=".2" filter="url(#blur)">
        <path d="M3.45 648.611c-.76-3.605.942-6.247 4.773-8.043 4.25-1.992 5.286-5.858 5.058-10.253-.205-3.959-2.375-6.42-5.808-7.99-1.373-.629-2.987-.957-4.089-1.896-1.307-1.112-2.919-2.689-3.013-4.153-.078-1.237 1.622-2.861 2.899-3.838 1.347-1.031 3.142-1.464 4.713-2.22 3.612-1.737 5.309-4.595 5.345-8.645.037-4.157-1.535-7.202-5.319-9.014-1.78-.853-3.661-1.527-5.351-2.528-3.415-2.023-3.369-5.334.057-7.384 1.19-.712 2.495-1.248 3.786-1.767 4.28-1.719 6.81-4.539 6.845-9.458.037-5.082-2.565-7.976-6.995-9.705-1.081-.422-2.34-.706-3.142-1.455-1.196-1.117-2.83-2.58-2.847-3.913-.016-1.322 1.524-2.939 2.776-3.928 1.327-1.048 3.128-1.488 4.705-2.23 3.764-1.772 5.5-4.725 5.491-8.914-.01-4.179-1.71-7.147-5.494-8.91-1.685-.784-3.45-1.425-5.055-2.347-3.586-2.06-3.543-5.524.082-7.581 1.407-.799 2.96-1.341 4.444-2.009 3.853-1.734 5.962-4.535 6.025-8.942.066-4.507-1.84-7.553-5.882-9.379-1.693-.765-3.467-1.407-5.034-2.38-3.05-1.892-3.086-5.102-.055-7.003 1.76-1.103 3.757-1.825 5.64-2.732 3.775-1.819 5.371-4.852 5.324-9.012-.046-4.04-1.732-6.909-5.353-8.641-1.467-.702-3.158-1.095-4.398-2.072-1.356-1.07-3.276-2.722-3.185-3.994.109-1.523 1.901-3.137 3.308-4.292 1.215-.996 2.929-1.369 4.39-2.081 3.623-1.765 5.225-4.694 5.24-8.716.014-4.009-1.509-6.985-5.127-8.784-1.871-.93-3.873-1.627-5.658-2.696-3.236-1.938-3.25-5.236-.024-7.191 1.777-1.078 3.784-1.77 5.655-2.702 3.607-1.797 5.165-4.751 5.154-8.769-.012-4.022-1.604-6.951-5.218-8.73-1.145-.564-2.344-1.019-3.499-1.564-2.118-.998-4.944-2.065-4.264-4.728.468-1.836 2.827-3.237 4.455-4.706.568-.512 1.485-.629 2.23-.955 4.131-1.804 6.348-4.764 6.31-9.476-.038-4.579-2.283-7.39-6.247-9.166-1.589-.713-3.264-1.299-4.721-2.224-3.018-1.916-3.003-5.094.016-7.014 1.36-.865 2.906-1.455 4.405-2.082 4.144-1.736 6.505-4.566 6.544-9.309.04-4.893-2.352-7.831-6.657-9.578-1.076-.437-2.335-.701-3.15-1.442-1.29-1.174-3.127-2.668-3.15-4.054-.024-1.375 1.714-3.022 3.042-4.105 1.216-.992 2.93-1.362 4.402-2.055 3.76-1.769 5.503-4.714 5.505-8.905.002-4.185-1.712-7.139-5.47-8.931-1.887-.899-3.89-1.618-5.633-2.741-2.857-1.841-2.834-4.956.038-6.795 1.647-1.056 3.538-1.735 5.33-2.563 3.893-1.799 5.753-4.772 5.739-9.123-.015-4.376-1.994-7.276-5.882-9.029-1.482-.668-3.024-1.23-4.441-2.016-3.819-2.118-3.861-5.641-.08-7.761 1.615-.906 3.383-1.536 5.06-2.338 3.625-1.736 5.289-4.615 5.334-8.653.046-4.165-1.556-7.196-5.338-9-1.677-.801-3.555-1.314-5.015-2.398-1.195-.885-2.69-2.468-2.624-3.663.078-1.399 1.488-2.97 2.716-3.988 1.206-1 2.912-1.397 4.394-2.066 4.04-1.823 5.952-4.874 5.874-9.384-.076-4.404-2.208-7.188-6.047-8.938-1.69-.77-3.478-1.397-5.025-2.394-2.868-1.849-2.891-4.948-.028-6.794 1.744-1.124 3.743-1.849 5.63-2.748 3.762-1.792 5.472-4.752 5.468-8.933-.005-4.191-1.76-7.128-5.526-8.892-.947-.444-1.915-.841-2.867-1.273-2.233-1.015-4.802-1.884-4.747-4.908.056-3.005 2.668-3.799 4.891-4.805.953-.432 1.92-.833 2.863-1.286 3.612-1.736 5.336-4.578 5.379-8.626.043-4.147-1.501-7.213-5.29-9.032-1.884-.905-3.883-1.618-5.648-2.712-3.038-1.883-3.038-5.105 0-7.002 1.761-1.099 3.757-1.822 5.64-2.727 3.785-1.819 5.35-4.866 5.3-9.023-.048-4.05-1.768-6.895-5.38-8.626-1.467-.702-3.161-1.093-4.397-2.074-1.35-1.071-3.144-2.644-3.17-4.028-.025-1.376 1.7-3.048 3.038-4.11 1.323-1.052 3.146-1.457 4.707-2.231 3.6-1.784 5.204-4.708 5.202-8.739-.002-4.016-1.539-6.972-5.165-8.756-1.875-.922-3.872-1.632-5.65-2.71-3.223-1.953-3.205-5.264.034-7.191 1.788-1.065 3.787-1.769 5.657-2.701 3.616-1.801 5.14-4.777 5.125-8.786-.014-4.024-1.624-6.95-5.246-8.71-1.567-.761-3.397-1.158-4.713-2.212-1.33-1.065-2.91-2.694-3-4.16-.075-1.244 1.609-2.889 2.894-3.846 1.458-1.083 3.373-1.53 5.028-2.372 3.446-1.754 5.004-4.602 5.038-8.488.034-3.994-1.414-7.02-5.014-8.86-1.86-.95-3.867-1.64-5.659-2.7-3.417-2.02-3.383-5.362.064-7.373 1.698-.991 3.608-1.61 5.353-2.53 6.858-3.62 7.263-13.33.76-17.572-5.36-3.498-6.61-6.497-5.26-12.783.542-2.513 2.012-4.17 4.64-4.57 2.698-.41 4.535.919 5.618 3.213 2.108 4.465 5.401 6.76 10.463 6.606 3.906-.118 6.654-1.806 8.374-5.235.937-1.868 1.612-3.885 2.691-5.66C37.22.147 40.457.109 42.376 3.101c.932 1.454 1.55 3.117 2.24 4.716 1.727 4.013 4.538 6.271 9.11 6.287 4.545.015 7.452-2.113 9.195-6.151.645-1.493 1.224-3.034 2.042-4.43 2.079-3.552 5.552-3.488 7.582.137.85 1.515 1.442 3.173 2.17 4.758 1.794 3.907 4.796 5.732 9.142 5.682 4.254-.049 6.994-2.102 8.734-5.794.792-1.681 1.402-3.471 2.37-5.043 1.967-3.198 5.266-3.153 7.197.094 1.005 1.689 1.672 3.576 2.531 5.354 1.81 3.751 4.797 5.448 8.975 5.387 4.064-.06 6.848-1.896 8.569-5.483.754-1.572 1.185-3.378 2.233-4.706.988-1.251 2.604-2.791 3.927-2.776 1.328.015 2.917 1.582 3.879 2.856 1.093 1.448 1.572 3.35 2.4 5.013 1.802 3.619 4.787 5.15 8.794 5.09 3.878-.06 6.703-1.663 8.409-5.148.92-1.878 1.608-3.887 2.676-5.671 1.914-3.195 5.312-3.177 7.226.034 1.065 1.788 1.759 3.794 2.691 5.666 1.725 3.466 4.549 5.08 8.43 5.123 4.007.044 6.983-1.497 8.775-5.127.925-1.875 1.634-3.872 2.706-5.654 1.946-3.232 5.255-3.24 7.197-.014 1.072 1.782 1.745 3.798 2.686 5.664 1.809 3.59 4.763 5.172 8.782 5.133 3.894-.038 6.701-1.677 8.449-5.109.949-1.861 1.625-3.876 2.691-5.661 1.934-3.24 5.245-3.264 7.202-.046 1.081 1.775 1.779 3.78 2.706 5.653 1.715 3.467 4.508 5.108 8.402 5.157 4.01.051 6.99-1.486 8.803-5.09.887-1.764 1.548-3.65 2.514-5.365 2.039-3.624 5.523-3.66 7.561-.072 1.03 1.812 1.726 3.81 2.684 5.667 1.713 3.32 4.503 4.805 8.23 4.86 3.847.058 6.816-1.324 8.642-4.767.87-1.64 1.304-3.568 2.397-5.016 1.032-1.368 2.655-3.125 4.046-3.149 1.366-.024 2.937 1.764 4.093 3.048.812.901 1.082 2.292 1.594 3.463 1.789 4.103 4.65 6.469 9.391 6.436 4.768-.034 7.51-2.543 9.25-6.64.589-1.388 1.117-2.828 1.897-4.108 1.972-3.237 5.209-3.299 7.208-.108.917 1.464 1.512 3.134 2.218 4.726 1.778 4.008 4.68 6.168 9.228 6.124 4.378-.042 7.249-2.064 8.942-5.985.507-1.174.794-2.542 1.59-3.47 1.206-1.404 2.861-3.568 4.158-3.458 1.6.136 3.182 2.14 4.476 3.598.806.908 1.053 2.305 1.575 3.474 1.741 3.907 4.667 5.85 9.035 5.843 4.4-.006 7.226-2.099 8.988-5.95.774-1.69 1.391-3.482 2.381-5.035 1.919-3.01 5.157-2.973 7.015.085 1.078 1.776 1.753 3.792 2.689 5.661 1.792 3.578 4.689 5.244 8.726 5.236 4.048-.008 6.909-1.724 8.668-5.316.817-1.669 1.428-3.446 2.327-5.067 2.099-3.781 5.649-3.75 7.759.063.898 1.622 1.545 3.38 2.352 5.055 1.752 3.632 4.667 5.259 8.692 5.262 4.041.003 6.922-1.698 8.683-5.294.868-1.775 1.501-3.677 2.486-5.379 1.96-3.384 5.426-3.373 7.417.026.994 1.696 1.635 3.595 2.506 5.367 1.768 3.593 4.645 5.282 8.69 5.278 4.034-.004 6.933-1.651 8.695-5.263.866-1.775 1.526-3.662 2.517-5.36 1.998-3.417 5.406-3.44 7.397-.052.937 1.593 1.554 3.374 2.344 5.056 1.617 3.444 4.19 5.46 8.129 5.595 4.115.142 7.608-.898 9.819-4.684a50.59 50.59 0 0 0 1.022-1.827c1.345-2.543 3.333-3.921 6.274-3.154 2.897.756 3.943 2.929 4.169 5.752.399 5.004-.088 8.984-5.531 11.793-6.493 3.35-5.862 13.5.529 17.076 1.415.792 3.159 1.107 4.385 2.096 1.506 1.215 3.66 2.93 3.628 4.387-.032 1.49-2.229 3.106-3.748 4.333-1.138.918-2.729 1.257-4.074 1.942-3.597 1.83-5.104 4.823-5.074 8.823.03 3.873 1.568 6.745 5.004 8.518 1.855.958 3.865 1.635 5.658 2.69 3.406 2.003 3.366 5.356-.027 7.399-1.089.655-2.279 1.165-3.468 1.624-4.407 1.701-7.14 4.49-7.182 9.588-.045 5.268 2.785 8.112 7.319 9.848 1.083.415 2.165.874 3.166 1.453 3.6 2.084 3.654 5.538.063 7.592-1.808 1.035-3.825 1.701-5.669 2.679-3.422 1.812-4.882 4.73-4.868 8.599.015 3.861 1.476 6.773 4.9 8.585 1.539.814 3.368 1.207 4.694 2.259 1.426 1.131 3.361 2.832 3.331 4.247-.03 1.431-2.032 3.024-3.474 4.159-1.242.978-2.942 1.355-4.388 2.095-3.589 1.837-5.092 4.83-5.062 8.835.029 3.884 1.585 6.737 5.016 8.509 1.857.959 3.869 1.635 5.662 2.693 3.406 2.01 3.362 5.373-.065 7.385-1.394.819-2.948 1.367-4.435 2.027-4.142 1.841-6.263 4.873-6.186 9.559.074 4.585 2.401 7.345 6.369 9.083 1.489.652 3.046 1.205 4.423 2.047 3.219 1.969 3.246 5.251.032 7.204-1.677 1.02-3.561 1.695-5.346 2.538-3.769 1.782-5.476 4.751-5.471 8.93.005 4.19 1.78 7.12 5.527 8.901.84.399 1.692.773 2.539 1.155 2.326 1.05 5.102 1.842 5.064 5.038-.036 3.001-2.681 3.783-4.902 4.791-.953.432-1.915.843-2.857 1.298-3.763 1.816-5.4 4.833-5.366 8.994.033 4.036 1.703 6.919 5.318 8.668 1.777.86 3.66 1.531 5.351 2.531 3.397 2.01 3.363 5.367-.043 7.397-1.289.769-2.723 1.304-4.114 1.891-4.136 1.744-6.507 4.588-6.526 9.326-.02 4.706 2.215 7.652 6.361 9.441 1.492.644 3.041 1.214 4.42 2.054 3.23 1.968 3.266 5.241.042 7.193-1.778 1.077-3.782 1.776-5.65 2.71-3.601 1.801-5.18 4.754-5.162 8.77.019 4.01 1.598 6.958 5.224 8.73 1.147.561 2.344 1.019 3.499 1.564 2.118.999 4.889 2.037 4.261 4.743-.406 1.749-2.574 3.193-4.163 4.523-.943.789-2.308 1.06-3.459 1.616-3.755 1.818-5.401 4.827-5.36 8.998.039 4.039 1.712 6.917 5.321 8.667 1.673.81 3.438 1.445 5.058 2.346 3.782 2.104 3.738 5.619-.051 7.776-.703.4-1.465.709-2.223 1-4.641 1.777-8.109 4.322-8.132 10.027-.022 5.674 3.304 8.335 7.984 10.135 1.078.415 2.167.892 3.117 1.538 2.817 1.916 2.876 4.979.021 6.82-1.743 1.123-3.744 1.845-5.631 2.743-3.764 1.789-5.472 4.752-5.469 8.931.001 4.198 1.78 7.123 5.538 8.888 1.367.642 2.969.988 4.079 1.926 1.395 1.18 3.203 2.769 3.317 4.294.094 1.268-1.829 2.921-3.183 3.993-1.238.978-2.925 1.379-4.393 2.079-3.78 1.803-5.385 4.842-5.353 8.997.032 4.038 1.718 6.918 5.329 8.662 1.569.758 3.37 1.179 4.718 2.208 1.28.977 2.977 2.599 2.904 3.844-.085 1.465-1.716 3.007-2.986 4.18-.886.818-2.288 1.084-3.466 1.579-4.14 1.74-6.5 4.605-6.514 9.337-.015 4.701 2.221 7.646 6.372 9.434 1.599.688 3.266 1.304 4.711 2.244 2.856 1.861 2.886 4.96.025 6.81-1.74 1.126-3.745 1.842-5.631 2.742-3.759 1.794-5.471 4.757-5.466 8.936.006 4.197 1.799 7.117 5.547 8.887 1.365.645 2.97.985 4.078 1.923 1.395 1.182 3.198 2.776 3.31 4.303.092 1.268-1.834 2.918-3.19 3.988-1.24.978-2.93 1.372-4.394 2.079-3.761 1.815-5.394 4.834-5.348 9.002.046 4.038 1.729 6.91 5.34 8.656 1.777.86 3.665 1.524 5.352 2.529 3.387 2.018 3.326 5.389-.077 7.413-1.092.65-2.288 1.144-3.478 1.605-4.404 1.711-7.136 4.51-7.151 9.608-.015 5.073 2.603 7.952 7.031 9.693 1.4.551 2.82 1.152 4.065 1.978 2.832 1.88 2.863 4.967-.001 6.813-1.743 1.123-3.745 1.842-5.631 2.742-3.76 1.795-5.464 4.76-5.453 8.941.011 4.196 1.802 7.116 5.548 8.887 1.26.596 2.755.898 3.766 1.771 1.471 1.27 3.467 2.863 3.602 4.456.109 1.286-2.055 2.963-3.491 4.118-1.139.916-2.715 1.281-4.076 1.935-3.773 1.812-5.387 4.845-5.344 9.005.042 4.036 1.722 6.911 5.344 8.651 1.78.855 3.661 1.533 5.348 2.539 3.384 2.017 3.339 5.416-.091 7.395-1.703.983-3.616 1.596-5.36 2.517-6.848 3.619-7.239 13.356-.735 17.582 5.374 3.492 6.804 6.488 5.095 12.75-.48 1.757-2.476 3.616-4.232 4.384-2.399 1.048-4.56-.417-5.695-2.763-2.111-4.366-5.227-6.944-10.339-6.855-4.027.07-6.928 1.689-8.698 5.288-.923 1.875-1.607 3.888-2.694 5.657-1.879 3.057-5.101 3.068-7.003.04-.981-1.56-1.599-3.349-2.37-5.041-1.76-3.858-4.603-5.939-8.993-5.938-4.362.001-7.294 1.95-9.038 5.857-.474 1.062-.703 2.334-1.439 3.155-1.376 1.534-2.95 3.735-4.613 3.897-1.321.129-3.063-2.232-4.305-3.746-.851-1.036-1.114-2.538-1.724-3.791-1.748-3.592-4.597-5.348-8.642-5.363-4.017-.015-6.958 1.577-8.74 5.196-.923 1.876-1.636 3.874-2.723 5.646-1.971 3.217-5.25 3.169-7.187-.09-1.004-1.688-1.669-3.576-2.524-5.356-1.734-3.606-4.575-5.363-8.62-5.401-4.184-.04-7.144 1.721-8.928 5.472-.8 1.679-1.408 3.459-2.321 5.07-2.041 3.601-5.504 3.575-7.569-.059-.972-1.711-1.656-3.583-2.527-5.354-1.788-3.638-4.778-5.158-8.778-5.123-3.884.033-6.708 1.655-8.435 5.116-.933 1.87-1.603 3.887-2.666 5.675-1.916 3.224-5.285 3.244-7.216.046-1.014-1.68-1.652-3.585-2.506-5.365-1.795-3.739-4.742-5.517-8.93-5.475-4.04.039-6.898 1.754-8.614 5.388-.645 1.367-1.005 2.949-1.926 4.082-1.161 1.428-2.743 3.422-4.183 3.455-1.409.033-2.982-1.981-4.259-3.312-.679-.708-.908-1.862-1.298-2.832-1.724-4.286-4.594-6.809-9.496-6.795-4.935.014-7.691 2.68-9.404 6.93-.477 1.185-.802 2.543-1.61 3.455-1.009 1.139-2.492 2.683-3.688 2.614-1.395-.079-2.998-1.48-3.969-2.729-1.11-1.429-1.593-3.336-2.403-5.008-1.757-3.632-4.689-5.246-8.706-5.245-4.033.001-6.923 1.69-8.675 5.303-.861 1.777-1.506 3.673-2.492 5.374-1.971 3.399-5.428 3.389-7.407-.024-.987-1.701-1.626-3.6-2.497-5.373-1.766-3.597-4.657-5.285-8.693-5.281-4.025.003-6.938 1.639-8.687 5.271-.806 1.673-1.44 3.439-2.338 5.059-2.115 3.816-5.654 3.844-7.762.066-.846-1.516-1.444-3.171-2.173-4.755-1.73-3.762-4.605-5.641-8.812-5.648-4.185-.007-7.128 1.771-8.882 5.544-.686 1.475-1.07 3.183-2.064 4.396-1.084 1.321-2.668 2.932-4.126 3.03-1.238.082-2.807-1.64-3.858-2.88-.864-1.019-1.194-2.497-1.741-3.781-1.709-4.017-4.534-6.288-9.099-6.31-4.528-.022-7.476 2.052-9.203 6.125-.634 1.498-1.231 3.029-2.041 4.432-2.066 3.578-5.522 3.548-7.566-.082-.91-1.614-1.519-3.395-2.329-5.068-1.74-3.592-4.579-5.361-8.626-5.401-4.182-.042-7.143 1.708-8.941 5.453-.854 1.781-1.509 3.676-2.526 5.355-1.957 3.231-5.255 3.226-7.188-.014-1.065-1.786-1.741-3.801-2.688-5.664-1.818-3.579-4.771-5.169-8.791-5.129-3.893.04-6.702 1.673-8.447 5.11-.946 1.863-1.629 3.873-2.69 5.662-1.931 3.253-5.222 3.279-7.18.049-1.079-1.777-1.776-3.782-2.705-5.656-1.719-3.463-4.517-5.11-8.406-5.163-4.001-.054-6.988 1.465-8.815 5.07-.578 1.14-.85 2.5-1.634 3.453-1.382 1.681-2.83 4.008-4.65 4.462-2.642.658-3.767-2.083-4.692-4.276-.407-.965-.828-1.923-1.257-2.878-1.754-3.902-4.688-5.843-9.05-5.84-4.396.003-7.227 2.104-8.986 5.953-.724 1.586-1.303 3.257-2.19 4.744-2.021 3.389-5.428 3.37-7.398-.049-.982-1.703-1.584-3.622-2.497-5.37-3.592-6.877-13.35-7.316-17.594-.816a14.92 14.92 0 0 0-.88 1.506c-1.371 2.766-3.33 4.59-6.647 3.685-3.25-.886-4.159-3.417-4.105-6.482.01-.583.001-1.165.001-2.32Z"></path>
    </g>
</svg>