<svg width="24" height="24" viewBox="0 0 24 24" fill="none"
    xmlns="http://www.w3.org/2000/svg">
    <g clip-path="url(#clip0_17_2815)">
        <path d="M6.76 4.84005L4.96 3.05005L3.55 4.46005L5.34 6.25005L6.76 4.84005ZM1 10.5H4V12.5H1V10.5ZM11 0.550049H13V3.50005H11V0.550049ZM19.04 3.04505L20.448 4.45205L18.658 6.24205L17.251 4.83405L19.04 3.04505ZM17.24 18.16L19.03 19.96L20.44 18.55L18.64 16.76L17.24 18.16ZM20 10.5H23V12.5H20V10.5ZM12 5.50005C8.69 5.50005 6 8.19005 6 11.5C6 14.81 8.69 17.5 12 17.5C15.31 17.5 18 14.81 18 11.5C18 8.19005 15.31 5.50005 12 5.50005ZM12 15.5C9.79 15.5 8 13.71 8 11.5C8 9.29005 9.79 7.50005 12 7.50005C14.21 7.50005 16 9.29005 16 11.5C16 13.71 14.21 15.5 12 15.5ZM11 19.5H13V22.4501H11V19.5ZM3.55 18.5401L4.96 19.9501L6.75 18.15L5.34 16.74L3.55 18.5401Z" fill="#323232"/>
    </g>
    <defs>
        <clipPath id="clip0_17_2815">
            <rect width="24" height="24" fill="white"/>
        </clipPath>
    </defs>
</svg>
    