<svg width="48" height="48" viewBox="0 0 48 48" fill="none"
    xmlns="http://www.w3.org/2000/svg">
    <g clip-path="url(#clip0_1_390)">
        <path fill-rule="evenodd" clip-rule="evenodd" d="M11.4421 5.10123C12.6377 3.79003 14.2593 3.0532 15.9504 3.05281C17.6296 3.05281 20.0909 2.54012 20.8434 4.70972C21.1502 5.59304 21.6946 6.35329 22.4044 6.8897C23.1142 7.42611 23.956 7.71335 24.8181 7.71335C25.6802 7.71335 26.522 7.42611 27.2318 6.8897C27.9417 6.35329 28.4861 5.59304 28.7929 4.70972C29.5453 2.54245 32.0088 3.05514 33.6858 3.05514C35.3758 3.05553 36.9966 3.79146 38.192 5.10123L46.0735 13.74C46.8704 14.614 47.3181 15.7993 47.3181 17.0352C47.3181 18.2711 46.8704 19.4564 46.0735 20.3304L42.9319 23.7747C41.8266 24.9865 40.2835 25.3804 38.8934 25.0005L39.4715 37.6592C39.5148 38.6055 39.3821 39.5516 39.0816 40.4399C38.781 41.3283 38.319 42.1404 37.7234 42.8269C37.1278 43.5135 36.4112 44.0601 35.617 44.4337C34.8228 44.8073 33.9676 44.9999 33.1034 45H16.5328C15.6686 44.9999 14.8134 44.8073 14.0192 44.4337C13.2251 44.0601 12.5084 43.5135 11.9128 42.8269C11.3173 42.1404 10.8552 41.3283 10.5547 40.4399C10.2542 39.5516 10.1215 38.6055 10.1647 37.6592L10.7428 25.0005C10.0305 25.197 9.28381 25.1873 8.5759 24.9724C7.86799 24.7576 7.22309 24.3449 6.70431 23.7747L3.56277 20.3304C2.76582 19.4564 2.31812 18.2711 2.31812 17.0352C2.31812 15.7993 2.76582 14.614 3.56277 13.74L11.4421 5.10123Z" fill="black"/>
    </g>
    <defs>
        <clipPath id="clip0_1_390">
            <rect width="48" height="48" fill="white"/>
        </clipPath>
    </defs>
</svg>
    