<svg width="24" height="24" viewBox="0 0 24 24" fill="none"
    xmlns="http://www.w3.org/2000/svg">
    <g clip-path="url(#clip0_403_3142)">
        <path d="M17.1151 8.05017C16.8284 8.12635 16.5707 8.28582 16.3746 8.50844C16.1785 8.73105 16.0529 9.0068 16.0135 9.30083C15.9741 9.59486 16.0228 9.89395 16.1535 10.1603C16.2841 10.4267 16.4907 10.6483 16.7473 10.7972C17.0039 10.9461 17.2988 11.0156 17.5949 10.9969C17.891 10.9782 18.1748 10.8721 18.4106 10.692C18.6464 10.512 18.8235 10.2661 18.9195 9.98543C19.0155 9.70475 19.0262 9.4019 18.9501 9.11517C18.8996 8.92474 18.812 8.74613 18.6924 8.58953C18.5729 8.43294 18.4236 8.30144 18.2532 8.20255C18.0828 8.10365 17.8946 8.03929 17.6993 8.01314C17.504 7.987 17.3055 7.99958 17.1151 8.05017Z" fill="#374957"/>
        <path d="M12.1149 5.05017C11.8282 5.12635 11.5705 5.28582 11.3744 5.50844C11.1784 5.73105 11.0527 6.0068 11.0133 6.30083C10.974 6.59486 11.0227 6.89396 11.1533 7.16031C11.2839 7.42666 11.4905 7.6483 11.7471 7.79721C12.0037 7.94612 12.2986 8.01561 12.5947 7.99689C12.8908 7.97817 13.1746 7.87209 13.4104 7.69205C13.6462 7.51202 13.8233 7.26611 13.9193 6.98543C14.0153 6.70475 14.026 6.4019 13.9499 6.11517C13.8994 5.92474 13.8118 5.74613 13.6922 5.58954C13.5727 5.43295 13.4234 5.30144 13.253 5.20255C13.0826 5.10365 12.8944 5.03929 12.6991 5.01314C12.5038 4.987 12.3053 4.99958 12.1149 5.05017Z" fill="#374957"/>
        <path d="M7.11519 8.05017C6.82849 8.12635 6.57081 8.28582 6.37474 8.50844C6.17866 8.73105 6.053 9.0068 6.01363 9.30083C5.97427 9.59486 6.02297 9.89395 6.15358 10.1603C6.28419 10.4267 6.49085 10.6483 6.74742 10.7972C7.00399 10.9461 7.29895 11.0156 7.59501 10.9969C7.89107 10.9782 8.17493 10.8721 8.4107 10.692C8.64648 10.512 8.82357 10.2661 8.9196 9.98543C9.01563 9.70475 9.02627 9.4019 8.95019 9.11517C8.89966 8.92474 8.81211 8.74613 8.69253 8.58953C8.57296 8.43294 8.42371 8.30144 8.25331 8.20255C8.08291 8.10365 7.89469 8.03929 7.69941 8.01314C7.50413 7.987 7.30561 7.99958 7.11519 8.05017Z" fill="#374957"/>
        <path d="M7.11519 14.0502C6.82849 14.1263 6.57081 14.2858 6.37474 14.5084C6.17866 14.7311 6.053 15.0068 6.01363 15.3008C5.97427 15.5949 6.02297 15.894 6.15358 16.1603C6.28419 16.4267 6.49085 16.6483 6.74742 16.7972C7.00399 16.9461 7.29895 17.0156 7.59501 16.9969C7.89107 16.9782 8.17493 16.8721 8.4107 16.6921C8.64648 16.512 8.82357 16.2661 8.9196 15.9854C9.01563 15.7048 9.02627 15.4019 8.95019 15.1152C8.89966 14.9247 8.81211 14.7461 8.69253 14.5895C8.57296 14.4329 8.42371 14.3014 8.25331 14.2025C8.08291 14.1036 7.89469 14.0393 7.69941 14.0131C7.50413 13.987 7.30561 13.9996 7.11519 14.0502Z" fill="#374957"/>
        <path d="M12.5001 0.00657659C10.8901 -0.0494051 9.28532 0.219367 7.7814 0.796869C6.27748 1.37437 4.90525 2.24878 3.74649 3.36796C2.58774 4.48714 1.66621 5.82819 1.03682 7.31114C0.40744 8.79409 0.0830967 10.3886 0.0831299 11.9996C0.0868351 15.181 1.35231 18.2311 3.60194 20.4808C5.85157 22.7304 8.90167 23.9959 12.0831 23.9996C12.4211 23.9996 12.7531 23.9776 13.0831 23.9496C13.3335 23.9285 13.5668 23.8139 13.7365 23.6286C13.9063 23.4433 14 23.2009 13.9991 22.9496L13.9671 19.3616C13.959 18.6525 14.1624 17.9572 14.5514 17.3643C14.9403 16.7714 15.4971 16.3079 16.1507 16.0329C16.8043 15.758 17.525 15.6841 18.2208 15.8206C18.9166 15.9572 19.5559 16.298 20.0571 16.7996L20.1571 16.8996C20.3841 17.1285 20.6654 17.2964 20.9747 17.3874C21.284 17.4785 21.6113 17.4899 21.9261 17.4206C22.2359 17.3556 22.5244 17.2137 22.765 17.008C23.0056 16.8023 23.1907 16.5395 23.3031 16.2436C23.8552 14.7939 24.1192 13.2504 24.0801 11.6996C23.9676 8.65359 22.7147 5.76106 20.5699 3.59531C18.4251 1.42956 15.5449 0.148689 12.5001 0.00657659ZM21.4821 15.4066L21.4681 15.3926C20.6865 14.6122 19.6904 14.082 18.6065 13.8694C17.5226 13.6568 16.4 13.7714 15.3815 14.1987C14.363 14.6259 13.4946 15.3465 12.8867 16.2687C12.2789 17.1909 11.9592 18.2731 11.9681 19.3776L11.9921 21.9996C9.33996 21.9876 6.80117 20.9226 4.93424 19.0388C3.06732 17.155 2.0252 14.6067 2.03713 11.9546C2.04906 9.30241 3.11408 6.76361 4.99788 4.89669C6.88168 3.02976 9.42996 1.98764 12.0821 1.99958C12.1991 1.99958 12.3171 1.99958 12.4351 2.00558C14.9715 2.12471 17.3706 3.19232 19.157 4.99684C20.9433 6.80136 21.9866 9.21112 22.0801 11.7486C22.1131 12.9922 21.9113 14.2308 21.4851 15.3996L21.4821 15.4066Z" fill="#374957"/>
    </g>
    <defs>
        <clipPath id="clip0_403_3142">
            <rect width="24" height="24" fill="white"/>
        </clipPath>
    </defs>
</svg>
    