<svg width="54" height="54" viewBox="0 0 54 54" fill="none"
    xmlns="http://www.w3.org/2000/svg">
    <g clip-path="url(#clip0_2006_361)">
        <path d="M21.2348 18.6249L18.5396 34.4415H22.8502L25.5476 18.6249H21.2348Z" fill="#272A32"/>
        <path d="M14.9252 18.6427L10.7033 29.4292L10.2532 27.8006C9.42054 25.8382 7.0568 23.0199 4.28174 21.2437L8.14222 34.4339L12.7034 34.4261L19.4919 18.6394L14.9252 18.6427Z" fill="#272A32"/>
        <path d="M8.61678 19.7747C8.36622 18.8113 7.64002 18.5241 6.73865 18.4897H0.0554348L0 18.8046C5.20089 20.0663 8.64228 23.1064 10.0703 26.7617L8.61678 19.7747Z" fill="#272A32"/>
        <path d="M34.2839 21.6572C35.6941 21.635 36.7164 21.9432 37.5102 22.2625L37.8993 22.4455L38.4825 19.0174C37.6288 18.697 36.2906 18.3533 34.6209 18.3533C30.3613 18.3533 27.359 20.4986 27.3357 23.573C27.308 25.8447 29.4744 27.1131 31.1108 27.8703C32.7905 28.6464 33.3537 29.1398 33.3459 29.8327C33.3326 30.8915 32.0066 31.3771 30.7682 31.3771C29.042 31.3771 28.1251 31.1387 26.7093 30.5489L26.1538 30.2961L25.5474 33.8362C26.5563 34.2786 28.4178 34.6589 30.3502 34.6788C34.8815 34.6788 37.8262 32.559 37.8572 29.2739C37.8761 27.4767 36.7263 26.1053 34.2351 24.9799C32.7273 24.246 31.8048 23.7582 31.8137 23.0176C31.8137 22.3601 32.5965 21.6572 34.2839 21.6572Z" fill="#272A32"/>
        <path d="M49.5451 18.6426H46.2146C45.1802 18.6426 44.4107 18.9242 43.9562 19.9553L37.5557 34.4504H42.0825C42.0825 34.4504 42.8209 32.5013 42.9883 32.0745C43.4839 32.0745 47.8821 32.0811 48.5085 32.0811C48.6371 32.6333 49.034 34.4504 49.034 34.4504H53.0331L49.5451 18.6426ZM44.2289 28.8371C44.5837 27.9291 45.9463 24.4167 45.9463 24.4167C45.923 24.46 46.2977 23.5021 46.5206 22.9067L46.8111 24.2704C46.8111 24.2704 47.637 28.0466 47.81 28.8371H44.2289Z" fill="#272A32"/>
    </g>
    <defs>
        <clipPath id="clip0_2006_361">
            <rect width="53.0333" height="53.0333" fill="white"/>
        </clipPath>
    </defs>
</svg>
    