<svg width="48" height="48" viewBox="0 0 48 48" fill="none"
    xmlns="http://www.w3.org/2000/svg">
    <path d="M34 6H14C9.58 6 6 9.58 6 14V34C6 38.42 9.58 42 14 42H38C40.22 42 42 40.22 42 38V18C42 16.9391 41.5786 15.9217 40.8284 15.1716C40.0783 14.4214 39.0609 14 38 14V10C38 8.93913 37.5786 7.92172 36.8284 7.17157C36.0783 6.42143 35.0609 6 34 6ZM34 10V14H14C12.54 14 11.18 14.4 10 15.08V14C10 11.8 11.8 10 14 10M31 31C29.34 31 28 29.66 28 28C28 26.34 29.34 25 31 25C32.66 25 34 26.34 34 28C34 29.66 32.66 31 31 31Z" fill="black"/>
</svg>
    